%
M48
M72
T01C0.0120
T02C0.0400
T03C0.1300
%
T01
X11250Y10250
X11750Y12250
X11750Y12750
X10750Y12750
X10750Y13250
X11250Y13750
X11250Y14250
X10750Y14750
X9750Y14750
X9750Y14250
X9250Y15250
X8400Y14850
X7250Y15250
X6250Y14750
X5250Y13750
X5250Y13250
X5250Y12750
X4750Y13250
X6000Y12550
X7100Y10950
X7850Y10950
X8250Y10750
X9250Y10750
X8950Y12500
X8550Y12550
X3750Y11250
X3250Y14250
X8250Y20950
X7850Y21150
X7100Y21150
X6000Y22750
X5250Y22950
X5250Y23450
X5250Y23950
X4750Y23450
X3250Y24450
X6250Y24950
X7250Y25450
X8400Y25050
X9250Y25450
X9750Y24950
X9750Y24450
X10750Y24950
X11250Y24450
X11250Y23950
X10750Y23450
X10750Y22950
X11750Y22950
X11750Y22450
X13250Y23950
X15450Y24450
X16950Y23450
X17450Y23450
X17450Y22950
X18200Y22750
X17450Y23950
X18450Y24950
X19450Y25450
X20600Y25050
X21450Y25450
X21950Y24950
X21950Y24450
X22950Y24950
X23450Y24450
X23450Y23950
X22950Y23450
X22950Y22950
X23950Y22950
X23950Y22450
X25450Y23950
X27650Y24450
X29150Y23450
X29650Y23450
X29650Y22950
X30400Y22750
X29650Y23950
X30650Y24950
X31650Y25450
X32800Y25050
X33650Y25450
X34150Y24950
X34150Y24450
X35150Y24950
X35650Y24450
X35650Y23950
X35150Y23450
X35150Y22950
X36150Y22950
X36150Y22450
X37650Y23950
X35650Y20450
X33650Y20950
X32650Y20950
X32250Y21150
X31500Y21150
X32950Y22750
X33350Y22700
X28150Y21450
X23450Y20450
X21450Y20950
X20450Y20950
X20050Y21150
X19300Y21150
X20750Y22750
X21150Y22700
X15950Y21450
X11250Y20450
X9250Y20950
X8950Y22700
X8550Y22750
X3750Y21450
X13250Y13750
X15450Y14250
X16950Y13250
X17450Y13250
X17450Y12750
X18200Y12550
X17450Y13750
X18450Y14750
X19450Y15250
X20600Y14850
X21450Y15250
X21950Y14750
X21950Y14250
X22950Y14750
X23450Y14250
X23450Y13750
X22950Y13250
X22950Y12750
X23950Y12750
X23950Y12250
X23450Y10250
X21450Y10750
X20450Y10750
X20050Y10950
X19300Y10950
X20750Y12550
X21150Y12500
X25450Y13750
X27650Y14250
X29150Y13250
X29650Y13250
X29650Y12750
X30400Y12550
X29650Y13750
X30650Y14750
X31650Y15250
X32800Y14850
X33650Y15250
X34150Y14750
X34150Y14250
X35150Y14750
X35650Y14250
X35650Y13750
X35150Y13250
X35150Y12750
X36150Y12750
X36150Y12250
X35650Y10250
X33650Y10750
X32650Y10750
X32250Y10950
X31500Y10950
X32950Y12550
X33350Y12500
X37650Y13750
X28150Y11250
X15950Y11250
X11250Y30650
X9250Y31150
X8250Y31150
X7850Y31350
X7100Y31350
X6000Y32950
X5250Y33150
X5250Y33650
X5250Y34150
X4750Y33650
X3250Y34650
X6250Y35150
X7250Y35650
X8400Y35250
X9250Y35650
X9750Y35150
X9750Y34650
X10750Y35150
X11250Y34650
X11250Y34150
X10750Y33650
X10750Y33150
X11750Y33150
X11750Y32650
X13250Y34150
X15450Y34650
X16950Y33650
X17450Y33650
X17450Y33150
X18200Y32950
X17450Y34150
X18450Y35150
X19450Y35650
X20600Y35250
X21450Y35650
X21950Y35150
X21950Y34650
X22950Y35150
X23450Y34650
X23450Y34150
X22950Y33650
X22950Y33150
X23950Y33150
X23950Y32650
X25450Y34150
X27650Y34650
X29150Y33650
X29650Y33650
X29650Y33150
X30400Y32950
X29650Y34150
X30650Y35150
X31650Y35650
X32800Y35250
X33650Y35650
X34150Y35150
X34150Y34650
X35150Y35150
X35650Y34650
X35650Y34150
X35150Y33650
X35150Y33150
X36150Y33150
X36150Y32650
X37650Y34150
X35650Y30650
X33650Y31150
X32650Y31150
X32250Y31350
X31500Y31350
X32950Y32950
X33350Y32900
X28150Y31650
X23450Y30650
X21450Y31150
X20450Y31150
X20050Y31350
X19300Y31350
X20750Y32950
X21150Y32900
X15950Y31650
X8950Y32900
X8550Y32950
X3750Y31650
T02
X4750Y9250
X5750Y9250
X6750Y9250
X7750Y9250
X8750Y9250
X9750Y9250
X10750Y9250
X11750Y9250
X14950Y11750
X16950Y9250
X17950Y9250
X18950Y9250
X19950Y9250
X20950Y9250
X21950Y9250
X22950Y9250
X23950Y9250
X27150Y11750
X29150Y9250
X30150Y9250
X31150Y9250
X32150Y9250
X33150Y9250
X34150Y9250
X35150Y9250
X36150Y9250
X35150Y16250
X34150Y16250
X33150Y16250
X32150Y16250
X31150Y16250
X30150Y16250
X30150Y18250
X29150Y18250
X29150Y19450
X30150Y19450
X31150Y19450
X32150Y19450
X32150Y18250
X31150Y18250
X33150Y18250
X34150Y18250
X35150Y18250
X36150Y18250
X36150Y19450
X35150Y19450
X34150Y19450
X33150Y19450
X27150Y21950
X23950Y19450
X22950Y19450
X21950Y19450
X20950Y19450
X20950Y18250
X21950Y18250
X22950Y18250
X23950Y18250
X22950Y16250
X21950Y16250
X20950Y16250
X19950Y16250
X18950Y16250
X17950Y16250
X17950Y18250
X16950Y18250
X16950Y19450
X17950Y19450
X18950Y19450
X19950Y19450
X19950Y18250
X18950Y18250
X14950Y21950
X11750Y19450
X10750Y19450
X9750Y19450
X8750Y19450
X7750Y19450
X7750Y18250
X8750Y18250
X9750Y18250
X10750Y18250
X11750Y18250
X10750Y16250
X9750Y16250
X8750Y16250
X7750Y16250
X6750Y16250
X5750Y16250
X5750Y18250
X4750Y18250
X4750Y19450
X5750Y19450
X6750Y19450
X6750Y18250
X2750Y21950
X5750Y26450
X6750Y26450
X7750Y26450
X8750Y26450
X9750Y26450
X10750Y26450
X10750Y28450
X9750Y28450
X8750Y28450
X7750Y28450
X6750Y28450
X5750Y28450
X4750Y28450
X4750Y29650
X5750Y29650
X6750Y29650
X7750Y29650
X8750Y29650
X9750Y29650
X10750Y29650
X11750Y29650
X11750Y28450
X14950Y32150
X16950Y29650
X17950Y29650
X18950Y29650
X19950Y29650
X20950Y29650
X21950Y29650
X22950Y29650
X23950Y29650
X23950Y28450
X22950Y28450
X21950Y28450
X20950Y28450
X19950Y28450
X18950Y28450
X17950Y28450
X16950Y28450
X17950Y26450
X18950Y26450
X19950Y26450
X20950Y26450
X21950Y26450
X22950Y26450
X29150Y28450
X30150Y28450
X31150Y28450
X32150Y28450
X33150Y28450
X34150Y28450
X35150Y28450
X36150Y28450
X36150Y29650
X35150Y29650
X34150Y29650
X33150Y29650
X32150Y29650
X31150Y29650
X30150Y29650
X29150Y29650
X27150Y32150
X30150Y36650
X31150Y36650
X32150Y36650
X33150Y36650
X34150Y36650
X35150Y36650
X35150Y38650
X34150Y38650
X33150Y38650
X32150Y38650
X31150Y38650
X30150Y38650
X29150Y38650
X23950Y38650
X22950Y38650
X21950Y38650
X20950Y38650
X19950Y38650
X18950Y38650
X17950Y38650
X16950Y38650
X17950Y36650
X18950Y36650
X19950Y36650
X20950Y36650
X21950Y36650
X22950Y36650
X30150Y26450
X31150Y26450
X32150Y26450
X33150Y26450
X34150Y26450
X35150Y26450
X36150Y38650
X11750Y38650
X10750Y38650
X9750Y38650
X8750Y38650
X7750Y38650
X6750Y38650
X5750Y38650
X4750Y38650
X5750Y36650
X6750Y36650
X7750Y36650
X8750Y36650
X9750Y36650
X10750Y36650
X2750Y32150
X2750Y11750
T03
X3250Y17750
X13250Y17750
X15450Y17750
X25450Y17750
X27650Y17750
X37650Y17750
X37650Y27950
X27650Y27950
X25450Y27950
X15450Y27950
X13250Y27950
X3250Y27950
X3250Y38150
X13250Y38150
X15450Y38150
X25450Y38150
X27650Y38150
X37650Y38150
M30
