%
M48
M72
T01C0.0120
T02C0.0150
T03C0.0400
T04C0.1300
%
T01
X11050Y10950
X11550Y12950
X11550Y13450
X10550Y13450
X10550Y13950
X11050Y14450
X11050Y14950
X10550Y15450
X10050Y15450
X9550Y15450
X9550Y14950
X9550Y15950
X8750Y13200
X8350Y13250
X7650Y11650
X8050Y11450
X9050Y11450
X6900Y11650
X5800Y13250
X5050Y13450
X5050Y13950
X4550Y13950
X5050Y14450
X5550Y15450
X6550Y15450
X3050Y14950
X3550Y11950
X13050Y14450
X15250Y14950
X16750Y13950
X17250Y13950
X17250Y13450
X18000Y13250
X17250Y14450
X17750Y15450
X18750Y15450
X20550Y13250
X20950Y13200
X21250Y11450
X20250Y11450
X19850Y11650
X19100Y11650
X15750Y11950
X21750Y14950
X21750Y15450
X21750Y15950
X22250Y15450
X22750Y15450
X23250Y14950
X23250Y14450
X22750Y13950
X22750Y13450
X23750Y13450
X23750Y12950
X23250Y10950
X25250Y14450
X27450Y14950
X28950Y13950
X29450Y13950
X29450Y13450
X30200Y13250
X29450Y14450
X29950Y15450
X30950Y15450
X32750Y13250
X33150Y13200
X33450Y11450
X32450Y11450
X32050Y11650
X31300Y11650
X27950Y11950
X33950Y14950
X33950Y15450
X33950Y15950
X34450Y15450
X34950Y15450
X35450Y14950
X35450Y14450
X34950Y13950
X34950Y13450
X35950Y13450
X35950Y12950
X35450Y10950
X37450Y14450
X35450Y21150
X35950Y23150
X35950Y23650
X34950Y23650
X34950Y24150
X35450Y24650
X35450Y25150
X34950Y25650
X34450Y25650
X33950Y25650
X33950Y25150
X33950Y26150
X33150Y23400
X32750Y23450
X32050Y21850
X32450Y21650
X33450Y21650
X31300Y21850
X30200Y23450
X29450Y23650
X29450Y24150
X29450Y24650
X28950Y24150
X29950Y25650
X30950Y25650
X27450Y25150
X25250Y24650
X23750Y23650
X23750Y23150
X22750Y23650
X22750Y24150
X23250Y24650
X23250Y25150
X22750Y25650
X22250Y25650
X21750Y25650
X21750Y25150
X21750Y26150
X20950Y23400
X20550Y23450
X19850Y21850
X20250Y21650
X21250Y21650
X23250Y21150
X19100Y21850
X18000Y23450
X17250Y23650
X17250Y24150
X17250Y24650
X16750Y24150
X17750Y25650
X18750Y25650
X15250Y25150
X13050Y24650
X11550Y23650
X11550Y23150
X10550Y23650
X10550Y24150
X11050Y24650
X11050Y25150
X10550Y25650
X10050Y25650
X9550Y25650
X9550Y25150
X9550Y26150
X8750Y23400
X8350Y23450
X7650Y21850
X8050Y21650
X9050Y21650
X11050Y21150
X6900Y21850
X5800Y23450
X5050Y23650
X5050Y24150
X5050Y24650
X4550Y24150
X5550Y25650
X6550Y25650
X3050Y25150
X3550Y22150
X11050Y31350
X9050Y31850
X8050Y31850
X7650Y32050
X6900Y32050
X5800Y33650
X5050Y33850
X5050Y34350
X5050Y34850
X4550Y34350
X5550Y35850
X6550Y35850
X8350Y33650
X8750Y33600
X10550Y33850
X10550Y34350
X11050Y34850
X11050Y35350
X10550Y35850
X10050Y35850
X9550Y35850
X9550Y35350
X9550Y36350
X11550Y33850
X11550Y33350
X13050Y34850
X15250Y35350
X16750Y34350
X17250Y34350
X17250Y33850
X18000Y33650
X17250Y34850
X17750Y35850
X18750Y35850
X20550Y33650
X20950Y33600
X19850Y32050
X20250Y31850
X21250Y31850
X23250Y31350
X23750Y33350
X23750Y33850
X22750Y33850
X22750Y34350
X23250Y34850
X23250Y35350
X22750Y35850
X22250Y35850
X21750Y35850
X21750Y35350
X21750Y36350
X25250Y34850
X27450Y35350
X28950Y34350
X29450Y34350
X29450Y33850
X30200Y33650
X29450Y34850
X29950Y35850
X30950Y35850
X32750Y33650
X33150Y33600
X32050Y32050
X32450Y31850
X33450Y31850
X35450Y31350
X35950Y33350
X35950Y33850
X34950Y33850
X34950Y34350
X35450Y34850
X35450Y35350
X34950Y35850
X34450Y35850
X33950Y35850
X33950Y35350
X33950Y36350
X37450Y34850
X31300Y32050
X27950Y32350
X19100Y32050
X15750Y32350
X15750Y22150
X27950Y22150
X37450Y24650
X3550Y32350
X3050Y35350
T02
X6550Y36350
X7550Y34600
X7900Y33650
X6550Y26150
X7550Y24400
X7900Y23450
X6550Y15950
X7550Y14200
X7900Y13250
X18750Y15950
X19750Y14200
X20100Y13250
X20100Y23450
X19750Y24400
X18750Y26150
X20100Y33650
X19750Y34600
X18750Y36350
X30950Y36350
X31950Y34600
X32300Y33650
X30950Y26150
X31950Y24400
X32300Y23450
X30950Y15950
X31950Y14200
X32300Y13250
T03
X4550Y9950
X5550Y9950
X6550Y9950
X7550Y9950
X8550Y9950
X9550Y9950
X10550Y9950
X11550Y9950
X14750Y12450
X16750Y9950
X17750Y9950
X18750Y9950
X19750Y9950
X20750Y9950
X21750Y9950
X22750Y9950
X23750Y9950
X26950Y12450
X28950Y9950
X29950Y9950
X30950Y9950
X31950Y9950
X32950Y9950
X33950Y9950
X34950Y9950
X35950Y9950
X34950Y16950
X33950Y16950
X32950Y16950
X31950Y16950
X30950Y16950
X29950Y16950
X29950Y18950
X28950Y18950
X28950Y20150
X29950Y20150
X30950Y20150
X31950Y20150
X32950Y20150
X33950Y20150
X34950Y20150
X35950Y20150
X35950Y18950
X34950Y18950
X33950Y18950
X32950Y18950
X31950Y18950
X30950Y18950
X26950Y22650
X23750Y20150
X22750Y20150
X21750Y20150
X20750Y20150
X19750Y20150
X18750Y20150
X17750Y20150
X16750Y20150
X16750Y18950
X17750Y18950
X18750Y18950
X19750Y18950
X20750Y18950
X21750Y18950
X22750Y18950
X23750Y18950
X22750Y16950
X21750Y16950
X20750Y16950
X19750Y16950
X18750Y16950
X17750Y16950
X14750Y22650
X11550Y20150
X10550Y20150
X9550Y20150
X8550Y20150
X7550Y20150
X6550Y20150
X5550Y20150
X4550Y20150
X4550Y18950
X5550Y18950
X6550Y18950
X7550Y18950
X8550Y18950
X9550Y18950
X10550Y18950
X11550Y18950
X10550Y16950
X9550Y16950
X8550Y16950
X7550Y16950
X6550Y16950
X5550Y16950
X2550Y12450
X2550Y22650
X5550Y27150
X6550Y27150
X7550Y27150
X8550Y27150
X9550Y27150
X10550Y27150
X10550Y29150
X9550Y29150
X8550Y29150
X7550Y29150
X6550Y29150
X5550Y29150
X4550Y29150
X4550Y30350
X5550Y30350
X6550Y30350
X7550Y30350
X8550Y30350
X9550Y30350
X10550Y30350
X11550Y30350
X11550Y29150
X14750Y32850
X16750Y30350
X17750Y30350
X18750Y30350
X19750Y30350
X20750Y30350
X21750Y30350
X22750Y30350
X23750Y30350
X23750Y29150
X22750Y29150
X21750Y29150
X20750Y29150
X19750Y29150
X18750Y29150
X17750Y29150
X16750Y29150
X17750Y27150
X18750Y27150
X19750Y27150
X20750Y27150
X21750Y27150
X22750Y27150
X28950Y29150
X29950Y29150
X30950Y29150
X31950Y29150
X32950Y29150
X33950Y29150
X34950Y29150
X35950Y29150
X35950Y30350
X34950Y30350
X33950Y30350
X32950Y30350
X31950Y30350
X30950Y30350
X29950Y30350
X28950Y30350
X26950Y32850
X29950Y37350
X30950Y37350
X31950Y37350
X32950Y37350
X33950Y37350
X34950Y37350
X34950Y39350
X33950Y39350
X32950Y39350
X31950Y39350
X30950Y39350
X29950Y39350
X28950Y39350
X23750Y39350
X22750Y39350
X21750Y39350
X20750Y39350
X19750Y39350
X18750Y39350
X17750Y39350
X16750Y39350
X17750Y37350
X18750Y37350
X19750Y37350
X20750Y37350
X21750Y37350
X22750Y37350
X29950Y27150
X30950Y27150
X31950Y27150
X32950Y27150
X33950Y27150
X34950Y27150
X35950Y39350
X11550Y39350
X10550Y39350
X9550Y39350
X8550Y39350
X7550Y39350
X6550Y39350
X5550Y39350
X4550Y39350
X5550Y37350
X6550Y37350
X7550Y37350
X8550Y37350
X9550Y37350
X10550Y37350
X2550Y32850
T04
X3050Y28650
X13050Y28650
X15250Y28650
X25250Y28650
X27450Y28650
X37450Y28650
X37450Y18450
X27450Y18450
X25250Y18450
X15250Y18450
X13050Y18450
X3050Y18450
X3050Y38850
X13050Y38850
X15250Y38850
X25250Y38850
X27450Y38850
X37450Y38850
M30
