G75*
%MOIN*%
%OFA0B0*%
%FSLAX25Y25*%
%IPPOS*%
%LPD*%
%AMOC8*
5,1,8,0,0,1.08239X$1,22.5*
%
%ADD10R,0.07874X0.04724*%
%ADD11R,0.05315X0.02362*%
%ADD12R,0.03937X0.04331*%
%ADD13R,0.00984X0.02756*%
%ADD14R,0.02756X0.00984*%
%ADD15R,0.04331X0.03937*%
%ADD16R,0.08800X0.13000*%
D10*
X0028031Y0126476D03*
X0028031Y0148524D03*
X0028031Y0228476D03*
X0028031Y0250524D03*
X0028031Y0330476D03*
X0028031Y0352524D03*
X0136969Y0352524D03*
X0150031Y0352524D03*
X0150031Y0330476D03*
X0136969Y0330476D03*
X0136969Y0250524D03*
X0150031Y0250524D03*
X0150031Y0228476D03*
X0136969Y0228476D03*
X0136969Y0148524D03*
X0150031Y0148524D03*
X0150031Y0126476D03*
X0136969Y0126476D03*
X0258969Y0126476D03*
X0272031Y0126476D03*
X0272031Y0148524D03*
X0258969Y0148524D03*
X0258969Y0228476D03*
X0272031Y0228476D03*
X0272031Y0250524D03*
X0258969Y0250524D03*
X0258969Y0330476D03*
X0272031Y0330476D03*
X0272031Y0352524D03*
X0258969Y0352524D03*
X0380969Y0352524D03*
X0380969Y0330476D03*
X0380969Y0250524D03*
X0380969Y0228476D03*
X0380969Y0148524D03*
X0380969Y0126476D03*
D11*
X0366500Y0131594D03*
X0366500Y0135531D03*
X0366500Y0139469D03*
X0366500Y0143406D03*
X0286500Y0143406D03*
X0286500Y0139469D03*
X0286500Y0135531D03*
X0286500Y0131594D03*
X0244500Y0131594D03*
X0244500Y0135531D03*
X0244500Y0139469D03*
X0244500Y0143406D03*
X0164500Y0143406D03*
X0164500Y0139469D03*
X0164500Y0135531D03*
X0164500Y0131594D03*
X0122500Y0131594D03*
X0122500Y0135531D03*
X0122500Y0139469D03*
X0122500Y0143406D03*
X0042500Y0143406D03*
X0042500Y0139469D03*
X0042500Y0135531D03*
X0042500Y0131594D03*
X0042500Y0233594D03*
X0042500Y0237531D03*
X0042500Y0241469D03*
X0042500Y0245406D03*
X0122500Y0245406D03*
X0122500Y0241469D03*
X0122500Y0237531D03*
X0122500Y0233594D03*
X0164500Y0233594D03*
X0164500Y0237531D03*
X0164500Y0241469D03*
X0164500Y0245406D03*
X0244500Y0245406D03*
X0244500Y0241469D03*
X0244500Y0237531D03*
X0244500Y0233594D03*
X0286500Y0233594D03*
X0286500Y0237531D03*
X0286500Y0241469D03*
X0286500Y0245406D03*
X0366500Y0245406D03*
X0366500Y0241469D03*
X0366500Y0237531D03*
X0366500Y0233594D03*
X0366500Y0335594D03*
X0366500Y0339531D03*
X0366500Y0343469D03*
X0366500Y0347406D03*
X0286500Y0347406D03*
X0286500Y0343469D03*
X0286500Y0339531D03*
X0286500Y0335594D03*
X0244500Y0335594D03*
X0244500Y0339531D03*
X0244500Y0343469D03*
X0244500Y0347406D03*
X0164500Y0347406D03*
X0164500Y0343469D03*
X0164500Y0339531D03*
X0164500Y0335594D03*
X0122500Y0335594D03*
X0122500Y0339531D03*
X0122500Y0343469D03*
X0122500Y0347406D03*
X0042500Y0347406D03*
X0042500Y0343469D03*
X0042500Y0339531D03*
X0042500Y0335594D03*
D12*
X0056000Y0114154D03*
X0056000Y0120846D03*
X0063500Y0120846D03*
X0071000Y0120846D03*
X0071000Y0114154D03*
X0063500Y0114154D03*
X0078500Y0114154D03*
X0086000Y0114154D03*
X0086000Y0120846D03*
X0078500Y0120846D03*
X0093500Y0120846D03*
X0093500Y0114154D03*
X0101000Y0114154D03*
X0108500Y0114154D03*
X0108500Y0120846D03*
X0101000Y0120846D03*
X0062500Y0134154D03*
X0062500Y0140846D03*
X0063500Y0216154D03*
X0063500Y0222846D03*
X0071000Y0222846D03*
X0071000Y0216154D03*
X0078500Y0216154D03*
X0078500Y0222846D03*
X0086000Y0222846D03*
X0086000Y0216154D03*
X0093500Y0216154D03*
X0093500Y0222846D03*
X0101000Y0222846D03*
X0101000Y0216154D03*
X0108500Y0216154D03*
X0108500Y0222846D03*
X0062500Y0236154D03*
X0062500Y0242846D03*
X0056000Y0222846D03*
X0056000Y0216154D03*
X0056000Y0318154D03*
X0056000Y0324846D03*
X0063500Y0324846D03*
X0063500Y0318154D03*
X0071000Y0318154D03*
X0071000Y0324846D03*
X0078500Y0324846D03*
X0078500Y0318154D03*
X0086000Y0318154D03*
X0086000Y0324846D03*
X0093500Y0324846D03*
X0093500Y0318154D03*
X0101000Y0318154D03*
X0101000Y0324846D03*
X0108500Y0324846D03*
X0108500Y0318154D03*
X0062500Y0338154D03*
X0062500Y0344846D03*
X0178000Y0324846D03*
X0178000Y0318154D03*
X0185500Y0318154D03*
X0185500Y0324846D03*
X0193000Y0324846D03*
X0193000Y0318154D03*
X0200500Y0318154D03*
X0200500Y0324846D03*
X0208000Y0324846D03*
X0208000Y0318154D03*
X0215500Y0318154D03*
X0215500Y0324846D03*
X0223000Y0324846D03*
X0223000Y0318154D03*
X0230500Y0318154D03*
X0230500Y0324846D03*
X0184500Y0338154D03*
X0184500Y0344846D03*
X0184500Y0242846D03*
X0184500Y0236154D03*
X0185500Y0222846D03*
X0185500Y0216154D03*
X0178000Y0216154D03*
X0178000Y0222846D03*
X0193000Y0222846D03*
X0193000Y0216154D03*
X0200500Y0216154D03*
X0200500Y0222846D03*
X0208000Y0222846D03*
X0208000Y0216154D03*
X0215500Y0216154D03*
X0215500Y0222846D03*
X0223000Y0222846D03*
X0223000Y0216154D03*
X0230500Y0216154D03*
X0230500Y0222846D03*
X0300000Y0222846D03*
X0300000Y0216154D03*
X0307500Y0216154D03*
X0307500Y0222846D03*
X0315000Y0222846D03*
X0315000Y0216154D03*
X0322500Y0216154D03*
X0322500Y0222846D03*
X0330000Y0222846D03*
X0330000Y0216154D03*
X0337500Y0216154D03*
X0337500Y0222846D03*
X0345000Y0222846D03*
X0345000Y0216154D03*
X0352500Y0216154D03*
X0352500Y0222846D03*
X0306500Y0236154D03*
X0306500Y0242846D03*
X0307500Y0318154D03*
X0307500Y0324846D03*
X0300000Y0324846D03*
X0300000Y0318154D03*
X0315000Y0318154D03*
X0315000Y0324846D03*
X0322500Y0324846D03*
X0322500Y0318154D03*
X0330000Y0318154D03*
X0330000Y0324846D03*
X0337500Y0324846D03*
X0337500Y0318154D03*
X0345000Y0318154D03*
X0345000Y0324846D03*
X0352500Y0324846D03*
X0352500Y0318154D03*
X0306500Y0338154D03*
X0306500Y0344846D03*
X0306500Y0140846D03*
X0306500Y0134154D03*
X0307500Y0120846D03*
X0300000Y0120846D03*
X0300000Y0114154D03*
X0307500Y0114154D03*
X0315000Y0114154D03*
X0315000Y0120846D03*
X0322500Y0120846D03*
X0330000Y0120846D03*
X0330000Y0114154D03*
X0322500Y0114154D03*
X0337500Y0114154D03*
X0337500Y0120846D03*
X0345000Y0120846D03*
X0352500Y0120846D03*
X0352500Y0114154D03*
X0345000Y0114154D03*
X0230500Y0114154D03*
X0223000Y0114154D03*
X0223000Y0120846D03*
X0230500Y0120846D03*
X0215500Y0120846D03*
X0215500Y0114154D03*
X0208000Y0114154D03*
X0200500Y0114154D03*
X0200500Y0120846D03*
X0208000Y0120846D03*
X0193000Y0120846D03*
X0193000Y0114154D03*
X0185500Y0114154D03*
X0178000Y0114154D03*
X0178000Y0120846D03*
X0185500Y0120846D03*
X0184500Y0134154D03*
X0184500Y0140846D03*
D13*
X0195642Y0143602D03*
X0197610Y0143602D03*
X0199579Y0143602D03*
X0201547Y0143602D03*
X0203516Y0143602D03*
X0205484Y0143602D03*
X0207453Y0143602D03*
X0209421Y0143602D03*
X0211390Y0143602D03*
X0213358Y0143602D03*
X0213358Y0131398D03*
X0211390Y0131398D03*
X0209421Y0131398D03*
X0207453Y0131398D03*
X0205484Y0131398D03*
X0203516Y0131398D03*
X0201547Y0131398D03*
X0199579Y0131398D03*
X0197610Y0131398D03*
X0195642Y0131398D03*
X0091358Y0131398D03*
X0089390Y0131398D03*
X0087421Y0131398D03*
X0085453Y0131398D03*
X0083484Y0131398D03*
X0081516Y0131398D03*
X0079547Y0131398D03*
X0077579Y0131398D03*
X0075610Y0131398D03*
X0073642Y0131398D03*
X0073642Y0143602D03*
X0075610Y0143602D03*
X0077579Y0143602D03*
X0079547Y0143602D03*
X0081516Y0143602D03*
X0083484Y0143602D03*
X0085453Y0143602D03*
X0087421Y0143602D03*
X0089390Y0143602D03*
X0091358Y0143602D03*
X0091358Y0233398D03*
X0089390Y0233398D03*
X0087421Y0233398D03*
X0085453Y0233398D03*
X0083484Y0233398D03*
X0081516Y0233398D03*
X0079547Y0233398D03*
X0077579Y0233398D03*
X0075610Y0233398D03*
X0073642Y0233398D03*
X0073642Y0245602D03*
X0075610Y0245602D03*
X0077579Y0245602D03*
X0079547Y0245602D03*
X0081516Y0245602D03*
X0083484Y0245602D03*
X0085453Y0245602D03*
X0087421Y0245602D03*
X0089390Y0245602D03*
X0091358Y0245602D03*
X0091358Y0335398D03*
X0089390Y0335398D03*
X0087421Y0335398D03*
X0085453Y0335398D03*
X0083484Y0335398D03*
X0081516Y0335398D03*
X0079547Y0335398D03*
X0077579Y0335398D03*
X0075610Y0335398D03*
X0073642Y0335398D03*
X0073642Y0347602D03*
X0075610Y0347602D03*
X0077579Y0347602D03*
X0079547Y0347602D03*
X0081516Y0347602D03*
X0083484Y0347602D03*
X0085453Y0347602D03*
X0087421Y0347602D03*
X0089390Y0347602D03*
X0091358Y0347602D03*
X0195642Y0347602D03*
X0197610Y0347602D03*
X0199579Y0347602D03*
X0201547Y0347602D03*
X0203516Y0347602D03*
X0205484Y0347602D03*
X0207453Y0347602D03*
X0209421Y0347602D03*
X0211390Y0347602D03*
X0213358Y0347602D03*
X0213358Y0335398D03*
X0211390Y0335398D03*
X0209421Y0335398D03*
X0207453Y0335398D03*
X0205484Y0335398D03*
X0203516Y0335398D03*
X0201547Y0335398D03*
X0199579Y0335398D03*
X0197610Y0335398D03*
X0195642Y0335398D03*
X0195642Y0245602D03*
X0197610Y0245602D03*
X0199579Y0245602D03*
X0201547Y0245602D03*
X0203516Y0245602D03*
X0205484Y0245602D03*
X0207453Y0245602D03*
X0209421Y0245602D03*
X0211390Y0245602D03*
X0213358Y0245602D03*
X0213358Y0233398D03*
X0211390Y0233398D03*
X0209421Y0233398D03*
X0207453Y0233398D03*
X0205484Y0233398D03*
X0203516Y0233398D03*
X0201547Y0233398D03*
X0199579Y0233398D03*
X0197610Y0233398D03*
X0195642Y0233398D03*
X0317642Y0233398D03*
X0319610Y0233398D03*
X0321579Y0233398D03*
X0323547Y0233398D03*
X0325516Y0233398D03*
X0327484Y0233398D03*
X0329453Y0233398D03*
X0331421Y0233398D03*
X0333390Y0233398D03*
X0335358Y0233398D03*
X0335358Y0245602D03*
X0333390Y0245602D03*
X0331421Y0245602D03*
X0329453Y0245602D03*
X0327484Y0245602D03*
X0325516Y0245602D03*
X0323547Y0245602D03*
X0321579Y0245602D03*
X0319610Y0245602D03*
X0317642Y0245602D03*
X0317642Y0335398D03*
X0319610Y0335398D03*
X0321579Y0335398D03*
X0323547Y0335398D03*
X0325516Y0335398D03*
X0327484Y0335398D03*
X0329453Y0335398D03*
X0331421Y0335398D03*
X0333390Y0335398D03*
X0335358Y0335398D03*
X0335358Y0347602D03*
X0333390Y0347602D03*
X0331421Y0347602D03*
X0329453Y0347602D03*
X0327484Y0347602D03*
X0325516Y0347602D03*
X0323547Y0347602D03*
X0321579Y0347602D03*
X0319610Y0347602D03*
X0317642Y0347602D03*
X0317642Y0143602D03*
X0319610Y0143602D03*
X0321579Y0143602D03*
X0323547Y0143602D03*
X0325516Y0143602D03*
X0327484Y0143602D03*
X0329453Y0143602D03*
X0331421Y0143602D03*
X0333390Y0143602D03*
X0335358Y0143602D03*
X0335358Y0131398D03*
X0333390Y0131398D03*
X0331421Y0131398D03*
X0329453Y0131398D03*
X0327484Y0131398D03*
X0325516Y0131398D03*
X0323547Y0131398D03*
X0321579Y0131398D03*
X0319610Y0131398D03*
X0317642Y0131398D03*
D14*
X0317642Y0134547D03*
X0317642Y0136516D03*
X0317642Y0138484D03*
X0317642Y0140453D03*
X0335358Y0140453D03*
X0335358Y0138484D03*
X0335358Y0136516D03*
X0335358Y0134547D03*
X0335358Y0236547D03*
X0335358Y0238516D03*
X0335358Y0240484D03*
X0335358Y0242453D03*
X0317642Y0242453D03*
X0317642Y0240484D03*
X0317642Y0238516D03*
X0317642Y0236547D03*
X0213358Y0236547D03*
X0213358Y0238516D03*
X0213358Y0240484D03*
X0213358Y0242453D03*
X0195642Y0242453D03*
X0195642Y0240484D03*
X0195642Y0238516D03*
X0195642Y0236547D03*
X0195642Y0140453D03*
X0195642Y0138484D03*
X0195642Y0136516D03*
X0195642Y0134547D03*
X0213358Y0134547D03*
X0213358Y0136516D03*
X0213358Y0138484D03*
X0213358Y0140453D03*
X0091358Y0140453D03*
X0091358Y0138484D03*
X0091358Y0136516D03*
X0091358Y0134547D03*
X0073642Y0134547D03*
X0073642Y0136516D03*
X0073642Y0138484D03*
X0073642Y0140453D03*
X0073642Y0236547D03*
X0073642Y0238516D03*
X0073642Y0240484D03*
X0073642Y0242453D03*
X0091358Y0242453D03*
X0091358Y0240484D03*
X0091358Y0238516D03*
X0091358Y0236547D03*
X0091358Y0338547D03*
X0091358Y0340516D03*
X0091358Y0342484D03*
X0091358Y0344453D03*
X0073642Y0344453D03*
X0073642Y0342484D03*
X0073642Y0340516D03*
X0073642Y0338547D03*
X0195642Y0338547D03*
X0195642Y0340516D03*
X0195642Y0342484D03*
X0195642Y0344453D03*
X0213358Y0344453D03*
X0213358Y0342484D03*
X0213358Y0340516D03*
X0213358Y0338547D03*
X0317642Y0338547D03*
X0317642Y0340516D03*
X0317642Y0342484D03*
X0317642Y0344453D03*
X0335358Y0344453D03*
X0335358Y0342484D03*
X0335358Y0340516D03*
X0335358Y0338547D03*
D15*
X0329846Y0356500D03*
X0323154Y0356500D03*
X0368154Y0321500D03*
X0374846Y0321500D03*
X0374846Y0301500D03*
X0368154Y0301500D03*
X0329846Y0254500D03*
X0323154Y0254500D03*
X0368154Y0219500D03*
X0374846Y0219500D03*
X0374846Y0199500D03*
X0368154Y0199500D03*
X0329846Y0152500D03*
X0323154Y0152500D03*
X0368154Y0117500D03*
X0374846Y0117500D03*
X0374846Y0097500D03*
X0368154Y0097500D03*
X0252846Y0097500D03*
X0246154Y0097500D03*
X0246154Y0117500D03*
X0252846Y0117500D03*
X0207846Y0152500D03*
X0201154Y0152500D03*
X0246154Y0199500D03*
X0252846Y0199500D03*
X0252846Y0219500D03*
X0246154Y0219500D03*
X0207846Y0254500D03*
X0201154Y0254500D03*
X0246154Y0301500D03*
X0252846Y0301500D03*
X0252846Y0321500D03*
X0246154Y0321500D03*
X0207846Y0356500D03*
X0201154Y0356500D03*
X0130846Y0321500D03*
X0124154Y0321500D03*
X0124154Y0301500D03*
X0130846Y0301500D03*
X0085846Y0254500D03*
X0079154Y0254500D03*
X0124154Y0219500D03*
X0130846Y0219500D03*
X0130846Y0199500D03*
X0124154Y0199500D03*
X0085846Y0152500D03*
X0079154Y0152500D03*
X0124154Y0117500D03*
X0130846Y0117500D03*
X0130846Y0097500D03*
X0124154Y0097500D03*
X0085846Y0356500D03*
X0079154Y0356500D03*
D16*
X0127500Y0311500D03*
X0127500Y0209500D03*
X0127500Y0107500D03*
X0249500Y0107500D03*
X0249500Y0209500D03*
X0249500Y0311500D03*
X0371500Y0311500D03*
X0371500Y0209500D03*
X0371500Y0107500D03*
M02*
