G75*
%MOIN*%
%OFA0B0*%
%FSLAX25Y25*%
%IPPOS*%
%LPD*%
%AMOC8*
5,1,8,0,0,1.08239X$1,22.5*
%
%ADD10C,0.13800*%
%ADD11C,0.08200*%
%ADD12R,0.03300X0.05800*%
D10*
X0032500Y0177500D03*
X0132500Y0177500D03*
X0154500Y0177500D03*
X0254500Y0177500D03*
X0276500Y0177500D03*
X0376500Y0177500D03*
X0376500Y0279500D03*
X0276500Y0279500D03*
X0254500Y0279500D03*
X0154500Y0279500D03*
X0132500Y0279500D03*
X0032500Y0279500D03*
X0032500Y0381500D03*
X0132500Y0381500D03*
X0154500Y0381500D03*
X0254500Y0381500D03*
X0276500Y0381500D03*
X0376500Y0381500D03*
D11*
X0047500Y0092500D03*
X0057500Y0092500D03*
X0067500Y0092500D03*
X0077500Y0092500D03*
X0087500Y0092500D03*
X0097500Y0092500D03*
X0107500Y0092500D03*
X0117500Y0092500D03*
X0149500Y0117500D03*
X0169500Y0092500D03*
X0179500Y0092500D03*
X0189500Y0092500D03*
X0199500Y0092500D03*
X0209500Y0092500D03*
X0219500Y0092500D03*
X0229500Y0092500D03*
X0239500Y0092500D03*
X0271500Y0117500D03*
X0291500Y0092500D03*
X0301500Y0092500D03*
X0311500Y0092500D03*
X0321500Y0092500D03*
X0331500Y0092500D03*
X0341500Y0092500D03*
X0351500Y0092500D03*
X0361500Y0092500D03*
X0351500Y0162500D03*
X0341500Y0162500D03*
X0331500Y0162500D03*
X0321500Y0162500D03*
X0311500Y0162500D03*
X0301500Y0162500D03*
X0301500Y0182500D03*
X0291500Y0182500D03*
X0291500Y0194500D03*
X0301500Y0194500D03*
X0311500Y0194500D03*
X0321500Y0194500D03*
X0321500Y0182500D03*
X0311500Y0182500D03*
X0331500Y0182500D03*
X0341500Y0182500D03*
X0351500Y0182500D03*
X0361500Y0182500D03*
X0361500Y0194500D03*
X0351500Y0194500D03*
X0341500Y0194500D03*
X0331500Y0194500D03*
X0271500Y0219500D03*
X0239500Y0194500D03*
X0229500Y0194500D03*
X0219500Y0194500D03*
X0209500Y0194500D03*
X0209500Y0182500D03*
X0219500Y0182500D03*
X0229500Y0182500D03*
X0239500Y0182500D03*
X0229500Y0162500D03*
X0219500Y0162500D03*
X0209500Y0162500D03*
X0199500Y0162500D03*
X0189500Y0162500D03*
X0179500Y0162500D03*
X0179500Y0182500D03*
X0169500Y0182500D03*
X0169500Y0194500D03*
X0179500Y0194500D03*
X0189500Y0194500D03*
X0199500Y0194500D03*
X0199500Y0182500D03*
X0189500Y0182500D03*
X0149500Y0219500D03*
X0117500Y0194500D03*
X0107500Y0194500D03*
X0097500Y0194500D03*
X0087500Y0194500D03*
X0077500Y0194500D03*
X0077500Y0182500D03*
X0087500Y0182500D03*
X0097500Y0182500D03*
X0107500Y0182500D03*
X0117500Y0182500D03*
X0107500Y0162500D03*
X0097500Y0162500D03*
X0087500Y0162500D03*
X0077500Y0162500D03*
X0067500Y0162500D03*
X0057500Y0162500D03*
X0057500Y0182500D03*
X0047500Y0182500D03*
X0047500Y0194500D03*
X0057500Y0194500D03*
X0067500Y0194500D03*
X0067500Y0182500D03*
X0027500Y0219500D03*
X0057500Y0264500D03*
X0067500Y0264500D03*
X0077500Y0264500D03*
X0087500Y0264500D03*
X0097500Y0264500D03*
X0107500Y0264500D03*
X0107500Y0284500D03*
X0097500Y0284500D03*
X0087500Y0284500D03*
X0077500Y0284500D03*
X0067500Y0284500D03*
X0057500Y0284500D03*
X0047500Y0284500D03*
X0047500Y0296500D03*
X0057500Y0296500D03*
X0067500Y0296500D03*
X0077500Y0296500D03*
X0087500Y0296500D03*
X0097500Y0296500D03*
X0107500Y0296500D03*
X0117500Y0296500D03*
X0117500Y0284500D03*
X0149500Y0321500D03*
X0169500Y0296500D03*
X0179500Y0296500D03*
X0189500Y0296500D03*
X0199500Y0296500D03*
X0209500Y0296500D03*
X0219500Y0296500D03*
X0229500Y0296500D03*
X0239500Y0296500D03*
X0239500Y0284500D03*
X0229500Y0284500D03*
X0219500Y0284500D03*
X0209500Y0284500D03*
X0199500Y0284500D03*
X0189500Y0284500D03*
X0179500Y0284500D03*
X0169500Y0284500D03*
X0179500Y0264500D03*
X0189500Y0264500D03*
X0199500Y0264500D03*
X0209500Y0264500D03*
X0219500Y0264500D03*
X0229500Y0264500D03*
X0291500Y0284500D03*
X0301500Y0284500D03*
X0311500Y0284500D03*
X0321500Y0284500D03*
X0331500Y0284500D03*
X0341500Y0284500D03*
X0351500Y0284500D03*
X0361500Y0284500D03*
X0361500Y0296500D03*
X0351500Y0296500D03*
X0341500Y0296500D03*
X0331500Y0296500D03*
X0321500Y0296500D03*
X0311500Y0296500D03*
X0301500Y0296500D03*
X0291500Y0296500D03*
X0271500Y0321500D03*
X0301500Y0366500D03*
X0311500Y0366500D03*
X0321500Y0366500D03*
X0331500Y0366500D03*
X0341500Y0366500D03*
X0351500Y0366500D03*
X0351500Y0386500D03*
X0341500Y0386500D03*
X0331500Y0386500D03*
X0321500Y0386500D03*
X0311500Y0386500D03*
X0301500Y0386500D03*
X0291500Y0386500D03*
X0239500Y0386500D03*
X0229500Y0386500D03*
X0219500Y0386500D03*
X0209500Y0386500D03*
X0199500Y0386500D03*
X0189500Y0386500D03*
X0179500Y0386500D03*
X0169500Y0386500D03*
X0179500Y0366500D03*
X0189500Y0366500D03*
X0199500Y0366500D03*
X0209500Y0366500D03*
X0219500Y0366500D03*
X0229500Y0366500D03*
X0301500Y0264500D03*
X0311500Y0264500D03*
X0321500Y0264500D03*
X0331500Y0264500D03*
X0341500Y0264500D03*
X0351500Y0264500D03*
X0361500Y0386500D03*
X0117500Y0386500D03*
X0107500Y0386500D03*
X0097500Y0386500D03*
X0087500Y0386500D03*
X0077500Y0386500D03*
X0067500Y0386500D03*
X0057500Y0386500D03*
X0047500Y0386500D03*
X0057500Y0366500D03*
X0067500Y0366500D03*
X0077500Y0366500D03*
X0087500Y0366500D03*
X0097500Y0366500D03*
X0107500Y0366500D03*
X0027500Y0321500D03*
X0027500Y0117500D03*
D12*
X0045728Y0112500D03*
X0049272Y0112500D03*
X0049272Y0122500D03*
X0045728Y0122500D03*
X0105728Y0117500D03*
X0109272Y0117500D03*
X0167728Y0112500D03*
X0171272Y0112500D03*
X0171272Y0122500D03*
X0167728Y0122500D03*
X0227728Y0117500D03*
X0231272Y0117500D03*
X0289728Y0112500D03*
X0293272Y0112500D03*
X0293272Y0122500D03*
X0289728Y0122500D03*
X0349728Y0117500D03*
X0353272Y0117500D03*
X0293272Y0214500D03*
X0289728Y0214500D03*
X0289728Y0224500D03*
X0293272Y0224500D03*
X0349728Y0219500D03*
X0353272Y0219500D03*
X0293272Y0316500D03*
X0289728Y0316500D03*
X0289728Y0326500D03*
X0293272Y0326500D03*
X0349728Y0321500D03*
X0353272Y0321500D03*
X0231272Y0321500D03*
X0227728Y0321500D03*
X0171272Y0316500D03*
X0167728Y0316500D03*
X0167728Y0326500D03*
X0171272Y0326500D03*
X0109272Y0321500D03*
X0105728Y0321500D03*
X0049272Y0316500D03*
X0045728Y0316500D03*
X0045728Y0326500D03*
X0049272Y0326500D03*
X0049272Y0224500D03*
X0045728Y0224500D03*
X0045728Y0214500D03*
X0049272Y0214500D03*
X0105728Y0219500D03*
X0109272Y0219500D03*
X0167728Y0214500D03*
X0171272Y0214500D03*
X0171272Y0224500D03*
X0167728Y0224500D03*
X0227728Y0219500D03*
X0231272Y0219500D03*
M02*
