G75*
%MOIN*%
%OFA0B0*%
%FSLAX25Y25*%
%IPPOS*%
%LPD*%
%AMOC8*
5,1,8,0,0,1.08239X$1,22.5*
%
%ADD10C,0.00800*%
%ADD11C,0.01000*%
%ADD12C,0.01100*%
%ADD13C,0.00000*%
D10*
X0020500Y0094500D02*
X0140500Y0094500D01*
X0140500Y0194500D01*
X0020500Y0194500D01*
X0020500Y0094500D01*
X0020500Y0196500D02*
X0140500Y0196500D01*
X0140500Y0296500D01*
X0020500Y0296500D01*
X0020500Y0196500D01*
X0020500Y0298500D02*
X0140500Y0298500D01*
X0140500Y0398500D01*
X0020500Y0398500D01*
X0020500Y0298500D01*
X0142500Y0298500D02*
X0262500Y0298500D01*
X0262500Y0398500D01*
X0142500Y0398500D01*
X0142500Y0298500D01*
X0142500Y0296500D02*
X0262500Y0296500D01*
X0262500Y0196500D01*
X0142500Y0196500D01*
X0142500Y0296500D01*
X0142500Y0194500D02*
X0262500Y0194500D01*
X0262500Y0094500D01*
X0142500Y0094500D01*
X0142500Y0194500D01*
X0264500Y0194500D02*
X0264500Y0094500D01*
X0384500Y0094500D01*
X0384500Y0194500D01*
X0264500Y0194500D01*
X0264500Y0196500D02*
X0384500Y0196500D01*
X0384500Y0296500D01*
X0264500Y0296500D01*
X0264500Y0196500D01*
X0264500Y0298500D02*
X0384500Y0298500D01*
X0384500Y0398500D01*
X0264500Y0398500D01*
X0264500Y0298500D01*
D11*
X0263500Y0420500D02*
X0263500Y0001500D01*
X0141500Y0004500D02*
X0141500Y0423500D01*
X0001500Y0297500D02*
X0420500Y0297500D01*
X0423500Y0195500D02*
X0004500Y0195500D01*
X0004500Y0196500D01*
D12*
X0121018Y0428050D02*
X0122987Y0431987D01*
X0125495Y0431003D02*
X0126480Y0431987D01*
X0129432Y0431987D01*
X0128448Y0430018D02*
X0126480Y0430018D01*
X0125495Y0431003D01*
X0125495Y0428050D02*
X0128448Y0428050D01*
X0129432Y0429034D01*
X0128448Y0430018D01*
X0131941Y0429034D02*
X0132925Y0428050D01*
X0135878Y0428050D01*
X0138386Y0429034D02*
X0138386Y0431003D01*
X0139371Y0431987D01*
X0141339Y0431987D01*
X0142323Y0431003D01*
X0142323Y0429034D01*
X0141339Y0428050D01*
X0139371Y0428050D01*
X0138386Y0429034D01*
X0135878Y0431987D02*
X0132925Y0431987D01*
X0131941Y0431003D01*
X0131941Y0429034D01*
X0144832Y0428050D02*
X0144832Y0431987D01*
X0146800Y0431987D02*
X0144832Y0430018D01*
X0146800Y0431987D02*
X0147785Y0431987D01*
X0150203Y0431003D02*
X0151187Y0431987D01*
X0153156Y0431987D01*
X0154140Y0431003D01*
X0154140Y0430018D01*
X0150203Y0430018D01*
X0150203Y0429034D02*
X0150203Y0431003D01*
X0150203Y0429034D02*
X0151187Y0428050D01*
X0153156Y0428050D01*
X0121018Y0428050D02*
X0119050Y0431987D01*
X0245050Y0428987D02*
X0247018Y0425050D01*
X0248987Y0428987D01*
X0251495Y0428003D02*
X0252480Y0428987D01*
X0255432Y0428987D01*
X0254448Y0427018D02*
X0252480Y0427018D01*
X0251495Y0428003D01*
X0251495Y0425050D02*
X0254448Y0425050D01*
X0255432Y0426034D01*
X0254448Y0427018D01*
X0257941Y0426034D02*
X0258925Y0425050D01*
X0261878Y0425050D01*
X0264386Y0426034D02*
X0265371Y0425050D01*
X0267339Y0425050D01*
X0268323Y0426034D01*
X0268323Y0428003D01*
X0267339Y0428987D01*
X0265371Y0428987D01*
X0264386Y0428003D01*
X0264386Y0426034D01*
X0261878Y0428987D02*
X0258925Y0428987D01*
X0257941Y0428003D01*
X0257941Y0426034D01*
X0270832Y0425050D02*
X0270832Y0428987D01*
X0272800Y0428987D02*
X0270832Y0427018D01*
X0272800Y0428987D02*
X0273785Y0428987D01*
X0276203Y0428003D02*
X0277187Y0428987D01*
X0279156Y0428987D01*
X0280140Y0428003D01*
X0280140Y0427018D01*
X0276203Y0427018D01*
X0276203Y0426034D02*
X0276203Y0428003D01*
X0276203Y0426034D02*
X0277187Y0425050D01*
X0279156Y0425050D01*
X0427050Y0299987D02*
X0429018Y0296050D01*
X0430987Y0299987D01*
X0433495Y0299003D02*
X0434480Y0299987D01*
X0437432Y0299987D01*
X0436448Y0298018D02*
X0437432Y0297034D01*
X0436448Y0296050D01*
X0433495Y0296050D01*
X0434480Y0298018D02*
X0433495Y0299003D01*
X0434480Y0298018D02*
X0436448Y0298018D01*
X0439941Y0297034D02*
X0440925Y0296050D01*
X0443878Y0296050D01*
X0446386Y0297034D02*
X0446386Y0299003D01*
X0447371Y0299987D01*
X0449339Y0299987D01*
X0450323Y0299003D01*
X0450323Y0297034D01*
X0449339Y0296050D01*
X0447371Y0296050D01*
X0446386Y0297034D01*
X0443878Y0299987D02*
X0440925Y0299987D01*
X0439941Y0299003D01*
X0439941Y0297034D01*
X0452832Y0296050D02*
X0452832Y0299987D01*
X0454800Y0299987D02*
X0455785Y0299987D01*
X0454800Y0299987D02*
X0452832Y0298018D01*
X0458203Y0298018D02*
X0462140Y0298018D01*
X0462140Y0299003D01*
X0461156Y0299987D01*
X0459187Y0299987D01*
X0458203Y0299003D01*
X0458203Y0297034D01*
X0459187Y0296050D01*
X0461156Y0296050D01*
X0461187Y0197987D02*
X0463156Y0197987D01*
X0464140Y0197003D01*
X0464140Y0196018D01*
X0460203Y0196018D01*
X0460203Y0195034D02*
X0460203Y0197003D01*
X0461187Y0197987D01*
X0460203Y0195034D02*
X0461187Y0194050D01*
X0463156Y0194050D01*
X0457785Y0197987D02*
X0456800Y0197987D01*
X0454832Y0196018D01*
X0454832Y0194050D02*
X0454832Y0197987D01*
X0452323Y0197003D02*
X0451339Y0197987D01*
X0449371Y0197987D01*
X0448386Y0197003D01*
X0448386Y0195034D01*
X0449371Y0194050D01*
X0451339Y0194050D01*
X0452323Y0195034D01*
X0452323Y0197003D01*
X0445878Y0197987D02*
X0442925Y0197987D01*
X0441941Y0197003D01*
X0441941Y0195034D01*
X0442925Y0194050D01*
X0445878Y0194050D01*
X0439432Y0195034D02*
X0438448Y0196018D01*
X0436480Y0196018D01*
X0435495Y0197003D01*
X0436480Y0197987D01*
X0439432Y0197987D01*
X0439432Y0195034D02*
X0438448Y0194050D01*
X0435495Y0194050D01*
X0431018Y0194050D02*
X0429050Y0197987D01*
X0432987Y0197987D02*
X0431018Y0194050D01*
D13*
X0368000Y0184500D02*
X0368002Y0184661D01*
X0368008Y0184821D01*
X0368018Y0184982D01*
X0368032Y0185142D01*
X0368050Y0185302D01*
X0368071Y0185461D01*
X0368097Y0185620D01*
X0368127Y0185778D01*
X0368160Y0185935D01*
X0368198Y0186092D01*
X0368239Y0186247D01*
X0368284Y0186401D01*
X0368333Y0186554D01*
X0368386Y0186706D01*
X0368442Y0186857D01*
X0368503Y0187006D01*
X0368566Y0187154D01*
X0368634Y0187300D01*
X0368705Y0187444D01*
X0368779Y0187586D01*
X0368857Y0187727D01*
X0368939Y0187865D01*
X0369024Y0188002D01*
X0369112Y0188136D01*
X0369204Y0188268D01*
X0369299Y0188398D01*
X0369397Y0188526D01*
X0369498Y0188651D01*
X0369602Y0188773D01*
X0369709Y0188893D01*
X0369819Y0189010D01*
X0369932Y0189125D01*
X0370048Y0189236D01*
X0370167Y0189345D01*
X0370288Y0189450D01*
X0370412Y0189553D01*
X0370538Y0189653D01*
X0370666Y0189749D01*
X0370797Y0189842D01*
X0370931Y0189932D01*
X0371066Y0190019D01*
X0371204Y0190102D01*
X0371343Y0190182D01*
X0371485Y0190258D01*
X0371628Y0190331D01*
X0371773Y0190400D01*
X0371920Y0190466D01*
X0372068Y0190528D01*
X0372218Y0190586D01*
X0372369Y0190641D01*
X0372522Y0190692D01*
X0372676Y0190739D01*
X0372831Y0190782D01*
X0372987Y0190821D01*
X0373143Y0190857D01*
X0373301Y0190888D01*
X0373459Y0190916D01*
X0373618Y0190940D01*
X0373778Y0190960D01*
X0373938Y0190976D01*
X0374098Y0190988D01*
X0374259Y0190996D01*
X0374420Y0191000D01*
X0374580Y0191000D01*
X0374741Y0190996D01*
X0374902Y0190988D01*
X0375062Y0190976D01*
X0375222Y0190960D01*
X0375382Y0190940D01*
X0375541Y0190916D01*
X0375699Y0190888D01*
X0375857Y0190857D01*
X0376013Y0190821D01*
X0376169Y0190782D01*
X0376324Y0190739D01*
X0376478Y0190692D01*
X0376631Y0190641D01*
X0376782Y0190586D01*
X0376932Y0190528D01*
X0377080Y0190466D01*
X0377227Y0190400D01*
X0377372Y0190331D01*
X0377515Y0190258D01*
X0377657Y0190182D01*
X0377796Y0190102D01*
X0377934Y0190019D01*
X0378069Y0189932D01*
X0378203Y0189842D01*
X0378334Y0189749D01*
X0378462Y0189653D01*
X0378588Y0189553D01*
X0378712Y0189450D01*
X0378833Y0189345D01*
X0378952Y0189236D01*
X0379068Y0189125D01*
X0379181Y0189010D01*
X0379291Y0188893D01*
X0379398Y0188773D01*
X0379502Y0188651D01*
X0379603Y0188526D01*
X0379701Y0188398D01*
X0379796Y0188268D01*
X0379888Y0188136D01*
X0379976Y0188002D01*
X0380061Y0187865D01*
X0380143Y0187727D01*
X0380221Y0187586D01*
X0380295Y0187444D01*
X0380366Y0187300D01*
X0380434Y0187154D01*
X0380497Y0187006D01*
X0380558Y0186857D01*
X0380614Y0186706D01*
X0380667Y0186554D01*
X0380716Y0186401D01*
X0380761Y0186247D01*
X0380802Y0186092D01*
X0380840Y0185935D01*
X0380873Y0185778D01*
X0380903Y0185620D01*
X0380929Y0185461D01*
X0380950Y0185302D01*
X0380968Y0185142D01*
X0380982Y0184982D01*
X0380992Y0184821D01*
X0380998Y0184661D01*
X0381000Y0184500D01*
X0380998Y0184339D01*
X0380992Y0184179D01*
X0380982Y0184018D01*
X0380968Y0183858D01*
X0380950Y0183698D01*
X0380929Y0183539D01*
X0380903Y0183380D01*
X0380873Y0183222D01*
X0380840Y0183065D01*
X0380802Y0182908D01*
X0380761Y0182753D01*
X0380716Y0182599D01*
X0380667Y0182446D01*
X0380614Y0182294D01*
X0380558Y0182143D01*
X0380497Y0181994D01*
X0380434Y0181846D01*
X0380366Y0181700D01*
X0380295Y0181556D01*
X0380221Y0181414D01*
X0380143Y0181273D01*
X0380061Y0181135D01*
X0379976Y0180998D01*
X0379888Y0180864D01*
X0379796Y0180732D01*
X0379701Y0180602D01*
X0379603Y0180474D01*
X0379502Y0180349D01*
X0379398Y0180227D01*
X0379291Y0180107D01*
X0379181Y0179990D01*
X0379068Y0179875D01*
X0378952Y0179764D01*
X0378833Y0179655D01*
X0378712Y0179550D01*
X0378588Y0179447D01*
X0378462Y0179347D01*
X0378334Y0179251D01*
X0378203Y0179158D01*
X0378069Y0179068D01*
X0377934Y0178981D01*
X0377796Y0178898D01*
X0377657Y0178818D01*
X0377515Y0178742D01*
X0377372Y0178669D01*
X0377227Y0178600D01*
X0377080Y0178534D01*
X0376932Y0178472D01*
X0376782Y0178414D01*
X0376631Y0178359D01*
X0376478Y0178308D01*
X0376324Y0178261D01*
X0376169Y0178218D01*
X0376013Y0178179D01*
X0375857Y0178143D01*
X0375699Y0178112D01*
X0375541Y0178084D01*
X0375382Y0178060D01*
X0375222Y0178040D01*
X0375062Y0178024D01*
X0374902Y0178012D01*
X0374741Y0178004D01*
X0374580Y0178000D01*
X0374420Y0178000D01*
X0374259Y0178004D01*
X0374098Y0178012D01*
X0373938Y0178024D01*
X0373778Y0178040D01*
X0373618Y0178060D01*
X0373459Y0178084D01*
X0373301Y0178112D01*
X0373143Y0178143D01*
X0372987Y0178179D01*
X0372831Y0178218D01*
X0372676Y0178261D01*
X0372522Y0178308D01*
X0372369Y0178359D01*
X0372218Y0178414D01*
X0372068Y0178472D01*
X0371920Y0178534D01*
X0371773Y0178600D01*
X0371628Y0178669D01*
X0371485Y0178742D01*
X0371343Y0178818D01*
X0371204Y0178898D01*
X0371066Y0178981D01*
X0370931Y0179068D01*
X0370797Y0179158D01*
X0370666Y0179251D01*
X0370538Y0179347D01*
X0370412Y0179447D01*
X0370288Y0179550D01*
X0370167Y0179655D01*
X0370048Y0179764D01*
X0369932Y0179875D01*
X0369819Y0179990D01*
X0369709Y0180107D01*
X0369602Y0180227D01*
X0369498Y0180349D01*
X0369397Y0180474D01*
X0369299Y0180602D01*
X0369204Y0180732D01*
X0369112Y0180864D01*
X0369024Y0180998D01*
X0368939Y0181135D01*
X0368857Y0181273D01*
X0368779Y0181414D01*
X0368705Y0181556D01*
X0368634Y0181700D01*
X0368566Y0181846D01*
X0368503Y0181994D01*
X0368442Y0182143D01*
X0368386Y0182294D01*
X0368333Y0182446D01*
X0368284Y0182599D01*
X0368239Y0182753D01*
X0368198Y0182908D01*
X0368160Y0183065D01*
X0368127Y0183222D01*
X0368097Y0183380D01*
X0368071Y0183539D01*
X0368050Y0183698D01*
X0368032Y0183858D01*
X0368018Y0184018D01*
X0368008Y0184179D01*
X0368002Y0184339D01*
X0368000Y0184500D01*
X0268000Y0184500D02*
X0268002Y0184661D01*
X0268008Y0184821D01*
X0268018Y0184982D01*
X0268032Y0185142D01*
X0268050Y0185302D01*
X0268071Y0185461D01*
X0268097Y0185620D01*
X0268127Y0185778D01*
X0268160Y0185935D01*
X0268198Y0186092D01*
X0268239Y0186247D01*
X0268284Y0186401D01*
X0268333Y0186554D01*
X0268386Y0186706D01*
X0268442Y0186857D01*
X0268503Y0187006D01*
X0268566Y0187154D01*
X0268634Y0187300D01*
X0268705Y0187444D01*
X0268779Y0187586D01*
X0268857Y0187727D01*
X0268939Y0187865D01*
X0269024Y0188002D01*
X0269112Y0188136D01*
X0269204Y0188268D01*
X0269299Y0188398D01*
X0269397Y0188526D01*
X0269498Y0188651D01*
X0269602Y0188773D01*
X0269709Y0188893D01*
X0269819Y0189010D01*
X0269932Y0189125D01*
X0270048Y0189236D01*
X0270167Y0189345D01*
X0270288Y0189450D01*
X0270412Y0189553D01*
X0270538Y0189653D01*
X0270666Y0189749D01*
X0270797Y0189842D01*
X0270931Y0189932D01*
X0271066Y0190019D01*
X0271204Y0190102D01*
X0271343Y0190182D01*
X0271485Y0190258D01*
X0271628Y0190331D01*
X0271773Y0190400D01*
X0271920Y0190466D01*
X0272068Y0190528D01*
X0272218Y0190586D01*
X0272369Y0190641D01*
X0272522Y0190692D01*
X0272676Y0190739D01*
X0272831Y0190782D01*
X0272987Y0190821D01*
X0273143Y0190857D01*
X0273301Y0190888D01*
X0273459Y0190916D01*
X0273618Y0190940D01*
X0273778Y0190960D01*
X0273938Y0190976D01*
X0274098Y0190988D01*
X0274259Y0190996D01*
X0274420Y0191000D01*
X0274580Y0191000D01*
X0274741Y0190996D01*
X0274902Y0190988D01*
X0275062Y0190976D01*
X0275222Y0190960D01*
X0275382Y0190940D01*
X0275541Y0190916D01*
X0275699Y0190888D01*
X0275857Y0190857D01*
X0276013Y0190821D01*
X0276169Y0190782D01*
X0276324Y0190739D01*
X0276478Y0190692D01*
X0276631Y0190641D01*
X0276782Y0190586D01*
X0276932Y0190528D01*
X0277080Y0190466D01*
X0277227Y0190400D01*
X0277372Y0190331D01*
X0277515Y0190258D01*
X0277657Y0190182D01*
X0277796Y0190102D01*
X0277934Y0190019D01*
X0278069Y0189932D01*
X0278203Y0189842D01*
X0278334Y0189749D01*
X0278462Y0189653D01*
X0278588Y0189553D01*
X0278712Y0189450D01*
X0278833Y0189345D01*
X0278952Y0189236D01*
X0279068Y0189125D01*
X0279181Y0189010D01*
X0279291Y0188893D01*
X0279398Y0188773D01*
X0279502Y0188651D01*
X0279603Y0188526D01*
X0279701Y0188398D01*
X0279796Y0188268D01*
X0279888Y0188136D01*
X0279976Y0188002D01*
X0280061Y0187865D01*
X0280143Y0187727D01*
X0280221Y0187586D01*
X0280295Y0187444D01*
X0280366Y0187300D01*
X0280434Y0187154D01*
X0280497Y0187006D01*
X0280558Y0186857D01*
X0280614Y0186706D01*
X0280667Y0186554D01*
X0280716Y0186401D01*
X0280761Y0186247D01*
X0280802Y0186092D01*
X0280840Y0185935D01*
X0280873Y0185778D01*
X0280903Y0185620D01*
X0280929Y0185461D01*
X0280950Y0185302D01*
X0280968Y0185142D01*
X0280982Y0184982D01*
X0280992Y0184821D01*
X0280998Y0184661D01*
X0281000Y0184500D01*
X0280998Y0184339D01*
X0280992Y0184179D01*
X0280982Y0184018D01*
X0280968Y0183858D01*
X0280950Y0183698D01*
X0280929Y0183539D01*
X0280903Y0183380D01*
X0280873Y0183222D01*
X0280840Y0183065D01*
X0280802Y0182908D01*
X0280761Y0182753D01*
X0280716Y0182599D01*
X0280667Y0182446D01*
X0280614Y0182294D01*
X0280558Y0182143D01*
X0280497Y0181994D01*
X0280434Y0181846D01*
X0280366Y0181700D01*
X0280295Y0181556D01*
X0280221Y0181414D01*
X0280143Y0181273D01*
X0280061Y0181135D01*
X0279976Y0180998D01*
X0279888Y0180864D01*
X0279796Y0180732D01*
X0279701Y0180602D01*
X0279603Y0180474D01*
X0279502Y0180349D01*
X0279398Y0180227D01*
X0279291Y0180107D01*
X0279181Y0179990D01*
X0279068Y0179875D01*
X0278952Y0179764D01*
X0278833Y0179655D01*
X0278712Y0179550D01*
X0278588Y0179447D01*
X0278462Y0179347D01*
X0278334Y0179251D01*
X0278203Y0179158D01*
X0278069Y0179068D01*
X0277934Y0178981D01*
X0277796Y0178898D01*
X0277657Y0178818D01*
X0277515Y0178742D01*
X0277372Y0178669D01*
X0277227Y0178600D01*
X0277080Y0178534D01*
X0276932Y0178472D01*
X0276782Y0178414D01*
X0276631Y0178359D01*
X0276478Y0178308D01*
X0276324Y0178261D01*
X0276169Y0178218D01*
X0276013Y0178179D01*
X0275857Y0178143D01*
X0275699Y0178112D01*
X0275541Y0178084D01*
X0275382Y0178060D01*
X0275222Y0178040D01*
X0275062Y0178024D01*
X0274902Y0178012D01*
X0274741Y0178004D01*
X0274580Y0178000D01*
X0274420Y0178000D01*
X0274259Y0178004D01*
X0274098Y0178012D01*
X0273938Y0178024D01*
X0273778Y0178040D01*
X0273618Y0178060D01*
X0273459Y0178084D01*
X0273301Y0178112D01*
X0273143Y0178143D01*
X0272987Y0178179D01*
X0272831Y0178218D01*
X0272676Y0178261D01*
X0272522Y0178308D01*
X0272369Y0178359D01*
X0272218Y0178414D01*
X0272068Y0178472D01*
X0271920Y0178534D01*
X0271773Y0178600D01*
X0271628Y0178669D01*
X0271485Y0178742D01*
X0271343Y0178818D01*
X0271204Y0178898D01*
X0271066Y0178981D01*
X0270931Y0179068D01*
X0270797Y0179158D01*
X0270666Y0179251D01*
X0270538Y0179347D01*
X0270412Y0179447D01*
X0270288Y0179550D01*
X0270167Y0179655D01*
X0270048Y0179764D01*
X0269932Y0179875D01*
X0269819Y0179990D01*
X0269709Y0180107D01*
X0269602Y0180227D01*
X0269498Y0180349D01*
X0269397Y0180474D01*
X0269299Y0180602D01*
X0269204Y0180732D01*
X0269112Y0180864D01*
X0269024Y0180998D01*
X0268939Y0181135D01*
X0268857Y0181273D01*
X0268779Y0181414D01*
X0268705Y0181556D01*
X0268634Y0181700D01*
X0268566Y0181846D01*
X0268503Y0181994D01*
X0268442Y0182143D01*
X0268386Y0182294D01*
X0268333Y0182446D01*
X0268284Y0182599D01*
X0268239Y0182753D01*
X0268198Y0182908D01*
X0268160Y0183065D01*
X0268127Y0183222D01*
X0268097Y0183380D01*
X0268071Y0183539D01*
X0268050Y0183698D01*
X0268032Y0183858D01*
X0268018Y0184018D01*
X0268008Y0184179D01*
X0268002Y0184339D01*
X0268000Y0184500D01*
X0246000Y0184500D02*
X0246002Y0184661D01*
X0246008Y0184821D01*
X0246018Y0184982D01*
X0246032Y0185142D01*
X0246050Y0185302D01*
X0246071Y0185461D01*
X0246097Y0185620D01*
X0246127Y0185778D01*
X0246160Y0185935D01*
X0246198Y0186092D01*
X0246239Y0186247D01*
X0246284Y0186401D01*
X0246333Y0186554D01*
X0246386Y0186706D01*
X0246442Y0186857D01*
X0246503Y0187006D01*
X0246566Y0187154D01*
X0246634Y0187300D01*
X0246705Y0187444D01*
X0246779Y0187586D01*
X0246857Y0187727D01*
X0246939Y0187865D01*
X0247024Y0188002D01*
X0247112Y0188136D01*
X0247204Y0188268D01*
X0247299Y0188398D01*
X0247397Y0188526D01*
X0247498Y0188651D01*
X0247602Y0188773D01*
X0247709Y0188893D01*
X0247819Y0189010D01*
X0247932Y0189125D01*
X0248048Y0189236D01*
X0248167Y0189345D01*
X0248288Y0189450D01*
X0248412Y0189553D01*
X0248538Y0189653D01*
X0248666Y0189749D01*
X0248797Y0189842D01*
X0248931Y0189932D01*
X0249066Y0190019D01*
X0249204Y0190102D01*
X0249343Y0190182D01*
X0249485Y0190258D01*
X0249628Y0190331D01*
X0249773Y0190400D01*
X0249920Y0190466D01*
X0250068Y0190528D01*
X0250218Y0190586D01*
X0250369Y0190641D01*
X0250522Y0190692D01*
X0250676Y0190739D01*
X0250831Y0190782D01*
X0250987Y0190821D01*
X0251143Y0190857D01*
X0251301Y0190888D01*
X0251459Y0190916D01*
X0251618Y0190940D01*
X0251778Y0190960D01*
X0251938Y0190976D01*
X0252098Y0190988D01*
X0252259Y0190996D01*
X0252420Y0191000D01*
X0252580Y0191000D01*
X0252741Y0190996D01*
X0252902Y0190988D01*
X0253062Y0190976D01*
X0253222Y0190960D01*
X0253382Y0190940D01*
X0253541Y0190916D01*
X0253699Y0190888D01*
X0253857Y0190857D01*
X0254013Y0190821D01*
X0254169Y0190782D01*
X0254324Y0190739D01*
X0254478Y0190692D01*
X0254631Y0190641D01*
X0254782Y0190586D01*
X0254932Y0190528D01*
X0255080Y0190466D01*
X0255227Y0190400D01*
X0255372Y0190331D01*
X0255515Y0190258D01*
X0255657Y0190182D01*
X0255796Y0190102D01*
X0255934Y0190019D01*
X0256069Y0189932D01*
X0256203Y0189842D01*
X0256334Y0189749D01*
X0256462Y0189653D01*
X0256588Y0189553D01*
X0256712Y0189450D01*
X0256833Y0189345D01*
X0256952Y0189236D01*
X0257068Y0189125D01*
X0257181Y0189010D01*
X0257291Y0188893D01*
X0257398Y0188773D01*
X0257502Y0188651D01*
X0257603Y0188526D01*
X0257701Y0188398D01*
X0257796Y0188268D01*
X0257888Y0188136D01*
X0257976Y0188002D01*
X0258061Y0187865D01*
X0258143Y0187727D01*
X0258221Y0187586D01*
X0258295Y0187444D01*
X0258366Y0187300D01*
X0258434Y0187154D01*
X0258497Y0187006D01*
X0258558Y0186857D01*
X0258614Y0186706D01*
X0258667Y0186554D01*
X0258716Y0186401D01*
X0258761Y0186247D01*
X0258802Y0186092D01*
X0258840Y0185935D01*
X0258873Y0185778D01*
X0258903Y0185620D01*
X0258929Y0185461D01*
X0258950Y0185302D01*
X0258968Y0185142D01*
X0258982Y0184982D01*
X0258992Y0184821D01*
X0258998Y0184661D01*
X0259000Y0184500D01*
X0258998Y0184339D01*
X0258992Y0184179D01*
X0258982Y0184018D01*
X0258968Y0183858D01*
X0258950Y0183698D01*
X0258929Y0183539D01*
X0258903Y0183380D01*
X0258873Y0183222D01*
X0258840Y0183065D01*
X0258802Y0182908D01*
X0258761Y0182753D01*
X0258716Y0182599D01*
X0258667Y0182446D01*
X0258614Y0182294D01*
X0258558Y0182143D01*
X0258497Y0181994D01*
X0258434Y0181846D01*
X0258366Y0181700D01*
X0258295Y0181556D01*
X0258221Y0181414D01*
X0258143Y0181273D01*
X0258061Y0181135D01*
X0257976Y0180998D01*
X0257888Y0180864D01*
X0257796Y0180732D01*
X0257701Y0180602D01*
X0257603Y0180474D01*
X0257502Y0180349D01*
X0257398Y0180227D01*
X0257291Y0180107D01*
X0257181Y0179990D01*
X0257068Y0179875D01*
X0256952Y0179764D01*
X0256833Y0179655D01*
X0256712Y0179550D01*
X0256588Y0179447D01*
X0256462Y0179347D01*
X0256334Y0179251D01*
X0256203Y0179158D01*
X0256069Y0179068D01*
X0255934Y0178981D01*
X0255796Y0178898D01*
X0255657Y0178818D01*
X0255515Y0178742D01*
X0255372Y0178669D01*
X0255227Y0178600D01*
X0255080Y0178534D01*
X0254932Y0178472D01*
X0254782Y0178414D01*
X0254631Y0178359D01*
X0254478Y0178308D01*
X0254324Y0178261D01*
X0254169Y0178218D01*
X0254013Y0178179D01*
X0253857Y0178143D01*
X0253699Y0178112D01*
X0253541Y0178084D01*
X0253382Y0178060D01*
X0253222Y0178040D01*
X0253062Y0178024D01*
X0252902Y0178012D01*
X0252741Y0178004D01*
X0252580Y0178000D01*
X0252420Y0178000D01*
X0252259Y0178004D01*
X0252098Y0178012D01*
X0251938Y0178024D01*
X0251778Y0178040D01*
X0251618Y0178060D01*
X0251459Y0178084D01*
X0251301Y0178112D01*
X0251143Y0178143D01*
X0250987Y0178179D01*
X0250831Y0178218D01*
X0250676Y0178261D01*
X0250522Y0178308D01*
X0250369Y0178359D01*
X0250218Y0178414D01*
X0250068Y0178472D01*
X0249920Y0178534D01*
X0249773Y0178600D01*
X0249628Y0178669D01*
X0249485Y0178742D01*
X0249343Y0178818D01*
X0249204Y0178898D01*
X0249066Y0178981D01*
X0248931Y0179068D01*
X0248797Y0179158D01*
X0248666Y0179251D01*
X0248538Y0179347D01*
X0248412Y0179447D01*
X0248288Y0179550D01*
X0248167Y0179655D01*
X0248048Y0179764D01*
X0247932Y0179875D01*
X0247819Y0179990D01*
X0247709Y0180107D01*
X0247602Y0180227D01*
X0247498Y0180349D01*
X0247397Y0180474D01*
X0247299Y0180602D01*
X0247204Y0180732D01*
X0247112Y0180864D01*
X0247024Y0180998D01*
X0246939Y0181135D01*
X0246857Y0181273D01*
X0246779Y0181414D01*
X0246705Y0181556D01*
X0246634Y0181700D01*
X0246566Y0181846D01*
X0246503Y0181994D01*
X0246442Y0182143D01*
X0246386Y0182294D01*
X0246333Y0182446D01*
X0246284Y0182599D01*
X0246239Y0182753D01*
X0246198Y0182908D01*
X0246160Y0183065D01*
X0246127Y0183222D01*
X0246097Y0183380D01*
X0246071Y0183539D01*
X0246050Y0183698D01*
X0246032Y0183858D01*
X0246018Y0184018D01*
X0246008Y0184179D01*
X0246002Y0184339D01*
X0246000Y0184500D01*
X0146000Y0184500D02*
X0146002Y0184661D01*
X0146008Y0184821D01*
X0146018Y0184982D01*
X0146032Y0185142D01*
X0146050Y0185302D01*
X0146071Y0185461D01*
X0146097Y0185620D01*
X0146127Y0185778D01*
X0146160Y0185935D01*
X0146198Y0186092D01*
X0146239Y0186247D01*
X0146284Y0186401D01*
X0146333Y0186554D01*
X0146386Y0186706D01*
X0146442Y0186857D01*
X0146503Y0187006D01*
X0146566Y0187154D01*
X0146634Y0187300D01*
X0146705Y0187444D01*
X0146779Y0187586D01*
X0146857Y0187727D01*
X0146939Y0187865D01*
X0147024Y0188002D01*
X0147112Y0188136D01*
X0147204Y0188268D01*
X0147299Y0188398D01*
X0147397Y0188526D01*
X0147498Y0188651D01*
X0147602Y0188773D01*
X0147709Y0188893D01*
X0147819Y0189010D01*
X0147932Y0189125D01*
X0148048Y0189236D01*
X0148167Y0189345D01*
X0148288Y0189450D01*
X0148412Y0189553D01*
X0148538Y0189653D01*
X0148666Y0189749D01*
X0148797Y0189842D01*
X0148931Y0189932D01*
X0149066Y0190019D01*
X0149204Y0190102D01*
X0149343Y0190182D01*
X0149485Y0190258D01*
X0149628Y0190331D01*
X0149773Y0190400D01*
X0149920Y0190466D01*
X0150068Y0190528D01*
X0150218Y0190586D01*
X0150369Y0190641D01*
X0150522Y0190692D01*
X0150676Y0190739D01*
X0150831Y0190782D01*
X0150987Y0190821D01*
X0151143Y0190857D01*
X0151301Y0190888D01*
X0151459Y0190916D01*
X0151618Y0190940D01*
X0151778Y0190960D01*
X0151938Y0190976D01*
X0152098Y0190988D01*
X0152259Y0190996D01*
X0152420Y0191000D01*
X0152580Y0191000D01*
X0152741Y0190996D01*
X0152902Y0190988D01*
X0153062Y0190976D01*
X0153222Y0190960D01*
X0153382Y0190940D01*
X0153541Y0190916D01*
X0153699Y0190888D01*
X0153857Y0190857D01*
X0154013Y0190821D01*
X0154169Y0190782D01*
X0154324Y0190739D01*
X0154478Y0190692D01*
X0154631Y0190641D01*
X0154782Y0190586D01*
X0154932Y0190528D01*
X0155080Y0190466D01*
X0155227Y0190400D01*
X0155372Y0190331D01*
X0155515Y0190258D01*
X0155657Y0190182D01*
X0155796Y0190102D01*
X0155934Y0190019D01*
X0156069Y0189932D01*
X0156203Y0189842D01*
X0156334Y0189749D01*
X0156462Y0189653D01*
X0156588Y0189553D01*
X0156712Y0189450D01*
X0156833Y0189345D01*
X0156952Y0189236D01*
X0157068Y0189125D01*
X0157181Y0189010D01*
X0157291Y0188893D01*
X0157398Y0188773D01*
X0157502Y0188651D01*
X0157603Y0188526D01*
X0157701Y0188398D01*
X0157796Y0188268D01*
X0157888Y0188136D01*
X0157976Y0188002D01*
X0158061Y0187865D01*
X0158143Y0187727D01*
X0158221Y0187586D01*
X0158295Y0187444D01*
X0158366Y0187300D01*
X0158434Y0187154D01*
X0158497Y0187006D01*
X0158558Y0186857D01*
X0158614Y0186706D01*
X0158667Y0186554D01*
X0158716Y0186401D01*
X0158761Y0186247D01*
X0158802Y0186092D01*
X0158840Y0185935D01*
X0158873Y0185778D01*
X0158903Y0185620D01*
X0158929Y0185461D01*
X0158950Y0185302D01*
X0158968Y0185142D01*
X0158982Y0184982D01*
X0158992Y0184821D01*
X0158998Y0184661D01*
X0159000Y0184500D01*
X0158998Y0184339D01*
X0158992Y0184179D01*
X0158982Y0184018D01*
X0158968Y0183858D01*
X0158950Y0183698D01*
X0158929Y0183539D01*
X0158903Y0183380D01*
X0158873Y0183222D01*
X0158840Y0183065D01*
X0158802Y0182908D01*
X0158761Y0182753D01*
X0158716Y0182599D01*
X0158667Y0182446D01*
X0158614Y0182294D01*
X0158558Y0182143D01*
X0158497Y0181994D01*
X0158434Y0181846D01*
X0158366Y0181700D01*
X0158295Y0181556D01*
X0158221Y0181414D01*
X0158143Y0181273D01*
X0158061Y0181135D01*
X0157976Y0180998D01*
X0157888Y0180864D01*
X0157796Y0180732D01*
X0157701Y0180602D01*
X0157603Y0180474D01*
X0157502Y0180349D01*
X0157398Y0180227D01*
X0157291Y0180107D01*
X0157181Y0179990D01*
X0157068Y0179875D01*
X0156952Y0179764D01*
X0156833Y0179655D01*
X0156712Y0179550D01*
X0156588Y0179447D01*
X0156462Y0179347D01*
X0156334Y0179251D01*
X0156203Y0179158D01*
X0156069Y0179068D01*
X0155934Y0178981D01*
X0155796Y0178898D01*
X0155657Y0178818D01*
X0155515Y0178742D01*
X0155372Y0178669D01*
X0155227Y0178600D01*
X0155080Y0178534D01*
X0154932Y0178472D01*
X0154782Y0178414D01*
X0154631Y0178359D01*
X0154478Y0178308D01*
X0154324Y0178261D01*
X0154169Y0178218D01*
X0154013Y0178179D01*
X0153857Y0178143D01*
X0153699Y0178112D01*
X0153541Y0178084D01*
X0153382Y0178060D01*
X0153222Y0178040D01*
X0153062Y0178024D01*
X0152902Y0178012D01*
X0152741Y0178004D01*
X0152580Y0178000D01*
X0152420Y0178000D01*
X0152259Y0178004D01*
X0152098Y0178012D01*
X0151938Y0178024D01*
X0151778Y0178040D01*
X0151618Y0178060D01*
X0151459Y0178084D01*
X0151301Y0178112D01*
X0151143Y0178143D01*
X0150987Y0178179D01*
X0150831Y0178218D01*
X0150676Y0178261D01*
X0150522Y0178308D01*
X0150369Y0178359D01*
X0150218Y0178414D01*
X0150068Y0178472D01*
X0149920Y0178534D01*
X0149773Y0178600D01*
X0149628Y0178669D01*
X0149485Y0178742D01*
X0149343Y0178818D01*
X0149204Y0178898D01*
X0149066Y0178981D01*
X0148931Y0179068D01*
X0148797Y0179158D01*
X0148666Y0179251D01*
X0148538Y0179347D01*
X0148412Y0179447D01*
X0148288Y0179550D01*
X0148167Y0179655D01*
X0148048Y0179764D01*
X0147932Y0179875D01*
X0147819Y0179990D01*
X0147709Y0180107D01*
X0147602Y0180227D01*
X0147498Y0180349D01*
X0147397Y0180474D01*
X0147299Y0180602D01*
X0147204Y0180732D01*
X0147112Y0180864D01*
X0147024Y0180998D01*
X0146939Y0181135D01*
X0146857Y0181273D01*
X0146779Y0181414D01*
X0146705Y0181556D01*
X0146634Y0181700D01*
X0146566Y0181846D01*
X0146503Y0181994D01*
X0146442Y0182143D01*
X0146386Y0182294D01*
X0146333Y0182446D01*
X0146284Y0182599D01*
X0146239Y0182753D01*
X0146198Y0182908D01*
X0146160Y0183065D01*
X0146127Y0183222D01*
X0146097Y0183380D01*
X0146071Y0183539D01*
X0146050Y0183698D01*
X0146032Y0183858D01*
X0146018Y0184018D01*
X0146008Y0184179D01*
X0146002Y0184339D01*
X0146000Y0184500D01*
X0124000Y0184500D02*
X0124002Y0184661D01*
X0124008Y0184821D01*
X0124018Y0184982D01*
X0124032Y0185142D01*
X0124050Y0185302D01*
X0124071Y0185461D01*
X0124097Y0185620D01*
X0124127Y0185778D01*
X0124160Y0185935D01*
X0124198Y0186092D01*
X0124239Y0186247D01*
X0124284Y0186401D01*
X0124333Y0186554D01*
X0124386Y0186706D01*
X0124442Y0186857D01*
X0124503Y0187006D01*
X0124566Y0187154D01*
X0124634Y0187300D01*
X0124705Y0187444D01*
X0124779Y0187586D01*
X0124857Y0187727D01*
X0124939Y0187865D01*
X0125024Y0188002D01*
X0125112Y0188136D01*
X0125204Y0188268D01*
X0125299Y0188398D01*
X0125397Y0188526D01*
X0125498Y0188651D01*
X0125602Y0188773D01*
X0125709Y0188893D01*
X0125819Y0189010D01*
X0125932Y0189125D01*
X0126048Y0189236D01*
X0126167Y0189345D01*
X0126288Y0189450D01*
X0126412Y0189553D01*
X0126538Y0189653D01*
X0126666Y0189749D01*
X0126797Y0189842D01*
X0126931Y0189932D01*
X0127066Y0190019D01*
X0127204Y0190102D01*
X0127343Y0190182D01*
X0127485Y0190258D01*
X0127628Y0190331D01*
X0127773Y0190400D01*
X0127920Y0190466D01*
X0128068Y0190528D01*
X0128218Y0190586D01*
X0128369Y0190641D01*
X0128522Y0190692D01*
X0128676Y0190739D01*
X0128831Y0190782D01*
X0128987Y0190821D01*
X0129143Y0190857D01*
X0129301Y0190888D01*
X0129459Y0190916D01*
X0129618Y0190940D01*
X0129778Y0190960D01*
X0129938Y0190976D01*
X0130098Y0190988D01*
X0130259Y0190996D01*
X0130420Y0191000D01*
X0130580Y0191000D01*
X0130741Y0190996D01*
X0130902Y0190988D01*
X0131062Y0190976D01*
X0131222Y0190960D01*
X0131382Y0190940D01*
X0131541Y0190916D01*
X0131699Y0190888D01*
X0131857Y0190857D01*
X0132013Y0190821D01*
X0132169Y0190782D01*
X0132324Y0190739D01*
X0132478Y0190692D01*
X0132631Y0190641D01*
X0132782Y0190586D01*
X0132932Y0190528D01*
X0133080Y0190466D01*
X0133227Y0190400D01*
X0133372Y0190331D01*
X0133515Y0190258D01*
X0133657Y0190182D01*
X0133796Y0190102D01*
X0133934Y0190019D01*
X0134069Y0189932D01*
X0134203Y0189842D01*
X0134334Y0189749D01*
X0134462Y0189653D01*
X0134588Y0189553D01*
X0134712Y0189450D01*
X0134833Y0189345D01*
X0134952Y0189236D01*
X0135068Y0189125D01*
X0135181Y0189010D01*
X0135291Y0188893D01*
X0135398Y0188773D01*
X0135502Y0188651D01*
X0135603Y0188526D01*
X0135701Y0188398D01*
X0135796Y0188268D01*
X0135888Y0188136D01*
X0135976Y0188002D01*
X0136061Y0187865D01*
X0136143Y0187727D01*
X0136221Y0187586D01*
X0136295Y0187444D01*
X0136366Y0187300D01*
X0136434Y0187154D01*
X0136497Y0187006D01*
X0136558Y0186857D01*
X0136614Y0186706D01*
X0136667Y0186554D01*
X0136716Y0186401D01*
X0136761Y0186247D01*
X0136802Y0186092D01*
X0136840Y0185935D01*
X0136873Y0185778D01*
X0136903Y0185620D01*
X0136929Y0185461D01*
X0136950Y0185302D01*
X0136968Y0185142D01*
X0136982Y0184982D01*
X0136992Y0184821D01*
X0136998Y0184661D01*
X0137000Y0184500D01*
X0136998Y0184339D01*
X0136992Y0184179D01*
X0136982Y0184018D01*
X0136968Y0183858D01*
X0136950Y0183698D01*
X0136929Y0183539D01*
X0136903Y0183380D01*
X0136873Y0183222D01*
X0136840Y0183065D01*
X0136802Y0182908D01*
X0136761Y0182753D01*
X0136716Y0182599D01*
X0136667Y0182446D01*
X0136614Y0182294D01*
X0136558Y0182143D01*
X0136497Y0181994D01*
X0136434Y0181846D01*
X0136366Y0181700D01*
X0136295Y0181556D01*
X0136221Y0181414D01*
X0136143Y0181273D01*
X0136061Y0181135D01*
X0135976Y0180998D01*
X0135888Y0180864D01*
X0135796Y0180732D01*
X0135701Y0180602D01*
X0135603Y0180474D01*
X0135502Y0180349D01*
X0135398Y0180227D01*
X0135291Y0180107D01*
X0135181Y0179990D01*
X0135068Y0179875D01*
X0134952Y0179764D01*
X0134833Y0179655D01*
X0134712Y0179550D01*
X0134588Y0179447D01*
X0134462Y0179347D01*
X0134334Y0179251D01*
X0134203Y0179158D01*
X0134069Y0179068D01*
X0133934Y0178981D01*
X0133796Y0178898D01*
X0133657Y0178818D01*
X0133515Y0178742D01*
X0133372Y0178669D01*
X0133227Y0178600D01*
X0133080Y0178534D01*
X0132932Y0178472D01*
X0132782Y0178414D01*
X0132631Y0178359D01*
X0132478Y0178308D01*
X0132324Y0178261D01*
X0132169Y0178218D01*
X0132013Y0178179D01*
X0131857Y0178143D01*
X0131699Y0178112D01*
X0131541Y0178084D01*
X0131382Y0178060D01*
X0131222Y0178040D01*
X0131062Y0178024D01*
X0130902Y0178012D01*
X0130741Y0178004D01*
X0130580Y0178000D01*
X0130420Y0178000D01*
X0130259Y0178004D01*
X0130098Y0178012D01*
X0129938Y0178024D01*
X0129778Y0178040D01*
X0129618Y0178060D01*
X0129459Y0178084D01*
X0129301Y0178112D01*
X0129143Y0178143D01*
X0128987Y0178179D01*
X0128831Y0178218D01*
X0128676Y0178261D01*
X0128522Y0178308D01*
X0128369Y0178359D01*
X0128218Y0178414D01*
X0128068Y0178472D01*
X0127920Y0178534D01*
X0127773Y0178600D01*
X0127628Y0178669D01*
X0127485Y0178742D01*
X0127343Y0178818D01*
X0127204Y0178898D01*
X0127066Y0178981D01*
X0126931Y0179068D01*
X0126797Y0179158D01*
X0126666Y0179251D01*
X0126538Y0179347D01*
X0126412Y0179447D01*
X0126288Y0179550D01*
X0126167Y0179655D01*
X0126048Y0179764D01*
X0125932Y0179875D01*
X0125819Y0179990D01*
X0125709Y0180107D01*
X0125602Y0180227D01*
X0125498Y0180349D01*
X0125397Y0180474D01*
X0125299Y0180602D01*
X0125204Y0180732D01*
X0125112Y0180864D01*
X0125024Y0180998D01*
X0124939Y0181135D01*
X0124857Y0181273D01*
X0124779Y0181414D01*
X0124705Y0181556D01*
X0124634Y0181700D01*
X0124566Y0181846D01*
X0124503Y0181994D01*
X0124442Y0182143D01*
X0124386Y0182294D01*
X0124333Y0182446D01*
X0124284Y0182599D01*
X0124239Y0182753D01*
X0124198Y0182908D01*
X0124160Y0183065D01*
X0124127Y0183222D01*
X0124097Y0183380D01*
X0124071Y0183539D01*
X0124050Y0183698D01*
X0124032Y0183858D01*
X0124018Y0184018D01*
X0124008Y0184179D01*
X0124002Y0184339D01*
X0124000Y0184500D01*
X0024000Y0184500D02*
X0024002Y0184661D01*
X0024008Y0184821D01*
X0024018Y0184982D01*
X0024032Y0185142D01*
X0024050Y0185302D01*
X0024071Y0185461D01*
X0024097Y0185620D01*
X0024127Y0185778D01*
X0024160Y0185935D01*
X0024198Y0186092D01*
X0024239Y0186247D01*
X0024284Y0186401D01*
X0024333Y0186554D01*
X0024386Y0186706D01*
X0024442Y0186857D01*
X0024503Y0187006D01*
X0024566Y0187154D01*
X0024634Y0187300D01*
X0024705Y0187444D01*
X0024779Y0187586D01*
X0024857Y0187727D01*
X0024939Y0187865D01*
X0025024Y0188002D01*
X0025112Y0188136D01*
X0025204Y0188268D01*
X0025299Y0188398D01*
X0025397Y0188526D01*
X0025498Y0188651D01*
X0025602Y0188773D01*
X0025709Y0188893D01*
X0025819Y0189010D01*
X0025932Y0189125D01*
X0026048Y0189236D01*
X0026167Y0189345D01*
X0026288Y0189450D01*
X0026412Y0189553D01*
X0026538Y0189653D01*
X0026666Y0189749D01*
X0026797Y0189842D01*
X0026931Y0189932D01*
X0027066Y0190019D01*
X0027204Y0190102D01*
X0027343Y0190182D01*
X0027485Y0190258D01*
X0027628Y0190331D01*
X0027773Y0190400D01*
X0027920Y0190466D01*
X0028068Y0190528D01*
X0028218Y0190586D01*
X0028369Y0190641D01*
X0028522Y0190692D01*
X0028676Y0190739D01*
X0028831Y0190782D01*
X0028987Y0190821D01*
X0029143Y0190857D01*
X0029301Y0190888D01*
X0029459Y0190916D01*
X0029618Y0190940D01*
X0029778Y0190960D01*
X0029938Y0190976D01*
X0030098Y0190988D01*
X0030259Y0190996D01*
X0030420Y0191000D01*
X0030580Y0191000D01*
X0030741Y0190996D01*
X0030902Y0190988D01*
X0031062Y0190976D01*
X0031222Y0190960D01*
X0031382Y0190940D01*
X0031541Y0190916D01*
X0031699Y0190888D01*
X0031857Y0190857D01*
X0032013Y0190821D01*
X0032169Y0190782D01*
X0032324Y0190739D01*
X0032478Y0190692D01*
X0032631Y0190641D01*
X0032782Y0190586D01*
X0032932Y0190528D01*
X0033080Y0190466D01*
X0033227Y0190400D01*
X0033372Y0190331D01*
X0033515Y0190258D01*
X0033657Y0190182D01*
X0033796Y0190102D01*
X0033934Y0190019D01*
X0034069Y0189932D01*
X0034203Y0189842D01*
X0034334Y0189749D01*
X0034462Y0189653D01*
X0034588Y0189553D01*
X0034712Y0189450D01*
X0034833Y0189345D01*
X0034952Y0189236D01*
X0035068Y0189125D01*
X0035181Y0189010D01*
X0035291Y0188893D01*
X0035398Y0188773D01*
X0035502Y0188651D01*
X0035603Y0188526D01*
X0035701Y0188398D01*
X0035796Y0188268D01*
X0035888Y0188136D01*
X0035976Y0188002D01*
X0036061Y0187865D01*
X0036143Y0187727D01*
X0036221Y0187586D01*
X0036295Y0187444D01*
X0036366Y0187300D01*
X0036434Y0187154D01*
X0036497Y0187006D01*
X0036558Y0186857D01*
X0036614Y0186706D01*
X0036667Y0186554D01*
X0036716Y0186401D01*
X0036761Y0186247D01*
X0036802Y0186092D01*
X0036840Y0185935D01*
X0036873Y0185778D01*
X0036903Y0185620D01*
X0036929Y0185461D01*
X0036950Y0185302D01*
X0036968Y0185142D01*
X0036982Y0184982D01*
X0036992Y0184821D01*
X0036998Y0184661D01*
X0037000Y0184500D01*
X0036998Y0184339D01*
X0036992Y0184179D01*
X0036982Y0184018D01*
X0036968Y0183858D01*
X0036950Y0183698D01*
X0036929Y0183539D01*
X0036903Y0183380D01*
X0036873Y0183222D01*
X0036840Y0183065D01*
X0036802Y0182908D01*
X0036761Y0182753D01*
X0036716Y0182599D01*
X0036667Y0182446D01*
X0036614Y0182294D01*
X0036558Y0182143D01*
X0036497Y0181994D01*
X0036434Y0181846D01*
X0036366Y0181700D01*
X0036295Y0181556D01*
X0036221Y0181414D01*
X0036143Y0181273D01*
X0036061Y0181135D01*
X0035976Y0180998D01*
X0035888Y0180864D01*
X0035796Y0180732D01*
X0035701Y0180602D01*
X0035603Y0180474D01*
X0035502Y0180349D01*
X0035398Y0180227D01*
X0035291Y0180107D01*
X0035181Y0179990D01*
X0035068Y0179875D01*
X0034952Y0179764D01*
X0034833Y0179655D01*
X0034712Y0179550D01*
X0034588Y0179447D01*
X0034462Y0179347D01*
X0034334Y0179251D01*
X0034203Y0179158D01*
X0034069Y0179068D01*
X0033934Y0178981D01*
X0033796Y0178898D01*
X0033657Y0178818D01*
X0033515Y0178742D01*
X0033372Y0178669D01*
X0033227Y0178600D01*
X0033080Y0178534D01*
X0032932Y0178472D01*
X0032782Y0178414D01*
X0032631Y0178359D01*
X0032478Y0178308D01*
X0032324Y0178261D01*
X0032169Y0178218D01*
X0032013Y0178179D01*
X0031857Y0178143D01*
X0031699Y0178112D01*
X0031541Y0178084D01*
X0031382Y0178060D01*
X0031222Y0178040D01*
X0031062Y0178024D01*
X0030902Y0178012D01*
X0030741Y0178004D01*
X0030580Y0178000D01*
X0030420Y0178000D01*
X0030259Y0178004D01*
X0030098Y0178012D01*
X0029938Y0178024D01*
X0029778Y0178040D01*
X0029618Y0178060D01*
X0029459Y0178084D01*
X0029301Y0178112D01*
X0029143Y0178143D01*
X0028987Y0178179D01*
X0028831Y0178218D01*
X0028676Y0178261D01*
X0028522Y0178308D01*
X0028369Y0178359D01*
X0028218Y0178414D01*
X0028068Y0178472D01*
X0027920Y0178534D01*
X0027773Y0178600D01*
X0027628Y0178669D01*
X0027485Y0178742D01*
X0027343Y0178818D01*
X0027204Y0178898D01*
X0027066Y0178981D01*
X0026931Y0179068D01*
X0026797Y0179158D01*
X0026666Y0179251D01*
X0026538Y0179347D01*
X0026412Y0179447D01*
X0026288Y0179550D01*
X0026167Y0179655D01*
X0026048Y0179764D01*
X0025932Y0179875D01*
X0025819Y0179990D01*
X0025709Y0180107D01*
X0025602Y0180227D01*
X0025498Y0180349D01*
X0025397Y0180474D01*
X0025299Y0180602D01*
X0025204Y0180732D01*
X0025112Y0180864D01*
X0025024Y0180998D01*
X0024939Y0181135D01*
X0024857Y0181273D01*
X0024779Y0181414D01*
X0024705Y0181556D01*
X0024634Y0181700D01*
X0024566Y0181846D01*
X0024503Y0181994D01*
X0024442Y0182143D01*
X0024386Y0182294D01*
X0024333Y0182446D01*
X0024284Y0182599D01*
X0024239Y0182753D01*
X0024198Y0182908D01*
X0024160Y0183065D01*
X0024127Y0183222D01*
X0024097Y0183380D01*
X0024071Y0183539D01*
X0024050Y0183698D01*
X0024032Y0183858D01*
X0024018Y0184018D01*
X0024008Y0184179D01*
X0024002Y0184339D01*
X0024000Y0184500D01*
X0024000Y0286500D02*
X0024002Y0286661D01*
X0024008Y0286821D01*
X0024018Y0286982D01*
X0024032Y0287142D01*
X0024050Y0287302D01*
X0024071Y0287461D01*
X0024097Y0287620D01*
X0024127Y0287778D01*
X0024160Y0287935D01*
X0024198Y0288092D01*
X0024239Y0288247D01*
X0024284Y0288401D01*
X0024333Y0288554D01*
X0024386Y0288706D01*
X0024442Y0288857D01*
X0024503Y0289006D01*
X0024566Y0289154D01*
X0024634Y0289300D01*
X0024705Y0289444D01*
X0024779Y0289586D01*
X0024857Y0289727D01*
X0024939Y0289865D01*
X0025024Y0290002D01*
X0025112Y0290136D01*
X0025204Y0290268D01*
X0025299Y0290398D01*
X0025397Y0290526D01*
X0025498Y0290651D01*
X0025602Y0290773D01*
X0025709Y0290893D01*
X0025819Y0291010D01*
X0025932Y0291125D01*
X0026048Y0291236D01*
X0026167Y0291345D01*
X0026288Y0291450D01*
X0026412Y0291553D01*
X0026538Y0291653D01*
X0026666Y0291749D01*
X0026797Y0291842D01*
X0026931Y0291932D01*
X0027066Y0292019D01*
X0027204Y0292102D01*
X0027343Y0292182D01*
X0027485Y0292258D01*
X0027628Y0292331D01*
X0027773Y0292400D01*
X0027920Y0292466D01*
X0028068Y0292528D01*
X0028218Y0292586D01*
X0028369Y0292641D01*
X0028522Y0292692D01*
X0028676Y0292739D01*
X0028831Y0292782D01*
X0028987Y0292821D01*
X0029143Y0292857D01*
X0029301Y0292888D01*
X0029459Y0292916D01*
X0029618Y0292940D01*
X0029778Y0292960D01*
X0029938Y0292976D01*
X0030098Y0292988D01*
X0030259Y0292996D01*
X0030420Y0293000D01*
X0030580Y0293000D01*
X0030741Y0292996D01*
X0030902Y0292988D01*
X0031062Y0292976D01*
X0031222Y0292960D01*
X0031382Y0292940D01*
X0031541Y0292916D01*
X0031699Y0292888D01*
X0031857Y0292857D01*
X0032013Y0292821D01*
X0032169Y0292782D01*
X0032324Y0292739D01*
X0032478Y0292692D01*
X0032631Y0292641D01*
X0032782Y0292586D01*
X0032932Y0292528D01*
X0033080Y0292466D01*
X0033227Y0292400D01*
X0033372Y0292331D01*
X0033515Y0292258D01*
X0033657Y0292182D01*
X0033796Y0292102D01*
X0033934Y0292019D01*
X0034069Y0291932D01*
X0034203Y0291842D01*
X0034334Y0291749D01*
X0034462Y0291653D01*
X0034588Y0291553D01*
X0034712Y0291450D01*
X0034833Y0291345D01*
X0034952Y0291236D01*
X0035068Y0291125D01*
X0035181Y0291010D01*
X0035291Y0290893D01*
X0035398Y0290773D01*
X0035502Y0290651D01*
X0035603Y0290526D01*
X0035701Y0290398D01*
X0035796Y0290268D01*
X0035888Y0290136D01*
X0035976Y0290002D01*
X0036061Y0289865D01*
X0036143Y0289727D01*
X0036221Y0289586D01*
X0036295Y0289444D01*
X0036366Y0289300D01*
X0036434Y0289154D01*
X0036497Y0289006D01*
X0036558Y0288857D01*
X0036614Y0288706D01*
X0036667Y0288554D01*
X0036716Y0288401D01*
X0036761Y0288247D01*
X0036802Y0288092D01*
X0036840Y0287935D01*
X0036873Y0287778D01*
X0036903Y0287620D01*
X0036929Y0287461D01*
X0036950Y0287302D01*
X0036968Y0287142D01*
X0036982Y0286982D01*
X0036992Y0286821D01*
X0036998Y0286661D01*
X0037000Y0286500D01*
X0036998Y0286339D01*
X0036992Y0286179D01*
X0036982Y0286018D01*
X0036968Y0285858D01*
X0036950Y0285698D01*
X0036929Y0285539D01*
X0036903Y0285380D01*
X0036873Y0285222D01*
X0036840Y0285065D01*
X0036802Y0284908D01*
X0036761Y0284753D01*
X0036716Y0284599D01*
X0036667Y0284446D01*
X0036614Y0284294D01*
X0036558Y0284143D01*
X0036497Y0283994D01*
X0036434Y0283846D01*
X0036366Y0283700D01*
X0036295Y0283556D01*
X0036221Y0283414D01*
X0036143Y0283273D01*
X0036061Y0283135D01*
X0035976Y0282998D01*
X0035888Y0282864D01*
X0035796Y0282732D01*
X0035701Y0282602D01*
X0035603Y0282474D01*
X0035502Y0282349D01*
X0035398Y0282227D01*
X0035291Y0282107D01*
X0035181Y0281990D01*
X0035068Y0281875D01*
X0034952Y0281764D01*
X0034833Y0281655D01*
X0034712Y0281550D01*
X0034588Y0281447D01*
X0034462Y0281347D01*
X0034334Y0281251D01*
X0034203Y0281158D01*
X0034069Y0281068D01*
X0033934Y0280981D01*
X0033796Y0280898D01*
X0033657Y0280818D01*
X0033515Y0280742D01*
X0033372Y0280669D01*
X0033227Y0280600D01*
X0033080Y0280534D01*
X0032932Y0280472D01*
X0032782Y0280414D01*
X0032631Y0280359D01*
X0032478Y0280308D01*
X0032324Y0280261D01*
X0032169Y0280218D01*
X0032013Y0280179D01*
X0031857Y0280143D01*
X0031699Y0280112D01*
X0031541Y0280084D01*
X0031382Y0280060D01*
X0031222Y0280040D01*
X0031062Y0280024D01*
X0030902Y0280012D01*
X0030741Y0280004D01*
X0030580Y0280000D01*
X0030420Y0280000D01*
X0030259Y0280004D01*
X0030098Y0280012D01*
X0029938Y0280024D01*
X0029778Y0280040D01*
X0029618Y0280060D01*
X0029459Y0280084D01*
X0029301Y0280112D01*
X0029143Y0280143D01*
X0028987Y0280179D01*
X0028831Y0280218D01*
X0028676Y0280261D01*
X0028522Y0280308D01*
X0028369Y0280359D01*
X0028218Y0280414D01*
X0028068Y0280472D01*
X0027920Y0280534D01*
X0027773Y0280600D01*
X0027628Y0280669D01*
X0027485Y0280742D01*
X0027343Y0280818D01*
X0027204Y0280898D01*
X0027066Y0280981D01*
X0026931Y0281068D01*
X0026797Y0281158D01*
X0026666Y0281251D01*
X0026538Y0281347D01*
X0026412Y0281447D01*
X0026288Y0281550D01*
X0026167Y0281655D01*
X0026048Y0281764D01*
X0025932Y0281875D01*
X0025819Y0281990D01*
X0025709Y0282107D01*
X0025602Y0282227D01*
X0025498Y0282349D01*
X0025397Y0282474D01*
X0025299Y0282602D01*
X0025204Y0282732D01*
X0025112Y0282864D01*
X0025024Y0282998D01*
X0024939Y0283135D01*
X0024857Y0283273D01*
X0024779Y0283414D01*
X0024705Y0283556D01*
X0024634Y0283700D01*
X0024566Y0283846D01*
X0024503Y0283994D01*
X0024442Y0284143D01*
X0024386Y0284294D01*
X0024333Y0284446D01*
X0024284Y0284599D01*
X0024239Y0284753D01*
X0024198Y0284908D01*
X0024160Y0285065D01*
X0024127Y0285222D01*
X0024097Y0285380D01*
X0024071Y0285539D01*
X0024050Y0285698D01*
X0024032Y0285858D01*
X0024018Y0286018D01*
X0024008Y0286179D01*
X0024002Y0286339D01*
X0024000Y0286500D01*
X0124000Y0286500D02*
X0124002Y0286661D01*
X0124008Y0286821D01*
X0124018Y0286982D01*
X0124032Y0287142D01*
X0124050Y0287302D01*
X0124071Y0287461D01*
X0124097Y0287620D01*
X0124127Y0287778D01*
X0124160Y0287935D01*
X0124198Y0288092D01*
X0124239Y0288247D01*
X0124284Y0288401D01*
X0124333Y0288554D01*
X0124386Y0288706D01*
X0124442Y0288857D01*
X0124503Y0289006D01*
X0124566Y0289154D01*
X0124634Y0289300D01*
X0124705Y0289444D01*
X0124779Y0289586D01*
X0124857Y0289727D01*
X0124939Y0289865D01*
X0125024Y0290002D01*
X0125112Y0290136D01*
X0125204Y0290268D01*
X0125299Y0290398D01*
X0125397Y0290526D01*
X0125498Y0290651D01*
X0125602Y0290773D01*
X0125709Y0290893D01*
X0125819Y0291010D01*
X0125932Y0291125D01*
X0126048Y0291236D01*
X0126167Y0291345D01*
X0126288Y0291450D01*
X0126412Y0291553D01*
X0126538Y0291653D01*
X0126666Y0291749D01*
X0126797Y0291842D01*
X0126931Y0291932D01*
X0127066Y0292019D01*
X0127204Y0292102D01*
X0127343Y0292182D01*
X0127485Y0292258D01*
X0127628Y0292331D01*
X0127773Y0292400D01*
X0127920Y0292466D01*
X0128068Y0292528D01*
X0128218Y0292586D01*
X0128369Y0292641D01*
X0128522Y0292692D01*
X0128676Y0292739D01*
X0128831Y0292782D01*
X0128987Y0292821D01*
X0129143Y0292857D01*
X0129301Y0292888D01*
X0129459Y0292916D01*
X0129618Y0292940D01*
X0129778Y0292960D01*
X0129938Y0292976D01*
X0130098Y0292988D01*
X0130259Y0292996D01*
X0130420Y0293000D01*
X0130580Y0293000D01*
X0130741Y0292996D01*
X0130902Y0292988D01*
X0131062Y0292976D01*
X0131222Y0292960D01*
X0131382Y0292940D01*
X0131541Y0292916D01*
X0131699Y0292888D01*
X0131857Y0292857D01*
X0132013Y0292821D01*
X0132169Y0292782D01*
X0132324Y0292739D01*
X0132478Y0292692D01*
X0132631Y0292641D01*
X0132782Y0292586D01*
X0132932Y0292528D01*
X0133080Y0292466D01*
X0133227Y0292400D01*
X0133372Y0292331D01*
X0133515Y0292258D01*
X0133657Y0292182D01*
X0133796Y0292102D01*
X0133934Y0292019D01*
X0134069Y0291932D01*
X0134203Y0291842D01*
X0134334Y0291749D01*
X0134462Y0291653D01*
X0134588Y0291553D01*
X0134712Y0291450D01*
X0134833Y0291345D01*
X0134952Y0291236D01*
X0135068Y0291125D01*
X0135181Y0291010D01*
X0135291Y0290893D01*
X0135398Y0290773D01*
X0135502Y0290651D01*
X0135603Y0290526D01*
X0135701Y0290398D01*
X0135796Y0290268D01*
X0135888Y0290136D01*
X0135976Y0290002D01*
X0136061Y0289865D01*
X0136143Y0289727D01*
X0136221Y0289586D01*
X0136295Y0289444D01*
X0136366Y0289300D01*
X0136434Y0289154D01*
X0136497Y0289006D01*
X0136558Y0288857D01*
X0136614Y0288706D01*
X0136667Y0288554D01*
X0136716Y0288401D01*
X0136761Y0288247D01*
X0136802Y0288092D01*
X0136840Y0287935D01*
X0136873Y0287778D01*
X0136903Y0287620D01*
X0136929Y0287461D01*
X0136950Y0287302D01*
X0136968Y0287142D01*
X0136982Y0286982D01*
X0136992Y0286821D01*
X0136998Y0286661D01*
X0137000Y0286500D01*
X0136998Y0286339D01*
X0136992Y0286179D01*
X0136982Y0286018D01*
X0136968Y0285858D01*
X0136950Y0285698D01*
X0136929Y0285539D01*
X0136903Y0285380D01*
X0136873Y0285222D01*
X0136840Y0285065D01*
X0136802Y0284908D01*
X0136761Y0284753D01*
X0136716Y0284599D01*
X0136667Y0284446D01*
X0136614Y0284294D01*
X0136558Y0284143D01*
X0136497Y0283994D01*
X0136434Y0283846D01*
X0136366Y0283700D01*
X0136295Y0283556D01*
X0136221Y0283414D01*
X0136143Y0283273D01*
X0136061Y0283135D01*
X0135976Y0282998D01*
X0135888Y0282864D01*
X0135796Y0282732D01*
X0135701Y0282602D01*
X0135603Y0282474D01*
X0135502Y0282349D01*
X0135398Y0282227D01*
X0135291Y0282107D01*
X0135181Y0281990D01*
X0135068Y0281875D01*
X0134952Y0281764D01*
X0134833Y0281655D01*
X0134712Y0281550D01*
X0134588Y0281447D01*
X0134462Y0281347D01*
X0134334Y0281251D01*
X0134203Y0281158D01*
X0134069Y0281068D01*
X0133934Y0280981D01*
X0133796Y0280898D01*
X0133657Y0280818D01*
X0133515Y0280742D01*
X0133372Y0280669D01*
X0133227Y0280600D01*
X0133080Y0280534D01*
X0132932Y0280472D01*
X0132782Y0280414D01*
X0132631Y0280359D01*
X0132478Y0280308D01*
X0132324Y0280261D01*
X0132169Y0280218D01*
X0132013Y0280179D01*
X0131857Y0280143D01*
X0131699Y0280112D01*
X0131541Y0280084D01*
X0131382Y0280060D01*
X0131222Y0280040D01*
X0131062Y0280024D01*
X0130902Y0280012D01*
X0130741Y0280004D01*
X0130580Y0280000D01*
X0130420Y0280000D01*
X0130259Y0280004D01*
X0130098Y0280012D01*
X0129938Y0280024D01*
X0129778Y0280040D01*
X0129618Y0280060D01*
X0129459Y0280084D01*
X0129301Y0280112D01*
X0129143Y0280143D01*
X0128987Y0280179D01*
X0128831Y0280218D01*
X0128676Y0280261D01*
X0128522Y0280308D01*
X0128369Y0280359D01*
X0128218Y0280414D01*
X0128068Y0280472D01*
X0127920Y0280534D01*
X0127773Y0280600D01*
X0127628Y0280669D01*
X0127485Y0280742D01*
X0127343Y0280818D01*
X0127204Y0280898D01*
X0127066Y0280981D01*
X0126931Y0281068D01*
X0126797Y0281158D01*
X0126666Y0281251D01*
X0126538Y0281347D01*
X0126412Y0281447D01*
X0126288Y0281550D01*
X0126167Y0281655D01*
X0126048Y0281764D01*
X0125932Y0281875D01*
X0125819Y0281990D01*
X0125709Y0282107D01*
X0125602Y0282227D01*
X0125498Y0282349D01*
X0125397Y0282474D01*
X0125299Y0282602D01*
X0125204Y0282732D01*
X0125112Y0282864D01*
X0125024Y0282998D01*
X0124939Y0283135D01*
X0124857Y0283273D01*
X0124779Y0283414D01*
X0124705Y0283556D01*
X0124634Y0283700D01*
X0124566Y0283846D01*
X0124503Y0283994D01*
X0124442Y0284143D01*
X0124386Y0284294D01*
X0124333Y0284446D01*
X0124284Y0284599D01*
X0124239Y0284753D01*
X0124198Y0284908D01*
X0124160Y0285065D01*
X0124127Y0285222D01*
X0124097Y0285380D01*
X0124071Y0285539D01*
X0124050Y0285698D01*
X0124032Y0285858D01*
X0124018Y0286018D01*
X0124008Y0286179D01*
X0124002Y0286339D01*
X0124000Y0286500D01*
X0146000Y0286500D02*
X0146002Y0286661D01*
X0146008Y0286821D01*
X0146018Y0286982D01*
X0146032Y0287142D01*
X0146050Y0287302D01*
X0146071Y0287461D01*
X0146097Y0287620D01*
X0146127Y0287778D01*
X0146160Y0287935D01*
X0146198Y0288092D01*
X0146239Y0288247D01*
X0146284Y0288401D01*
X0146333Y0288554D01*
X0146386Y0288706D01*
X0146442Y0288857D01*
X0146503Y0289006D01*
X0146566Y0289154D01*
X0146634Y0289300D01*
X0146705Y0289444D01*
X0146779Y0289586D01*
X0146857Y0289727D01*
X0146939Y0289865D01*
X0147024Y0290002D01*
X0147112Y0290136D01*
X0147204Y0290268D01*
X0147299Y0290398D01*
X0147397Y0290526D01*
X0147498Y0290651D01*
X0147602Y0290773D01*
X0147709Y0290893D01*
X0147819Y0291010D01*
X0147932Y0291125D01*
X0148048Y0291236D01*
X0148167Y0291345D01*
X0148288Y0291450D01*
X0148412Y0291553D01*
X0148538Y0291653D01*
X0148666Y0291749D01*
X0148797Y0291842D01*
X0148931Y0291932D01*
X0149066Y0292019D01*
X0149204Y0292102D01*
X0149343Y0292182D01*
X0149485Y0292258D01*
X0149628Y0292331D01*
X0149773Y0292400D01*
X0149920Y0292466D01*
X0150068Y0292528D01*
X0150218Y0292586D01*
X0150369Y0292641D01*
X0150522Y0292692D01*
X0150676Y0292739D01*
X0150831Y0292782D01*
X0150987Y0292821D01*
X0151143Y0292857D01*
X0151301Y0292888D01*
X0151459Y0292916D01*
X0151618Y0292940D01*
X0151778Y0292960D01*
X0151938Y0292976D01*
X0152098Y0292988D01*
X0152259Y0292996D01*
X0152420Y0293000D01*
X0152580Y0293000D01*
X0152741Y0292996D01*
X0152902Y0292988D01*
X0153062Y0292976D01*
X0153222Y0292960D01*
X0153382Y0292940D01*
X0153541Y0292916D01*
X0153699Y0292888D01*
X0153857Y0292857D01*
X0154013Y0292821D01*
X0154169Y0292782D01*
X0154324Y0292739D01*
X0154478Y0292692D01*
X0154631Y0292641D01*
X0154782Y0292586D01*
X0154932Y0292528D01*
X0155080Y0292466D01*
X0155227Y0292400D01*
X0155372Y0292331D01*
X0155515Y0292258D01*
X0155657Y0292182D01*
X0155796Y0292102D01*
X0155934Y0292019D01*
X0156069Y0291932D01*
X0156203Y0291842D01*
X0156334Y0291749D01*
X0156462Y0291653D01*
X0156588Y0291553D01*
X0156712Y0291450D01*
X0156833Y0291345D01*
X0156952Y0291236D01*
X0157068Y0291125D01*
X0157181Y0291010D01*
X0157291Y0290893D01*
X0157398Y0290773D01*
X0157502Y0290651D01*
X0157603Y0290526D01*
X0157701Y0290398D01*
X0157796Y0290268D01*
X0157888Y0290136D01*
X0157976Y0290002D01*
X0158061Y0289865D01*
X0158143Y0289727D01*
X0158221Y0289586D01*
X0158295Y0289444D01*
X0158366Y0289300D01*
X0158434Y0289154D01*
X0158497Y0289006D01*
X0158558Y0288857D01*
X0158614Y0288706D01*
X0158667Y0288554D01*
X0158716Y0288401D01*
X0158761Y0288247D01*
X0158802Y0288092D01*
X0158840Y0287935D01*
X0158873Y0287778D01*
X0158903Y0287620D01*
X0158929Y0287461D01*
X0158950Y0287302D01*
X0158968Y0287142D01*
X0158982Y0286982D01*
X0158992Y0286821D01*
X0158998Y0286661D01*
X0159000Y0286500D01*
X0158998Y0286339D01*
X0158992Y0286179D01*
X0158982Y0286018D01*
X0158968Y0285858D01*
X0158950Y0285698D01*
X0158929Y0285539D01*
X0158903Y0285380D01*
X0158873Y0285222D01*
X0158840Y0285065D01*
X0158802Y0284908D01*
X0158761Y0284753D01*
X0158716Y0284599D01*
X0158667Y0284446D01*
X0158614Y0284294D01*
X0158558Y0284143D01*
X0158497Y0283994D01*
X0158434Y0283846D01*
X0158366Y0283700D01*
X0158295Y0283556D01*
X0158221Y0283414D01*
X0158143Y0283273D01*
X0158061Y0283135D01*
X0157976Y0282998D01*
X0157888Y0282864D01*
X0157796Y0282732D01*
X0157701Y0282602D01*
X0157603Y0282474D01*
X0157502Y0282349D01*
X0157398Y0282227D01*
X0157291Y0282107D01*
X0157181Y0281990D01*
X0157068Y0281875D01*
X0156952Y0281764D01*
X0156833Y0281655D01*
X0156712Y0281550D01*
X0156588Y0281447D01*
X0156462Y0281347D01*
X0156334Y0281251D01*
X0156203Y0281158D01*
X0156069Y0281068D01*
X0155934Y0280981D01*
X0155796Y0280898D01*
X0155657Y0280818D01*
X0155515Y0280742D01*
X0155372Y0280669D01*
X0155227Y0280600D01*
X0155080Y0280534D01*
X0154932Y0280472D01*
X0154782Y0280414D01*
X0154631Y0280359D01*
X0154478Y0280308D01*
X0154324Y0280261D01*
X0154169Y0280218D01*
X0154013Y0280179D01*
X0153857Y0280143D01*
X0153699Y0280112D01*
X0153541Y0280084D01*
X0153382Y0280060D01*
X0153222Y0280040D01*
X0153062Y0280024D01*
X0152902Y0280012D01*
X0152741Y0280004D01*
X0152580Y0280000D01*
X0152420Y0280000D01*
X0152259Y0280004D01*
X0152098Y0280012D01*
X0151938Y0280024D01*
X0151778Y0280040D01*
X0151618Y0280060D01*
X0151459Y0280084D01*
X0151301Y0280112D01*
X0151143Y0280143D01*
X0150987Y0280179D01*
X0150831Y0280218D01*
X0150676Y0280261D01*
X0150522Y0280308D01*
X0150369Y0280359D01*
X0150218Y0280414D01*
X0150068Y0280472D01*
X0149920Y0280534D01*
X0149773Y0280600D01*
X0149628Y0280669D01*
X0149485Y0280742D01*
X0149343Y0280818D01*
X0149204Y0280898D01*
X0149066Y0280981D01*
X0148931Y0281068D01*
X0148797Y0281158D01*
X0148666Y0281251D01*
X0148538Y0281347D01*
X0148412Y0281447D01*
X0148288Y0281550D01*
X0148167Y0281655D01*
X0148048Y0281764D01*
X0147932Y0281875D01*
X0147819Y0281990D01*
X0147709Y0282107D01*
X0147602Y0282227D01*
X0147498Y0282349D01*
X0147397Y0282474D01*
X0147299Y0282602D01*
X0147204Y0282732D01*
X0147112Y0282864D01*
X0147024Y0282998D01*
X0146939Y0283135D01*
X0146857Y0283273D01*
X0146779Y0283414D01*
X0146705Y0283556D01*
X0146634Y0283700D01*
X0146566Y0283846D01*
X0146503Y0283994D01*
X0146442Y0284143D01*
X0146386Y0284294D01*
X0146333Y0284446D01*
X0146284Y0284599D01*
X0146239Y0284753D01*
X0146198Y0284908D01*
X0146160Y0285065D01*
X0146127Y0285222D01*
X0146097Y0285380D01*
X0146071Y0285539D01*
X0146050Y0285698D01*
X0146032Y0285858D01*
X0146018Y0286018D01*
X0146008Y0286179D01*
X0146002Y0286339D01*
X0146000Y0286500D01*
X0246000Y0286500D02*
X0246002Y0286661D01*
X0246008Y0286821D01*
X0246018Y0286982D01*
X0246032Y0287142D01*
X0246050Y0287302D01*
X0246071Y0287461D01*
X0246097Y0287620D01*
X0246127Y0287778D01*
X0246160Y0287935D01*
X0246198Y0288092D01*
X0246239Y0288247D01*
X0246284Y0288401D01*
X0246333Y0288554D01*
X0246386Y0288706D01*
X0246442Y0288857D01*
X0246503Y0289006D01*
X0246566Y0289154D01*
X0246634Y0289300D01*
X0246705Y0289444D01*
X0246779Y0289586D01*
X0246857Y0289727D01*
X0246939Y0289865D01*
X0247024Y0290002D01*
X0247112Y0290136D01*
X0247204Y0290268D01*
X0247299Y0290398D01*
X0247397Y0290526D01*
X0247498Y0290651D01*
X0247602Y0290773D01*
X0247709Y0290893D01*
X0247819Y0291010D01*
X0247932Y0291125D01*
X0248048Y0291236D01*
X0248167Y0291345D01*
X0248288Y0291450D01*
X0248412Y0291553D01*
X0248538Y0291653D01*
X0248666Y0291749D01*
X0248797Y0291842D01*
X0248931Y0291932D01*
X0249066Y0292019D01*
X0249204Y0292102D01*
X0249343Y0292182D01*
X0249485Y0292258D01*
X0249628Y0292331D01*
X0249773Y0292400D01*
X0249920Y0292466D01*
X0250068Y0292528D01*
X0250218Y0292586D01*
X0250369Y0292641D01*
X0250522Y0292692D01*
X0250676Y0292739D01*
X0250831Y0292782D01*
X0250987Y0292821D01*
X0251143Y0292857D01*
X0251301Y0292888D01*
X0251459Y0292916D01*
X0251618Y0292940D01*
X0251778Y0292960D01*
X0251938Y0292976D01*
X0252098Y0292988D01*
X0252259Y0292996D01*
X0252420Y0293000D01*
X0252580Y0293000D01*
X0252741Y0292996D01*
X0252902Y0292988D01*
X0253062Y0292976D01*
X0253222Y0292960D01*
X0253382Y0292940D01*
X0253541Y0292916D01*
X0253699Y0292888D01*
X0253857Y0292857D01*
X0254013Y0292821D01*
X0254169Y0292782D01*
X0254324Y0292739D01*
X0254478Y0292692D01*
X0254631Y0292641D01*
X0254782Y0292586D01*
X0254932Y0292528D01*
X0255080Y0292466D01*
X0255227Y0292400D01*
X0255372Y0292331D01*
X0255515Y0292258D01*
X0255657Y0292182D01*
X0255796Y0292102D01*
X0255934Y0292019D01*
X0256069Y0291932D01*
X0256203Y0291842D01*
X0256334Y0291749D01*
X0256462Y0291653D01*
X0256588Y0291553D01*
X0256712Y0291450D01*
X0256833Y0291345D01*
X0256952Y0291236D01*
X0257068Y0291125D01*
X0257181Y0291010D01*
X0257291Y0290893D01*
X0257398Y0290773D01*
X0257502Y0290651D01*
X0257603Y0290526D01*
X0257701Y0290398D01*
X0257796Y0290268D01*
X0257888Y0290136D01*
X0257976Y0290002D01*
X0258061Y0289865D01*
X0258143Y0289727D01*
X0258221Y0289586D01*
X0258295Y0289444D01*
X0258366Y0289300D01*
X0258434Y0289154D01*
X0258497Y0289006D01*
X0258558Y0288857D01*
X0258614Y0288706D01*
X0258667Y0288554D01*
X0258716Y0288401D01*
X0258761Y0288247D01*
X0258802Y0288092D01*
X0258840Y0287935D01*
X0258873Y0287778D01*
X0258903Y0287620D01*
X0258929Y0287461D01*
X0258950Y0287302D01*
X0258968Y0287142D01*
X0258982Y0286982D01*
X0258992Y0286821D01*
X0258998Y0286661D01*
X0259000Y0286500D01*
X0258998Y0286339D01*
X0258992Y0286179D01*
X0258982Y0286018D01*
X0258968Y0285858D01*
X0258950Y0285698D01*
X0258929Y0285539D01*
X0258903Y0285380D01*
X0258873Y0285222D01*
X0258840Y0285065D01*
X0258802Y0284908D01*
X0258761Y0284753D01*
X0258716Y0284599D01*
X0258667Y0284446D01*
X0258614Y0284294D01*
X0258558Y0284143D01*
X0258497Y0283994D01*
X0258434Y0283846D01*
X0258366Y0283700D01*
X0258295Y0283556D01*
X0258221Y0283414D01*
X0258143Y0283273D01*
X0258061Y0283135D01*
X0257976Y0282998D01*
X0257888Y0282864D01*
X0257796Y0282732D01*
X0257701Y0282602D01*
X0257603Y0282474D01*
X0257502Y0282349D01*
X0257398Y0282227D01*
X0257291Y0282107D01*
X0257181Y0281990D01*
X0257068Y0281875D01*
X0256952Y0281764D01*
X0256833Y0281655D01*
X0256712Y0281550D01*
X0256588Y0281447D01*
X0256462Y0281347D01*
X0256334Y0281251D01*
X0256203Y0281158D01*
X0256069Y0281068D01*
X0255934Y0280981D01*
X0255796Y0280898D01*
X0255657Y0280818D01*
X0255515Y0280742D01*
X0255372Y0280669D01*
X0255227Y0280600D01*
X0255080Y0280534D01*
X0254932Y0280472D01*
X0254782Y0280414D01*
X0254631Y0280359D01*
X0254478Y0280308D01*
X0254324Y0280261D01*
X0254169Y0280218D01*
X0254013Y0280179D01*
X0253857Y0280143D01*
X0253699Y0280112D01*
X0253541Y0280084D01*
X0253382Y0280060D01*
X0253222Y0280040D01*
X0253062Y0280024D01*
X0252902Y0280012D01*
X0252741Y0280004D01*
X0252580Y0280000D01*
X0252420Y0280000D01*
X0252259Y0280004D01*
X0252098Y0280012D01*
X0251938Y0280024D01*
X0251778Y0280040D01*
X0251618Y0280060D01*
X0251459Y0280084D01*
X0251301Y0280112D01*
X0251143Y0280143D01*
X0250987Y0280179D01*
X0250831Y0280218D01*
X0250676Y0280261D01*
X0250522Y0280308D01*
X0250369Y0280359D01*
X0250218Y0280414D01*
X0250068Y0280472D01*
X0249920Y0280534D01*
X0249773Y0280600D01*
X0249628Y0280669D01*
X0249485Y0280742D01*
X0249343Y0280818D01*
X0249204Y0280898D01*
X0249066Y0280981D01*
X0248931Y0281068D01*
X0248797Y0281158D01*
X0248666Y0281251D01*
X0248538Y0281347D01*
X0248412Y0281447D01*
X0248288Y0281550D01*
X0248167Y0281655D01*
X0248048Y0281764D01*
X0247932Y0281875D01*
X0247819Y0281990D01*
X0247709Y0282107D01*
X0247602Y0282227D01*
X0247498Y0282349D01*
X0247397Y0282474D01*
X0247299Y0282602D01*
X0247204Y0282732D01*
X0247112Y0282864D01*
X0247024Y0282998D01*
X0246939Y0283135D01*
X0246857Y0283273D01*
X0246779Y0283414D01*
X0246705Y0283556D01*
X0246634Y0283700D01*
X0246566Y0283846D01*
X0246503Y0283994D01*
X0246442Y0284143D01*
X0246386Y0284294D01*
X0246333Y0284446D01*
X0246284Y0284599D01*
X0246239Y0284753D01*
X0246198Y0284908D01*
X0246160Y0285065D01*
X0246127Y0285222D01*
X0246097Y0285380D01*
X0246071Y0285539D01*
X0246050Y0285698D01*
X0246032Y0285858D01*
X0246018Y0286018D01*
X0246008Y0286179D01*
X0246002Y0286339D01*
X0246000Y0286500D01*
X0268000Y0286500D02*
X0268002Y0286661D01*
X0268008Y0286821D01*
X0268018Y0286982D01*
X0268032Y0287142D01*
X0268050Y0287302D01*
X0268071Y0287461D01*
X0268097Y0287620D01*
X0268127Y0287778D01*
X0268160Y0287935D01*
X0268198Y0288092D01*
X0268239Y0288247D01*
X0268284Y0288401D01*
X0268333Y0288554D01*
X0268386Y0288706D01*
X0268442Y0288857D01*
X0268503Y0289006D01*
X0268566Y0289154D01*
X0268634Y0289300D01*
X0268705Y0289444D01*
X0268779Y0289586D01*
X0268857Y0289727D01*
X0268939Y0289865D01*
X0269024Y0290002D01*
X0269112Y0290136D01*
X0269204Y0290268D01*
X0269299Y0290398D01*
X0269397Y0290526D01*
X0269498Y0290651D01*
X0269602Y0290773D01*
X0269709Y0290893D01*
X0269819Y0291010D01*
X0269932Y0291125D01*
X0270048Y0291236D01*
X0270167Y0291345D01*
X0270288Y0291450D01*
X0270412Y0291553D01*
X0270538Y0291653D01*
X0270666Y0291749D01*
X0270797Y0291842D01*
X0270931Y0291932D01*
X0271066Y0292019D01*
X0271204Y0292102D01*
X0271343Y0292182D01*
X0271485Y0292258D01*
X0271628Y0292331D01*
X0271773Y0292400D01*
X0271920Y0292466D01*
X0272068Y0292528D01*
X0272218Y0292586D01*
X0272369Y0292641D01*
X0272522Y0292692D01*
X0272676Y0292739D01*
X0272831Y0292782D01*
X0272987Y0292821D01*
X0273143Y0292857D01*
X0273301Y0292888D01*
X0273459Y0292916D01*
X0273618Y0292940D01*
X0273778Y0292960D01*
X0273938Y0292976D01*
X0274098Y0292988D01*
X0274259Y0292996D01*
X0274420Y0293000D01*
X0274580Y0293000D01*
X0274741Y0292996D01*
X0274902Y0292988D01*
X0275062Y0292976D01*
X0275222Y0292960D01*
X0275382Y0292940D01*
X0275541Y0292916D01*
X0275699Y0292888D01*
X0275857Y0292857D01*
X0276013Y0292821D01*
X0276169Y0292782D01*
X0276324Y0292739D01*
X0276478Y0292692D01*
X0276631Y0292641D01*
X0276782Y0292586D01*
X0276932Y0292528D01*
X0277080Y0292466D01*
X0277227Y0292400D01*
X0277372Y0292331D01*
X0277515Y0292258D01*
X0277657Y0292182D01*
X0277796Y0292102D01*
X0277934Y0292019D01*
X0278069Y0291932D01*
X0278203Y0291842D01*
X0278334Y0291749D01*
X0278462Y0291653D01*
X0278588Y0291553D01*
X0278712Y0291450D01*
X0278833Y0291345D01*
X0278952Y0291236D01*
X0279068Y0291125D01*
X0279181Y0291010D01*
X0279291Y0290893D01*
X0279398Y0290773D01*
X0279502Y0290651D01*
X0279603Y0290526D01*
X0279701Y0290398D01*
X0279796Y0290268D01*
X0279888Y0290136D01*
X0279976Y0290002D01*
X0280061Y0289865D01*
X0280143Y0289727D01*
X0280221Y0289586D01*
X0280295Y0289444D01*
X0280366Y0289300D01*
X0280434Y0289154D01*
X0280497Y0289006D01*
X0280558Y0288857D01*
X0280614Y0288706D01*
X0280667Y0288554D01*
X0280716Y0288401D01*
X0280761Y0288247D01*
X0280802Y0288092D01*
X0280840Y0287935D01*
X0280873Y0287778D01*
X0280903Y0287620D01*
X0280929Y0287461D01*
X0280950Y0287302D01*
X0280968Y0287142D01*
X0280982Y0286982D01*
X0280992Y0286821D01*
X0280998Y0286661D01*
X0281000Y0286500D01*
X0280998Y0286339D01*
X0280992Y0286179D01*
X0280982Y0286018D01*
X0280968Y0285858D01*
X0280950Y0285698D01*
X0280929Y0285539D01*
X0280903Y0285380D01*
X0280873Y0285222D01*
X0280840Y0285065D01*
X0280802Y0284908D01*
X0280761Y0284753D01*
X0280716Y0284599D01*
X0280667Y0284446D01*
X0280614Y0284294D01*
X0280558Y0284143D01*
X0280497Y0283994D01*
X0280434Y0283846D01*
X0280366Y0283700D01*
X0280295Y0283556D01*
X0280221Y0283414D01*
X0280143Y0283273D01*
X0280061Y0283135D01*
X0279976Y0282998D01*
X0279888Y0282864D01*
X0279796Y0282732D01*
X0279701Y0282602D01*
X0279603Y0282474D01*
X0279502Y0282349D01*
X0279398Y0282227D01*
X0279291Y0282107D01*
X0279181Y0281990D01*
X0279068Y0281875D01*
X0278952Y0281764D01*
X0278833Y0281655D01*
X0278712Y0281550D01*
X0278588Y0281447D01*
X0278462Y0281347D01*
X0278334Y0281251D01*
X0278203Y0281158D01*
X0278069Y0281068D01*
X0277934Y0280981D01*
X0277796Y0280898D01*
X0277657Y0280818D01*
X0277515Y0280742D01*
X0277372Y0280669D01*
X0277227Y0280600D01*
X0277080Y0280534D01*
X0276932Y0280472D01*
X0276782Y0280414D01*
X0276631Y0280359D01*
X0276478Y0280308D01*
X0276324Y0280261D01*
X0276169Y0280218D01*
X0276013Y0280179D01*
X0275857Y0280143D01*
X0275699Y0280112D01*
X0275541Y0280084D01*
X0275382Y0280060D01*
X0275222Y0280040D01*
X0275062Y0280024D01*
X0274902Y0280012D01*
X0274741Y0280004D01*
X0274580Y0280000D01*
X0274420Y0280000D01*
X0274259Y0280004D01*
X0274098Y0280012D01*
X0273938Y0280024D01*
X0273778Y0280040D01*
X0273618Y0280060D01*
X0273459Y0280084D01*
X0273301Y0280112D01*
X0273143Y0280143D01*
X0272987Y0280179D01*
X0272831Y0280218D01*
X0272676Y0280261D01*
X0272522Y0280308D01*
X0272369Y0280359D01*
X0272218Y0280414D01*
X0272068Y0280472D01*
X0271920Y0280534D01*
X0271773Y0280600D01*
X0271628Y0280669D01*
X0271485Y0280742D01*
X0271343Y0280818D01*
X0271204Y0280898D01*
X0271066Y0280981D01*
X0270931Y0281068D01*
X0270797Y0281158D01*
X0270666Y0281251D01*
X0270538Y0281347D01*
X0270412Y0281447D01*
X0270288Y0281550D01*
X0270167Y0281655D01*
X0270048Y0281764D01*
X0269932Y0281875D01*
X0269819Y0281990D01*
X0269709Y0282107D01*
X0269602Y0282227D01*
X0269498Y0282349D01*
X0269397Y0282474D01*
X0269299Y0282602D01*
X0269204Y0282732D01*
X0269112Y0282864D01*
X0269024Y0282998D01*
X0268939Y0283135D01*
X0268857Y0283273D01*
X0268779Y0283414D01*
X0268705Y0283556D01*
X0268634Y0283700D01*
X0268566Y0283846D01*
X0268503Y0283994D01*
X0268442Y0284143D01*
X0268386Y0284294D01*
X0268333Y0284446D01*
X0268284Y0284599D01*
X0268239Y0284753D01*
X0268198Y0284908D01*
X0268160Y0285065D01*
X0268127Y0285222D01*
X0268097Y0285380D01*
X0268071Y0285539D01*
X0268050Y0285698D01*
X0268032Y0285858D01*
X0268018Y0286018D01*
X0268008Y0286179D01*
X0268002Y0286339D01*
X0268000Y0286500D01*
X0368000Y0286500D02*
X0368002Y0286661D01*
X0368008Y0286821D01*
X0368018Y0286982D01*
X0368032Y0287142D01*
X0368050Y0287302D01*
X0368071Y0287461D01*
X0368097Y0287620D01*
X0368127Y0287778D01*
X0368160Y0287935D01*
X0368198Y0288092D01*
X0368239Y0288247D01*
X0368284Y0288401D01*
X0368333Y0288554D01*
X0368386Y0288706D01*
X0368442Y0288857D01*
X0368503Y0289006D01*
X0368566Y0289154D01*
X0368634Y0289300D01*
X0368705Y0289444D01*
X0368779Y0289586D01*
X0368857Y0289727D01*
X0368939Y0289865D01*
X0369024Y0290002D01*
X0369112Y0290136D01*
X0369204Y0290268D01*
X0369299Y0290398D01*
X0369397Y0290526D01*
X0369498Y0290651D01*
X0369602Y0290773D01*
X0369709Y0290893D01*
X0369819Y0291010D01*
X0369932Y0291125D01*
X0370048Y0291236D01*
X0370167Y0291345D01*
X0370288Y0291450D01*
X0370412Y0291553D01*
X0370538Y0291653D01*
X0370666Y0291749D01*
X0370797Y0291842D01*
X0370931Y0291932D01*
X0371066Y0292019D01*
X0371204Y0292102D01*
X0371343Y0292182D01*
X0371485Y0292258D01*
X0371628Y0292331D01*
X0371773Y0292400D01*
X0371920Y0292466D01*
X0372068Y0292528D01*
X0372218Y0292586D01*
X0372369Y0292641D01*
X0372522Y0292692D01*
X0372676Y0292739D01*
X0372831Y0292782D01*
X0372987Y0292821D01*
X0373143Y0292857D01*
X0373301Y0292888D01*
X0373459Y0292916D01*
X0373618Y0292940D01*
X0373778Y0292960D01*
X0373938Y0292976D01*
X0374098Y0292988D01*
X0374259Y0292996D01*
X0374420Y0293000D01*
X0374580Y0293000D01*
X0374741Y0292996D01*
X0374902Y0292988D01*
X0375062Y0292976D01*
X0375222Y0292960D01*
X0375382Y0292940D01*
X0375541Y0292916D01*
X0375699Y0292888D01*
X0375857Y0292857D01*
X0376013Y0292821D01*
X0376169Y0292782D01*
X0376324Y0292739D01*
X0376478Y0292692D01*
X0376631Y0292641D01*
X0376782Y0292586D01*
X0376932Y0292528D01*
X0377080Y0292466D01*
X0377227Y0292400D01*
X0377372Y0292331D01*
X0377515Y0292258D01*
X0377657Y0292182D01*
X0377796Y0292102D01*
X0377934Y0292019D01*
X0378069Y0291932D01*
X0378203Y0291842D01*
X0378334Y0291749D01*
X0378462Y0291653D01*
X0378588Y0291553D01*
X0378712Y0291450D01*
X0378833Y0291345D01*
X0378952Y0291236D01*
X0379068Y0291125D01*
X0379181Y0291010D01*
X0379291Y0290893D01*
X0379398Y0290773D01*
X0379502Y0290651D01*
X0379603Y0290526D01*
X0379701Y0290398D01*
X0379796Y0290268D01*
X0379888Y0290136D01*
X0379976Y0290002D01*
X0380061Y0289865D01*
X0380143Y0289727D01*
X0380221Y0289586D01*
X0380295Y0289444D01*
X0380366Y0289300D01*
X0380434Y0289154D01*
X0380497Y0289006D01*
X0380558Y0288857D01*
X0380614Y0288706D01*
X0380667Y0288554D01*
X0380716Y0288401D01*
X0380761Y0288247D01*
X0380802Y0288092D01*
X0380840Y0287935D01*
X0380873Y0287778D01*
X0380903Y0287620D01*
X0380929Y0287461D01*
X0380950Y0287302D01*
X0380968Y0287142D01*
X0380982Y0286982D01*
X0380992Y0286821D01*
X0380998Y0286661D01*
X0381000Y0286500D01*
X0380998Y0286339D01*
X0380992Y0286179D01*
X0380982Y0286018D01*
X0380968Y0285858D01*
X0380950Y0285698D01*
X0380929Y0285539D01*
X0380903Y0285380D01*
X0380873Y0285222D01*
X0380840Y0285065D01*
X0380802Y0284908D01*
X0380761Y0284753D01*
X0380716Y0284599D01*
X0380667Y0284446D01*
X0380614Y0284294D01*
X0380558Y0284143D01*
X0380497Y0283994D01*
X0380434Y0283846D01*
X0380366Y0283700D01*
X0380295Y0283556D01*
X0380221Y0283414D01*
X0380143Y0283273D01*
X0380061Y0283135D01*
X0379976Y0282998D01*
X0379888Y0282864D01*
X0379796Y0282732D01*
X0379701Y0282602D01*
X0379603Y0282474D01*
X0379502Y0282349D01*
X0379398Y0282227D01*
X0379291Y0282107D01*
X0379181Y0281990D01*
X0379068Y0281875D01*
X0378952Y0281764D01*
X0378833Y0281655D01*
X0378712Y0281550D01*
X0378588Y0281447D01*
X0378462Y0281347D01*
X0378334Y0281251D01*
X0378203Y0281158D01*
X0378069Y0281068D01*
X0377934Y0280981D01*
X0377796Y0280898D01*
X0377657Y0280818D01*
X0377515Y0280742D01*
X0377372Y0280669D01*
X0377227Y0280600D01*
X0377080Y0280534D01*
X0376932Y0280472D01*
X0376782Y0280414D01*
X0376631Y0280359D01*
X0376478Y0280308D01*
X0376324Y0280261D01*
X0376169Y0280218D01*
X0376013Y0280179D01*
X0375857Y0280143D01*
X0375699Y0280112D01*
X0375541Y0280084D01*
X0375382Y0280060D01*
X0375222Y0280040D01*
X0375062Y0280024D01*
X0374902Y0280012D01*
X0374741Y0280004D01*
X0374580Y0280000D01*
X0374420Y0280000D01*
X0374259Y0280004D01*
X0374098Y0280012D01*
X0373938Y0280024D01*
X0373778Y0280040D01*
X0373618Y0280060D01*
X0373459Y0280084D01*
X0373301Y0280112D01*
X0373143Y0280143D01*
X0372987Y0280179D01*
X0372831Y0280218D01*
X0372676Y0280261D01*
X0372522Y0280308D01*
X0372369Y0280359D01*
X0372218Y0280414D01*
X0372068Y0280472D01*
X0371920Y0280534D01*
X0371773Y0280600D01*
X0371628Y0280669D01*
X0371485Y0280742D01*
X0371343Y0280818D01*
X0371204Y0280898D01*
X0371066Y0280981D01*
X0370931Y0281068D01*
X0370797Y0281158D01*
X0370666Y0281251D01*
X0370538Y0281347D01*
X0370412Y0281447D01*
X0370288Y0281550D01*
X0370167Y0281655D01*
X0370048Y0281764D01*
X0369932Y0281875D01*
X0369819Y0281990D01*
X0369709Y0282107D01*
X0369602Y0282227D01*
X0369498Y0282349D01*
X0369397Y0282474D01*
X0369299Y0282602D01*
X0369204Y0282732D01*
X0369112Y0282864D01*
X0369024Y0282998D01*
X0368939Y0283135D01*
X0368857Y0283273D01*
X0368779Y0283414D01*
X0368705Y0283556D01*
X0368634Y0283700D01*
X0368566Y0283846D01*
X0368503Y0283994D01*
X0368442Y0284143D01*
X0368386Y0284294D01*
X0368333Y0284446D01*
X0368284Y0284599D01*
X0368239Y0284753D01*
X0368198Y0284908D01*
X0368160Y0285065D01*
X0368127Y0285222D01*
X0368097Y0285380D01*
X0368071Y0285539D01*
X0368050Y0285698D01*
X0368032Y0285858D01*
X0368018Y0286018D01*
X0368008Y0286179D01*
X0368002Y0286339D01*
X0368000Y0286500D01*
X0368000Y0388500D02*
X0368002Y0388661D01*
X0368008Y0388821D01*
X0368018Y0388982D01*
X0368032Y0389142D01*
X0368050Y0389302D01*
X0368071Y0389461D01*
X0368097Y0389620D01*
X0368127Y0389778D01*
X0368160Y0389935D01*
X0368198Y0390092D01*
X0368239Y0390247D01*
X0368284Y0390401D01*
X0368333Y0390554D01*
X0368386Y0390706D01*
X0368442Y0390857D01*
X0368503Y0391006D01*
X0368566Y0391154D01*
X0368634Y0391300D01*
X0368705Y0391444D01*
X0368779Y0391586D01*
X0368857Y0391727D01*
X0368939Y0391865D01*
X0369024Y0392002D01*
X0369112Y0392136D01*
X0369204Y0392268D01*
X0369299Y0392398D01*
X0369397Y0392526D01*
X0369498Y0392651D01*
X0369602Y0392773D01*
X0369709Y0392893D01*
X0369819Y0393010D01*
X0369932Y0393125D01*
X0370048Y0393236D01*
X0370167Y0393345D01*
X0370288Y0393450D01*
X0370412Y0393553D01*
X0370538Y0393653D01*
X0370666Y0393749D01*
X0370797Y0393842D01*
X0370931Y0393932D01*
X0371066Y0394019D01*
X0371204Y0394102D01*
X0371343Y0394182D01*
X0371485Y0394258D01*
X0371628Y0394331D01*
X0371773Y0394400D01*
X0371920Y0394466D01*
X0372068Y0394528D01*
X0372218Y0394586D01*
X0372369Y0394641D01*
X0372522Y0394692D01*
X0372676Y0394739D01*
X0372831Y0394782D01*
X0372987Y0394821D01*
X0373143Y0394857D01*
X0373301Y0394888D01*
X0373459Y0394916D01*
X0373618Y0394940D01*
X0373778Y0394960D01*
X0373938Y0394976D01*
X0374098Y0394988D01*
X0374259Y0394996D01*
X0374420Y0395000D01*
X0374580Y0395000D01*
X0374741Y0394996D01*
X0374902Y0394988D01*
X0375062Y0394976D01*
X0375222Y0394960D01*
X0375382Y0394940D01*
X0375541Y0394916D01*
X0375699Y0394888D01*
X0375857Y0394857D01*
X0376013Y0394821D01*
X0376169Y0394782D01*
X0376324Y0394739D01*
X0376478Y0394692D01*
X0376631Y0394641D01*
X0376782Y0394586D01*
X0376932Y0394528D01*
X0377080Y0394466D01*
X0377227Y0394400D01*
X0377372Y0394331D01*
X0377515Y0394258D01*
X0377657Y0394182D01*
X0377796Y0394102D01*
X0377934Y0394019D01*
X0378069Y0393932D01*
X0378203Y0393842D01*
X0378334Y0393749D01*
X0378462Y0393653D01*
X0378588Y0393553D01*
X0378712Y0393450D01*
X0378833Y0393345D01*
X0378952Y0393236D01*
X0379068Y0393125D01*
X0379181Y0393010D01*
X0379291Y0392893D01*
X0379398Y0392773D01*
X0379502Y0392651D01*
X0379603Y0392526D01*
X0379701Y0392398D01*
X0379796Y0392268D01*
X0379888Y0392136D01*
X0379976Y0392002D01*
X0380061Y0391865D01*
X0380143Y0391727D01*
X0380221Y0391586D01*
X0380295Y0391444D01*
X0380366Y0391300D01*
X0380434Y0391154D01*
X0380497Y0391006D01*
X0380558Y0390857D01*
X0380614Y0390706D01*
X0380667Y0390554D01*
X0380716Y0390401D01*
X0380761Y0390247D01*
X0380802Y0390092D01*
X0380840Y0389935D01*
X0380873Y0389778D01*
X0380903Y0389620D01*
X0380929Y0389461D01*
X0380950Y0389302D01*
X0380968Y0389142D01*
X0380982Y0388982D01*
X0380992Y0388821D01*
X0380998Y0388661D01*
X0381000Y0388500D01*
X0380998Y0388339D01*
X0380992Y0388179D01*
X0380982Y0388018D01*
X0380968Y0387858D01*
X0380950Y0387698D01*
X0380929Y0387539D01*
X0380903Y0387380D01*
X0380873Y0387222D01*
X0380840Y0387065D01*
X0380802Y0386908D01*
X0380761Y0386753D01*
X0380716Y0386599D01*
X0380667Y0386446D01*
X0380614Y0386294D01*
X0380558Y0386143D01*
X0380497Y0385994D01*
X0380434Y0385846D01*
X0380366Y0385700D01*
X0380295Y0385556D01*
X0380221Y0385414D01*
X0380143Y0385273D01*
X0380061Y0385135D01*
X0379976Y0384998D01*
X0379888Y0384864D01*
X0379796Y0384732D01*
X0379701Y0384602D01*
X0379603Y0384474D01*
X0379502Y0384349D01*
X0379398Y0384227D01*
X0379291Y0384107D01*
X0379181Y0383990D01*
X0379068Y0383875D01*
X0378952Y0383764D01*
X0378833Y0383655D01*
X0378712Y0383550D01*
X0378588Y0383447D01*
X0378462Y0383347D01*
X0378334Y0383251D01*
X0378203Y0383158D01*
X0378069Y0383068D01*
X0377934Y0382981D01*
X0377796Y0382898D01*
X0377657Y0382818D01*
X0377515Y0382742D01*
X0377372Y0382669D01*
X0377227Y0382600D01*
X0377080Y0382534D01*
X0376932Y0382472D01*
X0376782Y0382414D01*
X0376631Y0382359D01*
X0376478Y0382308D01*
X0376324Y0382261D01*
X0376169Y0382218D01*
X0376013Y0382179D01*
X0375857Y0382143D01*
X0375699Y0382112D01*
X0375541Y0382084D01*
X0375382Y0382060D01*
X0375222Y0382040D01*
X0375062Y0382024D01*
X0374902Y0382012D01*
X0374741Y0382004D01*
X0374580Y0382000D01*
X0374420Y0382000D01*
X0374259Y0382004D01*
X0374098Y0382012D01*
X0373938Y0382024D01*
X0373778Y0382040D01*
X0373618Y0382060D01*
X0373459Y0382084D01*
X0373301Y0382112D01*
X0373143Y0382143D01*
X0372987Y0382179D01*
X0372831Y0382218D01*
X0372676Y0382261D01*
X0372522Y0382308D01*
X0372369Y0382359D01*
X0372218Y0382414D01*
X0372068Y0382472D01*
X0371920Y0382534D01*
X0371773Y0382600D01*
X0371628Y0382669D01*
X0371485Y0382742D01*
X0371343Y0382818D01*
X0371204Y0382898D01*
X0371066Y0382981D01*
X0370931Y0383068D01*
X0370797Y0383158D01*
X0370666Y0383251D01*
X0370538Y0383347D01*
X0370412Y0383447D01*
X0370288Y0383550D01*
X0370167Y0383655D01*
X0370048Y0383764D01*
X0369932Y0383875D01*
X0369819Y0383990D01*
X0369709Y0384107D01*
X0369602Y0384227D01*
X0369498Y0384349D01*
X0369397Y0384474D01*
X0369299Y0384602D01*
X0369204Y0384732D01*
X0369112Y0384864D01*
X0369024Y0384998D01*
X0368939Y0385135D01*
X0368857Y0385273D01*
X0368779Y0385414D01*
X0368705Y0385556D01*
X0368634Y0385700D01*
X0368566Y0385846D01*
X0368503Y0385994D01*
X0368442Y0386143D01*
X0368386Y0386294D01*
X0368333Y0386446D01*
X0368284Y0386599D01*
X0368239Y0386753D01*
X0368198Y0386908D01*
X0368160Y0387065D01*
X0368127Y0387222D01*
X0368097Y0387380D01*
X0368071Y0387539D01*
X0368050Y0387698D01*
X0368032Y0387858D01*
X0368018Y0388018D01*
X0368008Y0388179D01*
X0368002Y0388339D01*
X0368000Y0388500D01*
X0268000Y0388500D02*
X0268002Y0388661D01*
X0268008Y0388821D01*
X0268018Y0388982D01*
X0268032Y0389142D01*
X0268050Y0389302D01*
X0268071Y0389461D01*
X0268097Y0389620D01*
X0268127Y0389778D01*
X0268160Y0389935D01*
X0268198Y0390092D01*
X0268239Y0390247D01*
X0268284Y0390401D01*
X0268333Y0390554D01*
X0268386Y0390706D01*
X0268442Y0390857D01*
X0268503Y0391006D01*
X0268566Y0391154D01*
X0268634Y0391300D01*
X0268705Y0391444D01*
X0268779Y0391586D01*
X0268857Y0391727D01*
X0268939Y0391865D01*
X0269024Y0392002D01*
X0269112Y0392136D01*
X0269204Y0392268D01*
X0269299Y0392398D01*
X0269397Y0392526D01*
X0269498Y0392651D01*
X0269602Y0392773D01*
X0269709Y0392893D01*
X0269819Y0393010D01*
X0269932Y0393125D01*
X0270048Y0393236D01*
X0270167Y0393345D01*
X0270288Y0393450D01*
X0270412Y0393553D01*
X0270538Y0393653D01*
X0270666Y0393749D01*
X0270797Y0393842D01*
X0270931Y0393932D01*
X0271066Y0394019D01*
X0271204Y0394102D01*
X0271343Y0394182D01*
X0271485Y0394258D01*
X0271628Y0394331D01*
X0271773Y0394400D01*
X0271920Y0394466D01*
X0272068Y0394528D01*
X0272218Y0394586D01*
X0272369Y0394641D01*
X0272522Y0394692D01*
X0272676Y0394739D01*
X0272831Y0394782D01*
X0272987Y0394821D01*
X0273143Y0394857D01*
X0273301Y0394888D01*
X0273459Y0394916D01*
X0273618Y0394940D01*
X0273778Y0394960D01*
X0273938Y0394976D01*
X0274098Y0394988D01*
X0274259Y0394996D01*
X0274420Y0395000D01*
X0274580Y0395000D01*
X0274741Y0394996D01*
X0274902Y0394988D01*
X0275062Y0394976D01*
X0275222Y0394960D01*
X0275382Y0394940D01*
X0275541Y0394916D01*
X0275699Y0394888D01*
X0275857Y0394857D01*
X0276013Y0394821D01*
X0276169Y0394782D01*
X0276324Y0394739D01*
X0276478Y0394692D01*
X0276631Y0394641D01*
X0276782Y0394586D01*
X0276932Y0394528D01*
X0277080Y0394466D01*
X0277227Y0394400D01*
X0277372Y0394331D01*
X0277515Y0394258D01*
X0277657Y0394182D01*
X0277796Y0394102D01*
X0277934Y0394019D01*
X0278069Y0393932D01*
X0278203Y0393842D01*
X0278334Y0393749D01*
X0278462Y0393653D01*
X0278588Y0393553D01*
X0278712Y0393450D01*
X0278833Y0393345D01*
X0278952Y0393236D01*
X0279068Y0393125D01*
X0279181Y0393010D01*
X0279291Y0392893D01*
X0279398Y0392773D01*
X0279502Y0392651D01*
X0279603Y0392526D01*
X0279701Y0392398D01*
X0279796Y0392268D01*
X0279888Y0392136D01*
X0279976Y0392002D01*
X0280061Y0391865D01*
X0280143Y0391727D01*
X0280221Y0391586D01*
X0280295Y0391444D01*
X0280366Y0391300D01*
X0280434Y0391154D01*
X0280497Y0391006D01*
X0280558Y0390857D01*
X0280614Y0390706D01*
X0280667Y0390554D01*
X0280716Y0390401D01*
X0280761Y0390247D01*
X0280802Y0390092D01*
X0280840Y0389935D01*
X0280873Y0389778D01*
X0280903Y0389620D01*
X0280929Y0389461D01*
X0280950Y0389302D01*
X0280968Y0389142D01*
X0280982Y0388982D01*
X0280992Y0388821D01*
X0280998Y0388661D01*
X0281000Y0388500D01*
X0280998Y0388339D01*
X0280992Y0388179D01*
X0280982Y0388018D01*
X0280968Y0387858D01*
X0280950Y0387698D01*
X0280929Y0387539D01*
X0280903Y0387380D01*
X0280873Y0387222D01*
X0280840Y0387065D01*
X0280802Y0386908D01*
X0280761Y0386753D01*
X0280716Y0386599D01*
X0280667Y0386446D01*
X0280614Y0386294D01*
X0280558Y0386143D01*
X0280497Y0385994D01*
X0280434Y0385846D01*
X0280366Y0385700D01*
X0280295Y0385556D01*
X0280221Y0385414D01*
X0280143Y0385273D01*
X0280061Y0385135D01*
X0279976Y0384998D01*
X0279888Y0384864D01*
X0279796Y0384732D01*
X0279701Y0384602D01*
X0279603Y0384474D01*
X0279502Y0384349D01*
X0279398Y0384227D01*
X0279291Y0384107D01*
X0279181Y0383990D01*
X0279068Y0383875D01*
X0278952Y0383764D01*
X0278833Y0383655D01*
X0278712Y0383550D01*
X0278588Y0383447D01*
X0278462Y0383347D01*
X0278334Y0383251D01*
X0278203Y0383158D01*
X0278069Y0383068D01*
X0277934Y0382981D01*
X0277796Y0382898D01*
X0277657Y0382818D01*
X0277515Y0382742D01*
X0277372Y0382669D01*
X0277227Y0382600D01*
X0277080Y0382534D01*
X0276932Y0382472D01*
X0276782Y0382414D01*
X0276631Y0382359D01*
X0276478Y0382308D01*
X0276324Y0382261D01*
X0276169Y0382218D01*
X0276013Y0382179D01*
X0275857Y0382143D01*
X0275699Y0382112D01*
X0275541Y0382084D01*
X0275382Y0382060D01*
X0275222Y0382040D01*
X0275062Y0382024D01*
X0274902Y0382012D01*
X0274741Y0382004D01*
X0274580Y0382000D01*
X0274420Y0382000D01*
X0274259Y0382004D01*
X0274098Y0382012D01*
X0273938Y0382024D01*
X0273778Y0382040D01*
X0273618Y0382060D01*
X0273459Y0382084D01*
X0273301Y0382112D01*
X0273143Y0382143D01*
X0272987Y0382179D01*
X0272831Y0382218D01*
X0272676Y0382261D01*
X0272522Y0382308D01*
X0272369Y0382359D01*
X0272218Y0382414D01*
X0272068Y0382472D01*
X0271920Y0382534D01*
X0271773Y0382600D01*
X0271628Y0382669D01*
X0271485Y0382742D01*
X0271343Y0382818D01*
X0271204Y0382898D01*
X0271066Y0382981D01*
X0270931Y0383068D01*
X0270797Y0383158D01*
X0270666Y0383251D01*
X0270538Y0383347D01*
X0270412Y0383447D01*
X0270288Y0383550D01*
X0270167Y0383655D01*
X0270048Y0383764D01*
X0269932Y0383875D01*
X0269819Y0383990D01*
X0269709Y0384107D01*
X0269602Y0384227D01*
X0269498Y0384349D01*
X0269397Y0384474D01*
X0269299Y0384602D01*
X0269204Y0384732D01*
X0269112Y0384864D01*
X0269024Y0384998D01*
X0268939Y0385135D01*
X0268857Y0385273D01*
X0268779Y0385414D01*
X0268705Y0385556D01*
X0268634Y0385700D01*
X0268566Y0385846D01*
X0268503Y0385994D01*
X0268442Y0386143D01*
X0268386Y0386294D01*
X0268333Y0386446D01*
X0268284Y0386599D01*
X0268239Y0386753D01*
X0268198Y0386908D01*
X0268160Y0387065D01*
X0268127Y0387222D01*
X0268097Y0387380D01*
X0268071Y0387539D01*
X0268050Y0387698D01*
X0268032Y0387858D01*
X0268018Y0388018D01*
X0268008Y0388179D01*
X0268002Y0388339D01*
X0268000Y0388500D01*
X0246000Y0388500D02*
X0246002Y0388661D01*
X0246008Y0388821D01*
X0246018Y0388982D01*
X0246032Y0389142D01*
X0246050Y0389302D01*
X0246071Y0389461D01*
X0246097Y0389620D01*
X0246127Y0389778D01*
X0246160Y0389935D01*
X0246198Y0390092D01*
X0246239Y0390247D01*
X0246284Y0390401D01*
X0246333Y0390554D01*
X0246386Y0390706D01*
X0246442Y0390857D01*
X0246503Y0391006D01*
X0246566Y0391154D01*
X0246634Y0391300D01*
X0246705Y0391444D01*
X0246779Y0391586D01*
X0246857Y0391727D01*
X0246939Y0391865D01*
X0247024Y0392002D01*
X0247112Y0392136D01*
X0247204Y0392268D01*
X0247299Y0392398D01*
X0247397Y0392526D01*
X0247498Y0392651D01*
X0247602Y0392773D01*
X0247709Y0392893D01*
X0247819Y0393010D01*
X0247932Y0393125D01*
X0248048Y0393236D01*
X0248167Y0393345D01*
X0248288Y0393450D01*
X0248412Y0393553D01*
X0248538Y0393653D01*
X0248666Y0393749D01*
X0248797Y0393842D01*
X0248931Y0393932D01*
X0249066Y0394019D01*
X0249204Y0394102D01*
X0249343Y0394182D01*
X0249485Y0394258D01*
X0249628Y0394331D01*
X0249773Y0394400D01*
X0249920Y0394466D01*
X0250068Y0394528D01*
X0250218Y0394586D01*
X0250369Y0394641D01*
X0250522Y0394692D01*
X0250676Y0394739D01*
X0250831Y0394782D01*
X0250987Y0394821D01*
X0251143Y0394857D01*
X0251301Y0394888D01*
X0251459Y0394916D01*
X0251618Y0394940D01*
X0251778Y0394960D01*
X0251938Y0394976D01*
X0252098Y0394988D01*
X0252259Y0394996D01*
X0252420Y0395000D01*
X0252580Y0395000D01*
X0252741Y0394996D01*
X0252902Y0394988D01*
X0253062Y0394976D01*
X0253222Y0394960D01*
X0253382Y0394940D01*
X0253541Y0394916D01*
X0253699Y0394888D01*
X0253857Y0394857D01*
X0254013Y0394821D01*
X0254169Y0394782D01*
X0254324Y0394739D01*
X0254478Y0394692D01*
X0254631Y0394641D01*
X0254782Y0394586D01*
X0254932Y0394528D01*
X0255080Y0394466D01*
X0255227Y0394400D01*
X0255372Y0394331D01*
X0255515Y0394258D01*
X0255657Y0394182D01*
X0255796Y0394102D01*
X0255934Y0394019D01*
X0256069Y0393932D01*
X0256203Y0393842D01*
X0256334Y0393749D01*
X0256462Y0393653D01*
X0256588Y0393553D01*
X0256712Y0393450D01*
X0256833Y0393345D01*
X0256952Y0393236D01*
X0257068Y0393125D01*
X0257181Y0393010D01*
X0257291Y0392893D01*
X0257398Y0392773D01*
X0257502Y0392651D01*
X0257603Y0392526D01*
X0257701Y0392398D01*
X0257796Y0392268D01*
X0257888Y0392136D01*
X0257976Y0392002D01*
X0258061Y0391865D01*
X0258143Y0391727D01*
X0258221Y0391586D01*
X0258295Y0391444D01*
X0258366Y0391300D01*
X0258434Y0391154D01*
X0258497Y0391006D01*
X0258558Y0390857D01*
X0258614Y0390706D01*
X0258667Y0390554D01*
X0258716Y0390401D01*
X0258761Y0390247D01*
X0258802Y0390092D01*
X0258840Y0389935D01*
X0258873Y0389778D01*
X0258903Y0389620D01*
X0258929Y0389461D01*
X0258950Y0389302D01*
X0258968Y0389142D01*
X0258982Y0388982D01*
X0258992Y0388821D01*
X0258998Y0388661D01*
X0259000Y0388500D01*
X0258998Y0388339D01*
X0258992Y0388179D01*
X0258982Y0388018D01*
X0258968Y0387858D01*
X0258950Y0387698D01*
X0258929Y0387539D01*
X0258903Y0387380D01*
X0258873Y0387222D01*
X0258840Y0387065D01*
X0258802Y0386908D01*
X0258761Y0386753D01*
X0258716Y0386599D01*
X0258667Y0386446D01*
X0258614Y0386294D01*
X0258558Y0386143D01*
X0258497Y0385994D01*
X0258434Y0385846D01*
X0258366Y0385700D01*
X0258295Y0385556D01*
X0258221Y0385414D01*
X0258143Y0385273D01*
X0258061Y0385135D01*
X0257976Y0384998D01*
X0257888Y0384864D01*
X0257796Y0384732D01*
X0257701Y0384602D01*
X0257603Y0384474D01*
X0257502Y0384349D01*
X0257398Y0384227D01*
X0257291Y0384107D01*
X0257181Y0383990D01*
X0257068Y0383875D01*
X0256952Y0383764D01*
X0256833Y0383655D01*
X0256712Y0383550D01*
X0256588Y0383447D01*
X0256462Y0383347D01*
X0256334Y0383251D01*
X0256203Y0383158D01*
X0256069Y0383068D01*
X0255934Y0382981D01*
X0255796Y0382898D01*
X0255657Y0382818D01*
X0255515Y0382742D01*
X0255372Y0382669D01*
X0255227Y0382600D01*
X0255080Y0382534D01*
X0254932Y0382472D01*
X0254782Y0382414D01*
X0254631Y0382359D01*
X0254478Y0382308D01*
X0254324Y0382261D01*
X0254169Y0382218D01*
X0254013Y0382179D01*
X0253857Y0382143D01*
X0253699Y0382112D01*
X0253541Y0382084D01*
X0253382Y0382060D01*
X0253222Y0382040D01*
X0253062Y0382024D01*
X0252902Y0382012D01*
X0252741Y0382004D01*
X0252580Y0382000D01*
X0252420Y0382000D01*
X0252259Y0382004D01*
X0252098Y0382012D01*
X0251938Y0382024D01*
X0251778Y0382040D01*
X0251618Y0382060D01*
X0251459Y0382084D01*
X0251301Y0382112D01*
X0251143Y0382143D01*
X0250987Y0382179D01*
X0250831Y0382218D01*
X0250676Y0382261D01*
X0250522Y0382308D01*
X0250369Y0382359D01*
X0250218Y0382414D01*
X0250068Y0382472D01*
X0249920Y0382534D01*
X0249773Y0382600D01*
X0249628Y0382669D01*
X0249485Y0382742D01*
X0249343Y0382818D01*
X0249204Y0382898D01*
X0249066Y0382981D01*
X0248931Y0383068D01*
X0248797Y0383158D01*
X0248666Y0383251D01*
X0248538Y0383347D01*
X0248412Y0383447D01*
X0248288Y0383550D01*
X0248167Y0383655D01*
X0248048Y0383764D01*
X0247932Y0383875D01*
X0247819Y0383990D01*
X0247709Y0384107D01*
X0247602Y0384227D01*
X0247498Y0384349D01*
X0247397Y0384474D01*
X0247299Y0384602D01*
X0247204Y0384732D01*
X0247112Y0384864D01*
X0247024Y0384998D01*
X0246939Y0385135D01*
X0246857Y0385273D01*
X0246779Y0385414D01*
X0246705Y0385556D01*
X0246634Y0385700D01*
X0246566Y0385846D01*
X0246503Y0385994D01*
X0246442Y0386143D01*
X0246386Y0386294D01*
X0246333Y0386446D01*
X0246284Y0386599D01*
X0246239Y0386753D01*
X0246198Y0386908D01*
X0246160Y0387065D01*
X0246127Y0387222D01*
X0246097Y0387380D01*
X0246071Y0387539D01*
X0246050Y0387698D01*
X0246032Y0387858D01*
X0246018Y0388018D01*
X0246008Y0388179D01*
X0246002Y0388339D01*
X0246000Y0388500D01*
X0146000Y0388500D02*
X0146002Y0388661D01*
X0146008Y0388821D01*
X0146018Y0388982D01*
X0146032Y0389142D01*
X0146050Y0389302D01*
X0146071Y0389461D01*
X0146097Y0389620D01*
X0146127Y0389778D01*
X0146160Y0389935D01*
X0146198Y0390092D01*
X0146239Y0390247D01*
X0146284Y0390401D01*
X0146333Y0390554D01*
X0146386Y0390706D01*
X0146442Y0390857D01*
X0146503Y0391006D01*
X0146566Y0391154D01*
X0146634Y0391300D01*
X0146705Y0391444D01*
X0146779Y0391586D01*
X0146857Y0391727D01*
X0146939Y0391865D01*
X0147024Y0392002D01*
X0147112Y0392136D01*
X0147204Y0392268D01*
X0147299Y0392398D01*
X0147397Y0392526D01*
X0147498Y0392651D01*
X0147602Y0392773D01*
X0147709Y0392893D01*
X0147819Y0393010D01*
X0147932Y0393125D01*
X0148048Y0393236D01*
X0148167Y0393345D01*
X0148288Y0393450D01*
X0148412Y0393553D01*
X0148538Y0393653D01*
X0148666Y0393749D01*
X0148797Y0393842D01*
X0148931Y0393932D01*
X0149066Y0394019D01*
X0149204Y0394102D01*
X0149343Y0394182D01*
X0149485Y0394258D01*
X0149628Y0394331D01*
X0149773Y0394400D01*
X0149920Y0394466D01*
X0150068Y0394528D01*
X0150218Y0394586D01*
X0150369Y0394641D01*
X0150522Y0394692D01*
X0150676Y0394739D01*
X0150831Y0394782D01*
X0150987Y0394821D01*
X0151143Y0394857D01*
X0151301Y0394888D01*
X0151459Y0394916D01*
X0151618Y0394940D01*
X0151778Y0394960D01*
X0151938Y0394976D01*
X0152098Y0394988D01*
X0152259Y0394996D01*
X0152420Y0395000D01*
X0152580Y0395000D01*
X0152741Y0394996D01*
X0152902Y0394988D01*
X0153062Y0394976D01*
X0153222Y0394960D01*
X0153382Y0394940D01*
X0153541Y0394916D01*
X0153699Y0394888D01*
X0153857Y0394857D01*
X0154013Y0394821D01*
X0154169Y0394782D01*
X0154324Y0394739D01*
X0154478Y0394692D01*
X0154631Y0394641D01*
X0154782Y0394586D01*
X0154932Y0394528D01*
X0155080Y0394466D01*
X0155227Y0394400D01*
X0155372Y0394331D01*
X0155515Y0394258D01*
X0155657Y0394182D01*
X0155796Y0394102D01*
X0155934Y0394019D01*
X0156069Y0393932D01*
X0156203Y0393842D01*
X0156334Y0393749D01*
X0156462Y0393653D01*
X0156588Y0393553D01*
X0156712Y0393450D01*
X0156833Y0393345D01*
X0156952Y0393236D01*
X0157068Y0393125D01*
X0157181Y0393010D01*
X0157291Y0392893D01*
X0157398Y0392773D01*
X0157502Y0392651D01*
X0157603Y0392526D01*
X0157701Y0392398D01*
X0157796Y0392268D01*
X0157888Y0392136D01*
X0157976Y0392002D01*
X0158061Y0391865D01*
X0158143Y0391727D01*
X0158221Y0391586D01*
X0158295Y0391444D01*
X0158366Y0391300D01*
X0158434Y0391154D01*
X0158497Y0391006D01*
X0158558Y0390857D01*
X0158614Y0390706D01*
X0158667Y0390554D01*
X0158716Y0390401D01*
X0158761Y0390247D01*
X0158802Y0390092D01*
X0158840Y0389935D01*
X0158873Y0389778D01*
X0158903Y0389620D01*
X0158929Y0389461D01*
X0158950Y0389302D01*
X0158968Y0389142D01*
X0158982Y0388982D01*
X0158992Y0388821D01*
X0158998Y0388661D01*
X0159000Y0388500D01*
X0158998Y0388339D01*
X0158992Y0388179D01*
X0158982Y0388018D01*
X0158968Y0387858D01*
X0158950Y0387698D01*
X0158929Y0387539D01*
X0158903Y0387380D01*
X0158873Y0387222D01*
X0158840Y0387065D01*
X0158802Y0386908D01*
X0158761Y0386753D01*
X0158716Y0386599D01*
X0158667Y0386446D01*
X0158614Y0386294D01*
X0158558Y0386143D01*
X0158497Y0385994D01*
X0158434Y0385846D01*
X0158366Y0385700D01*
X0158295Y0385556D01*
X0158221Y0385414D01*
X0158143Y0385273D01*
X0158061Y0385135D01*
X0157976Y0384998D01*
X0157888Y0384864D01*
X0157796Y0384732D01*
X0157701Y0384602D01*
X0157603Y0384474D01*
X0157502Y0384349D01*
X0157398Y0384227D01*
X0157291Y0384107D01*
X0157181Y0383990D01*
X0157068Y0383875D01*
X0156952Y0383764D01*
X0156833Y0383655D01*
X0156712Y0383550D01*
X0156588Y0383447D01*
X0156462Y0383347D01*
X0156334Y0383251D01*
X0156203Y0383158D01*
X0156069Y0383068D01*
X0155934Y0382981D01*
X0155796Y0382898D01*
X0155657Y0382818D01*
X0155515Y0382742D01*
X0155372Y0382669D01*
X0155227Y0382600D01*
X0155080Y0382534D01*
X0154932Y0382472D01*
X0154782Y0382414D01*
X0154631Y0382359D01*
X0154478Y0382308D01*
X0154324Y0382261D01*
X0154169Y0382218D01*
X0154013Y0382179D01*
X0153857Y0382143D01*
X0153699Y0382112D01*
X0153541Y0382084D01*
X0153382Y0382060D01*
X0153222Y0382040D01*
X0153062Y0382024D01*
X0152902Y0382012D01*
X0152741Y0382004D01*
X0152580Y0382000D01*
X0152420Y0382000D01*
X0152259Y0382004D01*
X0152098Y0382012D01*
X0151938Y0382024D01*
X0151778Y0382040D01*
X0151618Y0382060D01*
X0151459Y0382084D01*
X0151301Y0382112D01*
X0151143Y0382143D01*
X0150987Y0382179D01*
X0150831Y0382218D01*
X0150676Y0382261D01*
X0150522Y0382308D01*
X0150369Y0382359D01*
X0150218Y0382414D01*
X0150068Y0382472D01*
X0149920Y0382534D01*
X0149773Y0382600D01*
X0149628Y0382669D01*
X0149485Y0382742D01*
X0149343Y0382818D01*
X0149204Y0382898D01*
X0149066Y0382981D01*
X0148931Y0383068D01*
X0148797Y0383158D01*
X0148666Y0383251D01*
X0148538Y0383347D01*
X0148412Y0383447D01*
X0148288Y0383550D01*
X0148167Y0383655D01*
X0148048Y0383764D01*
X0147932Y0383875D01*
X0147819Y0383990D01*
X0147709Y0384107D01*
X0147602Y0384227D01*
X0147498Y0384349D01*
X0147397Y0384474D01*
X0147299Y0384602D01*
X0147204Y0384732D01*
X0147112Y0384864D01*
X0147024Y0384998D01*
X0146939Y0385135D01*
X0146857Y0385273D01*
X0146779Y0385414D01*
X0146705Y0385556D01*
X0146634Y0385700D01*
X0146566Y0385846D01*
X0146503Y0385994D01*
X0146442Y0386143D01*
X0146386Y0386294D01*
X0146333Y0386446D01*
X0146284Y0386599D01*
X0146239Y0386753D01*
X0146198Y0386908D01*
X0146160Y0387065D01*
X0146127Y0387222D01*
X0146097Y0387380D01*
X0146071Y0387539D01*
X0146050Y0387698D01*
X0146032Y0387858D01*
X0146018Y0388018D01*
X0146008Y0388179D01*
X0146002Y0388339D01*
X0146000Y0388500D01*
X0124000Y0388500D02*
X0124002Y0388661D01*
X0124008Y0388821D01*
X0124018Y0388982D01*
X0124032Y0389142D01*
X0124050Y0389302D01*
X0124071Y0389461D01*
X0124097Y0389620D01*
X0124127Y0389778D01*
X0124160Y0389935D01*
X0124198Y0390092D01*
X0124239Y0390247D01*
X0124284Y0390401D01*
X0124333Y0390554D01*
X0124386Y0390706D01*
X0124442Y0390857D01*
X0124503Y0391006D01*
X0124566Y0391154D01*
X0124634Y0391300D01*
X0124705Y0391444D01*
X0124779Y0391586D01*
X0124857Y0391727D01*
X0124939Y0391865D01*
X0125024Y0392002D01*
X0125112Y0392136D01*
X0125204Y0392268D01*
X0125299Y0392398D01*
X0125397Y0392526D01*
X0125498Y0392651D01*
X0125602Y0392773D01*
X0125709Y0392893D01*
X0125819Y0393010D01*
X0125932Y0393125D01*
X0126048Y0393236D01*
X0126167Y0393345D01*
X0126288Y0393450D01*
X0126412Y0393553D01*
X0126538Y0393653D01*
X0126666Y0393749D01*
X0126797Y0393842D01*
X0126931Y0393932D01*
X0127066Y0394019D01*
X0127204Y0394102D01*
X0127343Y0394182D01*
X0127485Y0394258D01*
X0127628Y0394331D01*
X0127773Y0394400D01*
X0127920Y0394466D01*
X0128068Y0394528D01*
X0128218Y0394586D01*
X0128369Y0394641D01*
X0128522Y0394692D01*
X0128676Y0394739D01*
X0128831Y0394782D01*
X0128987Y0394821D01*
X0129143Y0394857D01*
X0129301Y0394888D01*
X0129459Y0394916D01*
X0129618Y0394940D01*
X0129778Y0394960D01*
X0129938Y0394976D01*
X0130098Y0394988D01*
X0130259Y0394996D01*
X0130420Y0395000D01*
X0130580Y0395000D01*
X0130741Y0394996D01*
X0130902Y0394988D01*
X0131062Y0394976D01*
X0131222Y0394960D01*
X0131382Y0394940D01*
X0131541Y0394916D01*
X0131699Y0394888D01*
X0131857Y0394857D01*
X0132013Y0394821D01*
X0132169Y0394782D01*
X0132324Y0394739D01*
X0132478Y0394692D01*
X0132631Y0394641D01*
X0132782Y0394586D01*
X0132932Y0394528D01*
X0133080Y0394466D01*
X0133227Y0394400D01*
X0133372Y0394331D01*
X0133515Y0394258D01*
X0133657Y0394182D01*
X0133796Y0394102D01*
X0133934Y0394019D01*
X0134069Y0393932D01*
X0134203Y0393842D01*
X0134334Y0393749D01*
X0134462Y0393653D01*
X0134588Y0393553D01*
X0134712Y0393450D01*
X0134833Y0393345D01*
X0134952Y0393236D01*
X0135068Y0393125D01*
X0135181Y0393010D01*
X0135291Y0392893D01*
X0135398Y0392773D01*
X0135502Y0392651D01*
X0135603Y0392526D01*
X0135701Y0392398D01*
X0135796Y0392268D01*
X0135888Y0392136D01*
X0135976Y0392002D01*
X0136061Y0391865D01*
X0136143Y0391727D01*
X0136221Y0391586D01*
X0136295Y0391444D01*
X0136366Y0391300D01*
X0136434Y0391154D01*
X0136497Y0391006D01*
X0136558Y0390857D01*
X0136614Y0390706D01*
X0136667Y0390554D01*
X0136716Y0390401D01*
X0136761Y0390247D01*
X0136802Y0390092D01*
X0136840Y0389935D01*
X0136873Y0389778D01*
X0136903Y0389620D01*
X0136929Y0389461D01*
X0136950Y0389302D01*
X0136968Y0389142D01*
X0136982Y0388982D01*
X0136992Y0388821D01*
X0136998Y0388661D01*
X0137000Y0388500D01*
X0136998Y0388339D01*
X0136992Y0388179D01*
X0136982Y0388018D01*
X0136968Y0387858D01*
X0136950Y0387698D01*
X0136929Y0387539D01*
X0136903Y0387380D01*
X0136873Y0387222D01*
X0136840Y0387065D01*
X0136802Y0386908D01*
X0136761Y0386753D01*
X0136716Y0386599D01*
X0136667Y0386446D01*
X0136614Y0386294D01*
X0136558Y0386143D01*
X0136497Y0385994D01*
X0136434Y0385846D01*
X0136366Y0385700D01*
X0136295Y0385556D01*
X0136221Y0385414D01*
X0136143Y0385273D01*
X0136061Y0385135D01*
X0135976Y0384998D01*
X0135888Y0384864D01*
X0135796Y0384732D01*
X0135701Y0384602D01*
X0135603Y0384474D01*
X0135502Y0384349D01*
X0135398Y0384227D01*
X0135291Y0384107D01*
X0135181Y0383990D01*
X0135068Y0383875D01*
X0134952Y0383764D01*
X0134833Y0383655D01*
X0134712Y0383550D01*
X0134588Y0383447D01*
X0134462Y0383347D01*
X0134334Y0383251D01*
X0134203Y0383158D01*
X0134069Y0383068D01*
X0133934Y0382981D01*
X0133796Y0382898D01*
X0133657Y0382818D01*
X0133515Y0382742D01*
X0133372Y0382669D01*
X0133227Y0382600D01*
X0133080Y0382534D01*
X0132932Y0382472D01*
X0132782Y0382414D01*
X0132631Y0382359D01*
X0132478Y0382308D01*
X0132324Y0382261D01*
X0132169Y0382218D01*
X0132013Y0382179D01*
X0131857Y0382143D01*
X0131699Y0382112D01*
X0131541Y0382084D01*
X0131382Y0382060D01*
X0131222Y0382040D01*
X0131062Y0382024D01*
X0130902Y0382012D01*
X0130741Y0382004D01*
X0130580Y0382000D01*
X0130420Y0382000D01*
X0130259Y0382004D01*
X0130098Y0382012D01*
X0129938Y0382024D01*
X0129778Y0382040D01*
X0129618Y0382060D01*
X0129459Y0382084D01*
X0129301Y0382112D01*
X0129143Y0382143D01*
X0128987Y0382179D01*
X0128831Y0382218D01*
X0128676Y0382261D01*
X0128522Y0382308D01*
X0128369Y0382359D01*
X0128218Y0382414D01*
X0128068Y0382472D01*
X0127920Y0382534D01*
X0127773Y0382600D01*
X0127628Y0382669D01*
X0127485Y0382742D01*
X0127343Y0382818D01*
X0127204Y0382898D01*
X0127066Y0382981D01*
X0126931Y0383068D01*
X0126797Y0383158D01*
X0126666Y0383251D01*
X0126538Y0383347D01*
X0126412Y0383447D01*
X0126288Y0383550D01*
X0126167Y0383655D01*
X0126048Y0383764D01*
X0125932Y0383875D01*
X0125819Y0383990D01*
X0125709Y0384107D01*
X0125602Y0384227D01*
X0125498Y0384349D01*
X0125397Y0384474D01*
X0125299Y0384602D01*
X0125204Y0384732D01*
X0125112Y0384864D01*
X0125024Y0384998D01*
X0124939Y0385135D01*
X0124857Y0385273D01*
X0124779Y0385414D01*
X0124705Y0385556D01*
X0124634Y0385700D01*
X0124566Y0385846D01*
X0124503Y0385994D01*
X0124442Y0386143D01*
X0124386Y0386294D01*
X0124333Y0386446D01*
X0124284Y0386599D01*
X0124239Y0386753D01*
X0124198Y0386908D01*
X0124160Y0387065D01*
X0124127Y0387222D01*
X0124097Y0387380D01*
X0124071Y0387539D01*
X0124050Y0387698D01*
X0124032Y0387858D01*
X0124018Y0388018D01*
X0124008Y0388179D01*
X0124002Y0388339D01*
X0124000Y0388500D01*
X0024000Y0388500D02*
X0024002Y0388661D01*
X0024008Y0388821D01*
X0024018Y0388982D01*
X0024032Y0389142D01*
X0024050Y0389302D01*
X0024071Y0389461D01*
X0024097Y0389620D01*
X0024127Y0389778D01*
X0024160Y0389935D01*
X0024198Y0390092D01*
X0024239Y0390247D01*
X0024284Y0390401D01*
X0024333Y0390554D01*
X0024386Y0390706D01*
X0024442Y0390857D01*
X0024503Y0391006D01*
X0024566Y0391154D01*
X0024634Y0391300D01*
X0024705Y0391444D01*
X0024779Y0391586D01*
X0024857Y0391727D01*
X0024939Y0391865D01*
X0025024Y0392002D01*
X0025112Y0392136D01*
X0025204Y0392268D01*
X0025299Y0392398D01*
X0025397Y0392526D01*
X0025498Y0392651D01*
X0025602Y0392773D01*
X0025709Y0392893D01*
X0025819Y0393010D01*
X0025932Y0393125D01*
X0026048Y0393236D01*
X0026167Y0393345D01*
X0026288Y0393450D01*
X0026412Y0393553D01*
X0026538Y0393653D01*
X0026666Y0393749D01*
X0026797Y0393842D01*
X0026931Y0393932D01*
X0027066Y0394019D01*
X0027204Y0394102D01*
X0027343Y0394182D01*
X0027485Y0394258D01*
X0027628Y0394331D01*
X0027773Y0394400D01*
X0027920Y0394466D01*
X0028068Y0394528D01*
X0028218Y0394586D01*
X0028369Y0394641D01*
X0028522Y0394692D01*
X0028676Y0394739D01*
X0028831Y0394782D01*
X0028987Y0394821D01*
X0029143Y0394857D01*
X0029301Y0394888D01*
X0029459Y0394916D01*
X0029618Y0394940D01*
X0029778Y0394960D01*
X0029938Y0394976D01*
X0030098Y0394988D01*
X0030259Y0394996D01*
X0030420Y0395000D01*
X0030580Y0395000D01*
X0030741Y0394996D01*
X0030902Y0394988D01*
X0031062Y0394976D01*
X0031222Y0394960D01*
X0031382Y0394940D01*
X0031541Y0394916D01*
X0031699Y0394888D01*
X0031857Y0394857D01*
X0032013Y0394821D01*
X0032169Y0394782D01*
X0032324Y0394739D01*
X0032478Y0394692D01*
X0032631Y0394641D01*
X0032782Y0394586D01*
X0032932Y0394528D01*
X0033080Y0394466D01*
X0033227Y0394400D01*
X0033372Y0394331D01*
X0033515Y0394258D01*
X0033657Y0394182D01*
X0033796Y0394102D01*
X0033934Y0394019D01*
X0034069Y0393932D01*
X0034203Y0393842D01*
X0034334Y0393749D01*
X0034462Y0393653D01*
X0034588Y0393553D01*
X0034712Y0393450D01*
X0034833Y0393345D01*
X0034952Y0393236D01*
X0035068Y0393125D01*
X0035181Y0393010D01*
X0035291Y0392893D01*
X0035398Y0392773D01*
X0035502Y0392651D01*
X0035603Y0392526D01*
X0035701Y0392398D01*
X0035796Y0392268D01*
X0035888Y0392136D01*
X0035976Y0392002D01*
X0036061Y0391865D01*
X0036143Y0391727D01*
X0036221Y0391586D01*
X0036295Y0391444D01*
X0036366Y0391300D01*
X0036434Y0391154D01*
X0036497Y0391006D01*
X0036558Y0390857D01*
X0036614Y0390706D01*
X0036667Y0390554D01*
X0036716Y0390401D01*
X0036761Y0390247D01*
X0036802Y0390092D01*
X0036840Y0389935D01*
X0036873Y0389778D01*
X0036903Y0389620D01*
X0036929Y0389461D01*
X0036950Y0389302D01*
X0036968Y0389142D01*
X0036982Y0388982D01*
X0036992Y0388821D01*
X0036998Y0388661D01*
X0037000Y0388500D01*
X0036998Y0388339D01*
X0036992Y0388179D01*
X0036982Y0388018D01*
X0036968Y0387858D01*
X0036950Y0387698D01*
X0036929Y0387539D01*
X0036903Y0387380D01*
X0036873Y0387222D01*
X0036840Y0387065D01*
X0036802Y0386908D01*
X0036761Y0386753D01*
X0036716Y0386599D01*
X0036667Y0386446D01*
X0036614Y0386294D01*
X0036558Y0386143D01*
X0036497Y0385994D01*
X0036434Y0385846D01*
X0036366Y0385700D01*
X0036295Y0385556D01*
X0036221Y0385414D01*
X0036143Y0385273D01*
X0036061Y0385135D01*
X0035976Y0384998D01*
X0035888Y0384864D01*
X0035796Y0384732D01*
X0035701Y0384602D01*
X0035603Y0384474D01*
X0035502Y0384349D01*
X0035398Y0384227D01*
X0035291Y0384107D01*
X0035181Y0383990D01*
X0035068Y0383875D01*
X0034952Y0383764D01*
X0034833Y0383655D01*
X0034712Y0383550D01*
X0034588Y0383447D01*
X0034462Y0383347D01*
X0034334Y0383251D01*
X0034203Y0383158D01*
X0034069Y0383068D01*
X0033934Y0382981D01*
X0033796Y0382898D01*
X0033657Y0382818D01*
X0033515Y0382742D01*
X0033372Y0382669D01*
X0033227Y0382600D01*
X0033080Y0382534D01*
X0032932Y0382472D01*
X0032782Y0382414D01*
X0032631Y0382359D01*
X0032478Y0382308D01*
X0032324Y0382261D01*
X0032169Y0382218D01*
X0032013Y0382179D01*
X0031857Y0382143D01*
X0031699Y0382112D01*
X0031541Y0382084D01*
X0031382Y0382060D01*
X0031222Y0382040D01*
X0031062Y0382024D01*
X0030902Y0382012D01*
X0030741Y0382004D01*
X0030580Y0382000D01*
X0030420Y0382000D01*
X0030259Y0382004D01*
X0030098Y0382012D01*
X0029938Y0382024D01*
X0029778Y0382040D01*
X0029618Y0382060D01*
X0029459Y0382084D01*
X0029301Y0382112D01*
X0029143Y0382143D01*
X0028987Y0382179D01*
X0028831Y0382218D01*
X0028676Y0382261D01*
X0028522Y0382308D01*
X0028369Y0382359D01*
X0028218Y0382414D01*
X0028068Y0382472D01*
X0027920Y0382534D01*
X0027773Y0382600D01*
X0027628Y0382669D01*
X0027485Y0382742D01*
X0027343Y0382818D01*
X0027204Y0382898D01*
X0027066Y0382981D01*
X0026931Y0383068D01*
X0026797Y0383158D01*
X0026666Y0383251D01*
X0026538Y0383347D01*
X0026412Y0383447D01*
X0026288Y0383550D01*
X0026167Y0383655D01*
X0026048Y0383764D01*
X0025932Y0383875D01*
X0025819Y0383990D01*
X0025709Y0384107D01*
X0025602Y0384227D01*
X0025498Y0384349D01*
X0025397Y0384474D01*
X0025299Y0384602D01*
X0025204Y0384732D01*
X0025112Y0384864D01*
X0025024Y0384998D01*
X0024939Y0385135D01*
X0024857Y0385273D01*
X0024779Y0385414D01*
X0024705Y0385556D01*
X0024634Y0385700D01*
X0024566Y0385846D01*
X0024503Y0385994D01*
X0024442Y0386143D01*
X0024386Y0386294D01*
X0024333Y0386446D01*
X0024284Y0386599D01*
X0024239Y0386753D01*
X0024198Y0386908D01*
X0024160Y0387065D01*
X0024127Y0387222D01*
X0024097Y0387380D01*
X0024071Y0387539D01*
X0024050Y0387698D01*
X0024032Y0387858D01*
X0024018Y0388018D01*
X0024008Y0388179D01*
X0024002Y0388339D01*
X0024000Y0388500D01*
M02*
