G75*
%MOIN*%
%OFA0B0*%
%FSLAX25Y25*%
%IPPOS*%
%LPD*%
%AMOC8*
5,1,8,0,0,1.08239X$1,22.5*
%
%ADD10C,0.13800*%
%ADD11C,0.03300*%
%ADD12R,0.08674X0.05524*%
%ADD13R,0.06115X0.03162*%
%ADD14C,0.08200*%
%ADD15R,0.04737X0.05131*%
%ADD16R,0.01784X0.04737*%
%ADD17R,0.04737X0.01784*%
%ADD18R,0.05131X0.04737*%
%ADD19R,0.05800X0.03300*%
%ADD20R,0.04737X0.07887*%
D10*
X0030500Y0184500D03*
X0130500Y0184500D03*
X0152500Y0184500D03*
X0252500Y0184500D03*
X0274500Y0184500D03*
X0374500Y0184500D03*
X0374500Y0286500D03*
X0274500Y0286500D03*
X0252500Y0286500D03*
X0152500Y0286500D03*
X0130500Y0286500D03*
X0030500Y0286500D03*
X0030500Y0388500D03*
X0130500Y0388500D03*
X0152500Y0388500D03*
X0252500Y0388500D03*
X0274500Y0388500D03*
X0374500Y0388500D03*
D11*
X0381000Y0302000D03*
X0381000Y0200000D03*
X0381000Y0098000D03*
X0267500Y0191500D03*
X0259000Y0200000D03*
X0267500Y0293500D03*
X0259000Y0302000D03*
X0267500Y0395500D03*
X0145500Y0395500D03*
X0137000Y0302000D03*
X0145500Y0293500D03*
X0137000Y0200000D03*
X0145500Y0191500D03*
X0137000Y0098000D03*
X0023500Y0191500D03*
X0023500Y0293500D03*
X0023500Y0395500D03*
X0259000Y0098000D03*
D12*
X0256969Y0133476D03*
X0270031Y0133476D03*
X0270031Y0155524D03*
X0256969Y0155524D03*
X0256969Y0235476D03*
X0270031Y0235476D03*
X0270031Y0257524D03*
X0256969Y0257524D03*
X0256969Y0337476D03*
X0270031Y0337476D03*
X0270031Y0359524D03*
X0256969Y0359524D03*
X0148031Y0359524D03*
X0134969Y0359524D03*
X0134969Y0337476D03*
X0148031Y0337476D03*
X0148031Y0257524D03*
X0134969Y0257524D03*
X0134969Y0235476D03*
X0148031Y0235476D03*
X0148031Y0155524D03*
X0134969Y0155524D03*
X0134969Y0133476D03*
X0148031Y0133476D03*
X0026031Y0133476D03*
X0026031Y0155524D03*
X0026031Y0235476D03*
X0026031Y0257524D03*
X0026031Y0337476D03*
X0026031Y0359524D03*
X0378969Y0359524D03*
X0378969Y0337476D03*
X0378969Y0257524D03*
X0378969Y0235476D03*
X0378969Y0155524D03*
X0378969Y0133476D03*
D13*
X0364500Y0138594D03*
X0364500Y0142531D03*
X0364500Y0146469D03*
X0364500Y0150406D03*
X0284500Y0150406D03*
X0284500Y0146469D03*
X0284500Y0142531D03*
X0284500Y0138594D03*
X0242500Y0138594D03*
X0242500Y0142531D03*
X0242500Y0146469D03*
X0242500Y0150406D03*
X0162500Y0150406D03*
X0162500Y0146469D03*
X0162500Y0142531D03*
X0162500Y0138594D03*
X0120500Y0138594D03*
X0120500Y0142531D03*
X0120500Y0146469D03*
X0120500Y0150406D03*
X0040500Y0150406D03*
X0040500Y0146469D03*
X0040500Y0142531D03*
X0040500Y0138594D03*
X0040500Y0240594D03*
X0040500Y0244531D03*
X0040500Y0248469D03*
X0040500Y0252406D03*
X0120500Y0252406D03*
X0120500Y0248469D03*
X0120500Y0244531D03*
X0120500Y0240594D03*
X0162500Y0240594D03*
X0162500Y0244531D03*
X0162500Y0248469D03*
X0162500Y0252406D03*
X0242500Y0252406D03*
X0242500Y0248469D03*
X0242500Y0244531D03*
X0242500Y0240594D03*
X0284500Y0240594D03*
X0284500Y0244531D03*
X0284500Y0248469D03*
X0284500Y0252406D03*
X0364500Y0252406D03*
X0364500Y0248469D03*
X0364500Y0244531D03*
X0364500Y0240594D03*
X0364500Y0342594D03*
X0364500Y0346531D03*
X0364500Y0350469D03*
X0364500Y0354406D03*
X0284500Y0354406D03*
X0284500Y0350469D03*
X0284500Y0346531D03*
X0284500Y0342594D03*
X0242500Y0342594D03*
X0242500Y0346531D03*
X0242500Y0350469D03*
X0242500Y0354406D03*
X0162500Y0354406D03*
X0162500Y0350469D03*
X0162500Y0346531D03*
X0162500Y0342594D03*
X0120500Y0342594D03*
X0120500Y0346531D03*
X0120500Y0350469D03*
X0120500Y0354406D03*
X0040500Y0354406D03*
X0040500Y0350469D03*
X0040500Y0346531D03*
X0040500Y0342594D03*
D14*
X0045500Y0099500D03*
X0055500Y0099500D03*
X0065500Y0099500D03*
X0075500Y0099500D03*
X0085500Y0099500D03*
X0095500Y0099500D03*
X0105500Y0099500D03*
X0115500Y0099500D03*
X0147500Y0124500D03*
X0167500Y0099500D03*
X0177500Y0099500D03*
X0187500Y0099500D03*
X0197500Y0099500D03*
X0207500Y0099500D03*
X0217500Y0099500D03*
X0227500Y0099500D03*
X0237500Y0099500D03*
X0269500Y0124500D03*
X0289500Y0099500D03*
X0299500Y0099500D03*
X0309500Y0099500D03*
X0319500Y0099500D03*
X0329500Y0099500D03*
X0339500Y0099500D03*
X0349500Y0099500D03*
X0359500Y0099500D03*
X0349500Y0169500D03*
X0339500Y0169500D03*
X0329500Y0169500D03*
X0319500Y0169500D03*
X0309500Y0169500D03*
X0299500Y0169500D03*
X0299500Y0189500D03*
X0289500Y0189500D03*
X0289500Y0201500D03*
X0299500Y0201500D03*
X0309500Y0201500D03*
X0319500Y0201500D03*
X0329500Y0201500D03*
X0339500Y0201500D03*
X0349500Y0201500D03*
X0359500Y0201500D03*
X0359500Y0189500D03*
X0349500Y0189500D03*
X0339500Y0189500D03*
X0329500Y0189500D03*
X0319500Y0189500D03*
X0309500Y0189500D03*
X0269500Y0226500D03*
X0237500Y0201500D03*
X0227500Y0201500D03*
X0217500Y0201500D03*
X0207500Y0201500D03*
X0197500Y0201500D03*
X0187500Y0201500D03*
X0177500Y0201500D03*
X0167500Y0201500D03*
X0167500Y0189500D03*
X0177500Y0189500D03*
X0187500Y0189500D03*
X0197500Y0189500D03*
X0207500Y0189500D03*
X0217500Y0189500D03*
X0227500Y0189500D03*
X0237500Y0189500D03*
X0227500Y0169500D03*
X0217500Y0169500D03*
X0207500Y0169500D03*
X0197500Y0169500D03*
X0187500Y0169500D03*
X0177500Y0169500D03*
X0147500Y0226500D03*
X0115500Y0201500D03*
X0105500Y0201500D03*
X0095500Y0201500D03*
X0085500Y0201500D03*
X0075500Y0201500D03*
X0065500Y0201500D03*
X0055500Y0201500D03*
X0045500Y0201500D03*
X0045500Y0189500D03*
X0055500Y0189500D03*
X0065500Y0189500D03*
X0075500Y0189500D03*
X0085500Y0189500D03*
X0095500Y0189500D03*
X0105500Y0189500D03*
X0115500Y0189500D03*
X0105500Y0169500D03*
X0095500Y0169500D03*
X0085500Y0169500D03*
X0075500Y0169500D03*
X0065500Y0169500D03*
X0055500Y0169500D03*
X0025500Y0124500D03*
X0025500Y0226500D03*
X0055500Y0271500D03*
X0065500Y0271500D03*
X0075500Y0271500D03*
X0085500Y0271500D03*
X0095500Y0271500D03*
X0105500Y0271500D03*
X0105500Y0291500D03*
X0095500Y0291500D03*
X0085500Y0291500D03*
X0075500Y0291500D03*
X0065500Y0291500D03*
X0055500Y0291500D03*
X0045500Y0291500D03*
X0045500Y0303500D03*
X0055500Y0303500D03*
X0065500Y0303500D03*
X0075500Y0303500D03*
X0085500Y0303500D03*
X0095500Y0303500D03*
X0105500Y0303500D03*
X0115500Y0303500D03*
X0115500Y0291500D03*
X0147500Y0328500D03*
X0167500Y0303500D03*
X0177500Y0303500D03*
X0187500Y0303500D03*
X0197500Y0303500D03*
X0207500Y0303500D03*
X0217500Y0303500D03*
X0227500Y0303500D03*
X0237500Y0303500D03*
X0237500Y0291500D03*
X0227500Y0291500D03*
X0217500Y0291500D03*
X0207500Y0291500D03*
X0197500Y0291500D03*
X0187500Y0291500D03*
X0177500Y0291500D03*
X0167500Y0291500D03*
X0177500Y0271500D03*
X0187500Y0271500D03*
X0197500Y0271500D03*
X0207500Y0271500D03*
X0217500Y0271500D03*
X0227500Y0271500D03*
X0289500Y0291500D03*
X0299500Y0291500D03*
X0309500Y0291500D03*
X0319500Y0291500D03*
X0329500Y0291500D03*
X0339500Y0291500D03*
X0349500Y0291500D03*
X0359500Y0291500D03*
X0359500Y0303500D03*
X0349500Y0303500D03*
X0339500Y0303500D03*
X0329500Y0303500D03*
X0319500Y0303500D03*
X0309500Y0303500D03*
X0299500Y0303500D03*
X0289500Y0303500D03*
X0269500Y0328500D03*
X0299500Y0373500D03*
X0309500Y0373500D03*
X0319500Y0373500D03*
X0329500Y0373500D03*
X0339500Y0373500D03*
X0349500Y0373500D03*
X0349500Y0393500D03*
X0339500Y0393500D03*
X0329500Y0393500D03*
X0319500Y0393500D03*
X0309500Y0393500D03*
X0299500Y0393500D03*
X0289500Y0393500D03*
X0237500Y0393500D03*
X0227500Y0393500D03*
X0217500Y0393500D03*
X0207500Y0393500D03*
X0197500Y0393500D03*
X0187500Y0393500D03*
X0177500Y0393500D03*
X0167500Y0393500D03*
X0177500Y0373500D03*
X0187500Y0373500D03*
X0197500Y0373500D03*
X0207500Y0373500D03*
X0217500Y0373500D03*
X0227500Y0373500D03*
X0299500Y0271500D03*
X0309500Y0271500D03*
X0319500Y0271500D03*
X0329500Y0271500D03*
X0339500Y0271500D03*
X0349500Y0271500D03*
X0359500Y0393500D03*
X0115500Y0393500D03*
X0105500Y0393500D03*
X0095500Y0393500D03*
X0085500Y0393500D03*
X0075500Y0393500D03*
X0065500Y0393500D03*
X0055500Y0393500D03*
X0045500Y0393500D03*
X0055500Y0373500D03*
X0065500Y0373500D03*
X0075500Y0373500D03*
X0085500Y0373500D03*
X0095500Y0373500D03*
X0105500Y0373500D03*
X0025500Y0328500D03*
D15*
X0054000Y0325154D03*
X0054000Y0331846D03*
X0061500Y0331846D03*
X0061500Y0325154D03*
X0069000Y0325154D03*
X0069000Y0331846D03*
X0076500Y0331846D03*
X0076500Y0325154D03*
X0084000Y0325154D03*
X0084000Y0331846D03*
X0091500Y0331846D03*
X0091500Y0325154D03*
X0099000Y0325154D03*
X0099000Y0331846D03*
X0106500Y0331846D03*
X0106500Y0325154D03*
X0090500Y0360154D03*
X0090500Y0366846D03*
X0070500Y0366846D03*
X0070500Y0360154D03*
X0060500Y0360154D03*
X0060500Y0366846D03*
X0060500Y0351846D03*
X0060500Y0345154D03*
X0060500Y0264846D03*
X0060500Y0258154D03*
X0060500Y0249846D03*
X0060500Y0243154D03*
X0061500Y0229846D03*
X0069000Y0229846D03*
X0069000Y0223154D03*
X0061500Y0223154D03*
X0054000Y0223154D03*
X0054000Y0229846D03*
X0076500Y0229846D03*
X0084000Y0229846D03*
X0084000Y0223154D03*
X0076500Y0223154D03*
X0091500Y0223154D03*
X0091500Y0229846D03*
X0099000Y0229846D03*
X0106500Y0229846D03*
X0106500Y0223154D03*
X0099000Y0223154D03*
X0090500Y0258154D03*
X0090500Y0264846D03*
X0070500Y0264846D03*
X0070500Y0258154D03*
X0070500Y0162846D03*
X0070500Y0156154D03*
X0060500Y0156154D03*
X0060500Y0162846D03*
X0060500Y0147846D03*
X0060500Y0141154D03*
X0061500Y0127846D03*
X0069000Y0127846D03*
X0069000Y0121154D03*
X0061500Y0121154D03*
X0054000Y0121154D03*
X0054000Y0127846D03*
X0076500Y0127846D03*
X0084000Y0127846D03*
X0084000Y0121154D03*
X0076500Y0121154D03*
X0091500Y0121154D03*
X0091500Y0127846D03*
X0099000Y0127846D03*
X0106500Y0127846D03*
X0106500Y0121154D03*
X0099000Y0121154D03*
X0090500Y0156154D03*
X0090500Y0162846D03*
X0176000Y0127846D03*
X0176000Y0121154D03*
X0183500Y0121154D03*
X0191000Y0121154D03*
X0191000Y0127846D03*
X0183500Y0127846D03*
X0182500Y0141154D03*
X0182500Y0147846D03*
X0182500Y0156154D03*
X0182500Y0162846D03*
X0192500Y0162846D03*
X0192500Y0156154D03*
X0212500Y0156154D03*
X0212500Y0162846D03*
X0213500Y0127846D03*
X0213500Y0121154D03*
X0206000Y0121154D03*
X0198500Y0121154D03*
X0198500Y0127846D03*
X0206000Y0127846D03*
X0221000Y0127846D03*
X0228500Y0127846D03*
X0228500Y0121154D03*
X0221000Y0121154D03*
X0298000Y0121154D03*
X0298000Y0127846D03*
X0305500Y0127846D03*
X0313000Y0127846D03*
X0313000Y0121154D03*
X0305500Y0121154D03*
X0320500Y0121154D03*
X0328000Y0121154D03*
X0328000Y0127846D03*
X0320500Y0127846D03*
X0335500Y0127846D03*
X0335500Y0121154D03*
X0343000Y0121154D03*
X0350500Y0121154D03*
X0350500Y0127846D03*
X0343000Y0127846D03*
X0334500Y0156154D03*
X0334500Y0162846D03*
X0314500Y0162846D03*
X0314500Y0156154D03*
X0304500Y0156154D03*
X0304500Y0162846D03*
X0304500Y0147846D03*
X0304500Y0141154D03*
X0305500Y0223154D03*
X0313000Y0223154D03*
X0313000Y0229846D03*
X0305500Y0229846D03*
X0298000Y0229846D03*
X0298000Y0223154D03*
X0304500Y0243154D03*
X0304500Y0249846D03*
X0304500Y0258154D03*
X0304500Y0264846D03*
X0314500Y0264846D03*
X0314500Y0258154D03*
X0334500Y0258154D03*
X0334500Y0264846D03*
X0335500Y0229846D03*
X0335500Y0223154D03*
X0328000Y0223154D03*
X0320500Y0223154D03*
X0320500Y0229846D03*
X0328000Y0229846D03*
X0343000Y0229846D03*
X0350500Y0229846D03*
X0350500Y0223154D03*
X0343000Y0223154D03*
X0343000Y0325154D03*
X0343000Y0331846D03*
X0350500Y0331846D03*
X0350500Y0325154D03*
X0335500Y0325154D03*
X0335500Y0331846D03*
X0328000Y0331846D03*
X0328000Y0325154D03*
X0320500Y0325154D03*
X0320500Y0331846D03*
X0313000Y0331846D03*
X0313000Y0325154D03*
X0305500Y0325154D03*
X0305500Y0331846D03*
X0298000Y0331846D03*
X0298000Y0325154D03*
X0304500Y0345154D03*
X0304500Y0351846D03*
X0304500Y0360154D03*
X0304500Y0366846D03*
X0314500Y0366846D03*
X0314500Y0360154D03*
X0334500Y0360154D03*
X0334500Y0366846D03*
X0228500Y0331846D03*
X0228500Y0325154D03*
X0221000Y0325154D03*
X0221000Y0331846D03*
X0213500Y0331846D03*
X0213500Y0325154D03*
X0206000Y0325154D03*
X0206000Y0331846D03*
X0198500Y0331846D03*
X0198500Y0325154D03*
X0191000Y0325154D03*
X0191000Y0331846D03*
X0183500Y0331846D03*
X0183500Y0325154D03*
X0176000Y0325154D03*
X0176000Y0331846D03*
X0182500Y0345154D03*
X0182500Y0351846D03*
X0182500Y0360154D03*
X0182500Y0366846D03*
X0192500Y0366846D03*
X0192500Y0360154D03*
X0212500Y0360154D03*
X0212500Y0366846D03*
X0212500Y0264846D03*
X0212500Y0258154D03*
X0192500Y0258154D03*
X0192500Y0264846D03*
X0182500Y0264846D03*
X0182500Y0258154D03*
X0182500Y0249846D03*
X0182500Y0243154D03*
X0183500Y0229846D03*
X0191000Y0229846D03*
X0191000Y0223154D03*
X0183500Y0223154D03*
X0176000Y0223154D03*
X0176000Y0229846D03*
X0198500Y0229846D03*
X0206000Y0229846D03*
X0206000Y0223154D03*
X0198500Y0223154D03*
X0213500Y0223154D03*
X0213500Y0229846D03*
X0221000Y0229846D03*
X0228500Y0229846D03*
X0228500Y0223154D03*
X0221000Y0223154D03*
D16*
X0211358Y0239807D03*
X0209390Y0239807D03*
X0207421Y0239807D03*
X0205453Y0239807D03*
X0203484Y0239807D03*
X0201516Y0239807D03*
X0199547Y0239807D03*
X0197579Y0239807D03*
X0195610Y0239807D03*
X0193642Y0239807D03*
X0193642Y0253193D03*
X0195610Y0253193D03*
X0197579Y0253193D03*
X0199547Y0253193D03*
X0201516Y0253193D03*
X0203484Y0253193D03*
X0205453Y0253193D03*
X0207421Y0253193D03*
X0209390Y0253193D03*
X0211358Y0253193D03*
X0211358Y0341807D03*
X0209390Y0341807D03*
X0207421Y0341807D03*
X0205453Y0341807D03*
X0203484Y0341807D03*
X0201516Y0341807D03*
X0199547Y0341807D03*
X0197579Y0341807D03*
X0195610Y0341807D03*
X0193642Y0341807D03*
X0193642Y0355193D03*
X0195610Y0355193D03*
X0197579Y0355193D03*
X0199547Y0355193D03*
X0201516Y0355193D03*
X0203484Y0355193D03*
X0205453Y0355193D03*
X0207421Y0355193D03*
X0209390Y0355193D03*
X0211358Y0355193D03*
X0315642Y0355193D03*
X0317610Y0355193D03*
X0319579Y0355193D03*
X0321547Y0355193D03*
X0323516Y0355193D03*
X0325484Y0355193D03*
X0327453Y0355193D03*
X0329421Y0355193D03*
X0331390Y0355193D03*
X0333358Y0355193D03*
X0333358Y0341807D03*
X0331390Y0341807D03*
X0329421Y0341807D03*
X0327453Y0341807D03*
X0325484Y0341807D03*
X0323516Y0341807D03*
X0321547Y0341807D03*
X0319579Y0341807D03*
X0317610Y0341807D03*
X0315642Y0341807D03*
X0315642Y0253193D03*
X0317610Y0253193D03*
X0319579Y0253193D03*
X0321547Y0253193D03*
X0323516Y0253193D03*
X0325484Y0253193D03*
X0327453Y0253193D03*
X0329421Y0253193D03*
X0331390Y0253193D03*
X0333358Y0253193D03*
X0333358Y0239807D03*
X0331390Y0239807D03*
X0329421Y0239807D03*
X0327453Y0239807D03*
X0325484Y0239807D03*
X0323516Y0239807D03*
X0321547Y0239807D03*
X0319579Y0239807D03*
X0317610Y0239807D03*
X0315642Y0239807D03*
X0315642Y0151193D03*
X0317610Y0151193D03*
X0319579Y0151193D03*
X0321547Y0151193D03*
X0323516Y0151193D03*
X0325484Y0151193D03*
X0327453Y0151193D03*
X0329421Y0151193D03*
X0331390Y0151193D03*
X0333358Y0151193D03*
X0333358Y0137807D03*
X0331390Y0137807D03*
X0329421Y0137807D03*
X0327453Y0137807D03*
X0325484Y0137807D03*
X0323516Y0137807D03*
X0321547Y0137807D03*
X0319579Y0137807D03*
X0317610Y0137807D03*
X0315642Y0137807D03*
X0211358Y0137807D03*
X0209390Y0137807D03*
X0207421Y0137807D03*
X0205453Y0137807D03*
X0203484Y0137807D03*
X0201516Y0137807D03*
X0199547Y0137807D03*
X0197579Y0137807D03*
X0195610Y0137807D03*
X0193642Y0137807D03*
X0193642Y0151193D03*
X0195610Y0151193D03*
X0197579Y0151193D03*
X0199547Y0151193D03*
X0201516Y0151193D03*
X0203484Y0151193D03*
X0205453Y0151193D03*
X0207421Y0151193D03*
X0209390Y0151193D03*
X0211358Y0151193D03*
X0089358Y0151193D03*
X0087390Y0151193D03*
X0085421Y0151193D03*
X0083453Y0151193D03*
X0081484Y0151193D03*
X0079516Y0151193D03*
X0077547Y0151193D03*
X0075579Y0151193D03*
X0073610Y0151193D03*
X0071642Y0151193D03*
X0071642Y0137807D03*
X0073610Y0137807D03*
X0075579Y0137807D03*
X0077547Y0137807D03*
X0079516Y0137807D03*
X0081484Y0137807D03*
X0083453Y0137807D03*
X0085421Y0137807D03*
X0087390Y0137807D03*
X0089358Y0137807D03*
X0089358Y0239807D03*
X0087390Y0239807D03*
X0085421Y0239807D03*
X0083453Y0239807D03*
X0081484Y0239807D03*
X0079516Y0239807D03*
X0077547Y0239807D03*
X0075579Y0239807D03*
X0073610Y0239807D03*
X0071642Y0239807D03*
X0071642Y0253193D03*
X0073610Y0253193D03*
X0075579Y0253193D03*
X0077547Y0253193D03*
X0079516Y0253193D03*
X0081484Y0253193D03*
X0083453Y0253193D03*
X0085421Y0253193D03*
X0087390Y0253193D03*
X0089358Y0253193D03*
X0089358Y0341807D03*
X0087390Y0341807D03*
X0085421Y0341807D03*
X0083453Y0341807D03*
X0081484Y0341807D03*
X0079516Y0341807D03*
X0077547Y0341807D03*
X0075579Y0341807D03*
X0073610Y0341807D03*
X0071642Y0341807D03*
X0071642Y0355193D03*
X0073610Y0355193D03*
X0075579Y0355193D03*
X0077547Y0355193D03*
X0079516Y0355193D03*
X0081484Y0355193D03*
X0083453Y0355193D03*
X0085421Y0355193D03*
X0087390Y0355193D03*
X0089358Y0355193D03*
D17*
X0089949Y0351453D03*
X0089949Y0349484D03*
X0089949Y0347516D03*
X0089949Y0345547D03*
X0071051Y0345547D03*
X0071051Y0347516D03*
X0071051Y0349484D03*
X0071051Y0351453D03*
X0071051Y0249453D03*
X0071051Y0247484D03*
X0071051Y0245516D03*
X0071051Y0243547D03*
X0089949Y0243547D03*
X0089949Y0245516D03*
X0089949Y0247484D03*
X0089949Y0249453D03*
X0193051Y0249453D03*
X0193051Y0247484D03*
X0193051Y0245516D03*
X0193051Y0243547D03*
X0211949Y0243547D03*
X0211949Y0245516D03*
X0211949Y0247484D03*
X0211949Y0249453D03*
X0211949Y0345547D03*
X0211949Y0347516D03*
X0211949Y0349484D03*
X0211949Y0351453D03*
X0193051Y0351453D03*
X0193051Y0349484D03*
X0193051Y0347516D03*
X0193051Y0345547D03*
X0315051Y0345547D03*
X0315051Y0347516D03*
X0315051Y0349484D03*
X0315051Y0351453D03*
X0333949Y0351453D03*
X0333949Y0349484D03*
X0333949Y0347516D03*
X0333949Y0345547D03*
X0333949Y0249453D03*
X0333949Y0247484D03*
X0333949Y0245516D03*
X0333949Y0243547D03*
X0315051Y0243547D03*
X0315051Y0245516D03*
X0315051Y0247484D03*
X0315051Y0249453D03*
X0315051Y0147453D03*
X0315051Y0145484D03*
X0315051Y0143516D03*
X0315051Y0141547D03*
X0333949Y0141547D03*
X0333949Y0143516D03*
X0333949Y0145484D03*
X0333949Y0147453D03*
X0211949Y0147453D03*
X0211949Y0145484D03*
X0211949Y0143516D03*
X0211949Y0141547D03*
X0193051Y0141547D03*
X0193051Y0143516D03*
X0193051Y0145484D03*
X0193051Y0147453D03*
X0089949Y0147453D03*
X0089949Y0145484D03*
X0089949Y0143516D03*
X0089949Y0141547D03*
X0071051Y0141547D03*
X0071051Y0143516D03*
X0071051Y0145484D03*
X0071051Y0147453D03*
D18*
X0122154Y0124500D03*
X0128846Y0124500D03*
X0128846Y0104500D03*
X0122154Y0104500D03*
X0122154Y0206500D03*
X0128846Y0206500D03*
X0128846Y0226500D03*
X0122154Y0226500D03*
X0122154Y0308500D03*
X0128846Y0308500D03*
X0128846Y0328500D03*
X0122154Y0328500D03*
X0244154Y0328500D03*
X0250846Y0328500D03*
X0250846Y0308500D03*
X0244154Y0308500D03*
X0244154Y0226500D03*
X0250846Y0226500D03*
X0250846Y0206500D03*
X0244154Y0206500D03*
X0244154Y0124500D03*
X0250846Y0124500D03*
X0250846Y0104500D03*
X0244154Y0104500D03*
X0366154Y0104500D03*
X0372846Y0104500D03*
X0372846Y0124500D03*
X0366154Y0124500D03*
X0366154Y0206500D03*
X0372846Y0206500D03*
X0372846Y0226500D03*
X0366154Y0226500D03*
X0366154Y0308500D03*
X0372846Y0308500D03*
X0372846Y0328500D03*
X0366154Y0328500D03*
D19*
X0369500Y0321700D03*
X0369500Y0318500D03*
X0369500Y0315300D03*
X0369500Y0219700D03*
X0369500Y0216500D03*
X0369500Y0213300D03*
X0369500Y0117700D03*
X0369500Y0114500D03*
X0369500Y0111300D03*
X0247500Y0111300D03*
X0247500Y0114500D03*
X0247500Y0117700D03*
X0247500Y0213300D03*
X0247500Y0216500D03*
X0247500Y0219700D03*
X0247500Y0315300D03*
X0247500Y0318500D03*
X0247500Y0321700D03*
X0125500Y0321700D03*
X0125500Y0318500D03*
X0125500Y0315300D03*
X0125500Y0219700D03*
X0125500Y0216500D03*
X0125500Y0213300D03*
X0125500Y0117700D03*
X0125500Y0114500D03*
X0125500Y0111300D03*
D20*
X0085421Y0159500D03*
X0075579Y0159500D03*
X0075579Y0261500D03*
X0085421Y0261500D03*
X0085421Y0363500D03*
X0075579Y0363500D03*
X0197579Y0363500D03*
X0207421Y0363500D03*
X0207421Y0261500D03*
X0197579Y0261500D03*
X0197579Y0159500D03*
X0207421Y0159500D03*
X0319579Y0159500D03*
X0329421Y0159500D03*
X0329421Y0261500D03*
X0319579Y0261500D03*
X0319579Y0363500D03*
X0329421Y0363500D03*
M02*
